<svg width="70" height="70" viewBox="0 0 70 70" fill="none" xmlns="http://www.w3.org/2000/svg">
<path d="M22.8571 70C19.6599 70 16.6837 69.3963 13.9286 68.1888C11.1735 66.9813 8.77551 65.3401 6.73469 63.2653C4.65986 61.2245 3.01871 58.8265 1.81122 56.0714C0.603742 53.3163 0 50.3357 0 47.1296C0 42.5806 1.22449 38.3844 3.67347 34.5408C6.12245 30.6973 9.52381 27.8742 13.8776 26.0714C15.068 23.2143 16.7092 20.7483 18.801 18.6735C20.8929 16.5986 23.3163 15.0054 26.0714 13.8939C27.8742 9.63129 30.6207 6.25 34.3112 3.75C38.0017 1.25 42.2745 0 47.1296 0C50.3357 0 53.3163 0.603742 56.0714 1.81122C58.8265 3.01871 61.2405 4.64592 63.3133 6.69286C65.3527 8.77381 66.9769 11.185 68.1857 13.9265C69.3952 16.6673 70 19.6503 70 22.8755C70 27.6252 68.8078 31.8381 66.4235 35.5143C64.0384 39.1905 60.6048 41.9952 56.1225 43.9286C54.932 46.7857 53.3163 49.2347 51.2755 51.2755C49.2347 53.3163 46.7857 54.932 43.9286 56.1225C42.1265 60.3667 39.3823 63.7408 35.6959 66.2449C32.0095 68.7483 27.7299 70 22.8571 70ZM23.0612 67.398C26.3585 67.398 29.6915 66.5391 33.0602 64.8214C36.4282 63.1037 38.9796 60.5782 40.7143 57.2449C36.5306 58.2313 32.551 58.1037 28.7755 56.8622C25 55.6208 21.7687 53.6735 19.0816 51.0204C16.3605 48.3333 14.3793 45.119 13.1378 41.3776C11.8963 37.6361 11.7687 33.6735 12.7551 29.4898C9.52381 31.3265 7.02381 33.8667 5.2551 37.1102C3.48639 40.3531 2.60204 43.6973 2.60204 47.1429C2.60204 50 3.13776 52.6531 4.20918 55.102C5.28061 57.551 6.73469 59.6939 8.57143 61.5306C10.4762 63.3673 12.6531 64.8044 15.102 65.8418C17.551 66.8793 20.2041 67.398 23.0612 67.398ZM35 55.2551C39.4558 55.2551 43.2143 54.1752 46.2755 52.0153C49.3367 49.8554 51.5306 47.534 52.8571 45.051C48.6735 46.0374 44.6939 45.9184 40.9184 44.6939C37.1429 43.4694 33.9116 41.5306 31.2245 38.8776C28.5034 36.1905 26.5306 32.9762 25.3061 29.2347C24.0816 25.4932 23.9626 21.5306 24.949 17.3469C22.2279 18.8776 19.881 21.1905 17.9082 24.2857C15.9354 27.381 14.949 30.9524 14.949 35C14.949 37.8354 15.4762 40.466 16.5306 42.8918C17.585 45.3177 19.0139 47.4486 20.8173 49.2847C22.6534 51.1561 24.7673 52.619 27.1592 53.6735C29.551 54.7279 32.1646 55.2551 35 55.2551ZM47.3602 43.1122C48.5915 43.1122 49.7544 43.0102 50.849 42.8061C51.9435 42.602 53.0721 42.2959 54.2347 41.8878C55.6973 37.8401 55.9221 33.9452 54.9092 30.2031C53.8963 26.4609 52.0854 23.3024 49.4765 20.7276C46.9017 18.1187 43.7432 16.3078 40.001 15.2949C36.2588 14.282 32.3667 14.5003 28.3245 15.95C27.9136 17.1221 27.6054 18.2602 27.4 19.3643C27.1946 20.4684 27.0918 21.635 27.0918 22.8643C27.0918 25.6983 27.619 28.3272 28.6735 30.751C29.7279 33.1755 31.1908 35.3058 33.0622 37.1418C34.8983 39.0133 37.0306 40.4762 39.4592 41.5306C41.8878 42.585 44.5214 43.1122 47.3602 43.1122ZM57.449 40.5102C60.4762 38.7755 62.8912 36.4878 64.6939 33.6469C66.4966 30.8061 67.398 27.2095 67.398 22.8571C67.398 20.0218 66.8708 17.3912 65.8163 14.9653C64.7619 12.5395 63.299 10.4085 61.4276 8.57245C59.5915 6.70102 57.4605 5.2381 55.0347 4.18367C52.6088 3.12925 49.9782 2.60204 47.1429 2.60204C43.2993 2.60204 39.8895 3.5119 36.9133 5.33163C33.9371 7.15136 31.4626 9.62585 29.4898 12.7551C33.6735 11.7687 37.6531 11.8878 41.4286 13.1122C45.2041 14.3367 48.4524 16.2755 51.1735 18.9286C53.8946 21.6497 55.8673 24.881 57.0918 28.6224C58.3163 32.3639 58.4354 36.3265 57.449 40.5102Z" fill="#080200"/>
</svg>
