<svg width="70" height="70" viewBox="0 0 70 70" fill="none" xmlns="http://www.w3.org/2000/svg">
<path d="M32.2495 53.6482C27.6063 52.9416 23.7623 50.8408 20.7174 47.3456C17.6724 43.8505 16.15 39.7437 16.15 35.0252C16.15 29.757 17.9702 25.2939 21.6107 21.6359C25.2518 17.9786 29.6984 16.15 34.9505 16.15C39.6771 16.15 43.79 17.6724 47.2891 20.7174C50.7883 23.7623 52.908 27.5727 53.6482 32.1485L50.7715 31.341C49.902 27.6736 48.0132 24.6539 45.1048 22.2819C42.1958 19.9099 38.8228 18.7239 34.9859 18.7239C30.478 18.7239 26.6407 20.3123 23.474 23.4891C20.3072 26.6653 18.7239 30.5143 18.7239 35.0363C18.7239 38.8982 19.9163 42.2937 22.3011 45.2229C24.6859 48.1528 27.6824 50.036 31.2906 50.8724L32.2495 53.6482ZM37.0944 69.9495C36.7412 69.9832 36.3896 70 36.0397 70H34.9909C30.1641 70 25.6186 69.0825 21.3543 67.2474C17.09 65.4124 13.3809 62.9219 10.227 59.7761C7.07234 56.6302 4.57919 52.9308 2.74751 48.678C0.915838 44.4252 0 39.881 0 35.0454C0 30.2105 0.915164 25.6643 2.74549 21.4068C4.57515 17.1486 7.06595 13.4385 10.2179 10.2764C13.3691 7.1144 17.0749 4.61115 21.3351 2.76669C25.5953 0.922228 30.1365 0 34.9586 0C39.7807 0 44.3246 0.921896 48.5902 2.76568C52.8551 4.61014 56.5652 7.11305 59.7205 10.2744C62.8758 13.4358 65.3777 17.1439 67.2262 21.3987C69.0754 25.6542 70 30.2011 70 35.0394C70 35.3738 69.9916 35.7072 69.9748 36.0397C69.9579 36.3727 69.931 36.6907 69.894 36.9935L67.4261 36.2869V35.0252C67.4261 26.0028 64.2738 18.3386 57.9693 12.0327C51.6641 5.72685 44.0012 2.5739 34.9808 2.5739C25.9597 2.5739 18.3033 5.72617 12.0115 12.0307C5.71978 18.3359 2.5739 25.9988 2.5739 35.0192C2.5739 44.0403 5.7218 51.6967 12.0176 57.9885C18.3141 64.2802 25.9664 67.4261 34.9748 67.4261H36.2365L37.0944 69.9495ZM65.3569 68.4355L45.3713 48.349L42.0404 58.4427L34.9748 35.0252L58.3922 42.0908L48.2985 45.4218L68.385 65.4073L65.3569 68.4355Z" fill="#080200"/>
</svg>
