<svg width="91" height="70" viewBox="0 0 91 70" fill="none" xmlns="http://www.w3.org/2000/svg">
<path d="M45.1352 53.1641C47.4566 53.0092 49.1298 52.2104 50.1548 50.7679L77.1378 14.1461L40.2987 40.8989C38.7696 41.9252 37.9056 43.5563 37.7066 45.7922C37.5077 48.0281 38.1156 49.8545 39.5306 51.2713C40.9456 52.6882 42.8138 53.3191 45.1352 53.1641ZM45.4682 0C50.2101 0 54.4408 0.542378 58.1604 1.62713C61.88 2.71189 65.7075 4.40544 69.6429 6.70778L66.7245 8.96584C63.4966 7.10626 60.1471 5.71158 56.676 4.78178C53.2049 3.85199 49.4796 3.3871 45.5 3.3871C33.8265 3.3871 23.8886 7.49368 15.6862 15.7068C7.48384 23.92 3.38265 33.8829 3.38265 45.5956C3.38265 49.2944 3.8801 52.9361 4.875 56.5207C5.8699 60.1052 7.30211 63.4693 9.17163 66.6129H81.827C83.8743 63.3365 85.3512 59.883 86.2577 56.2524C87.1641 52.6209 87.6173 48.8818 87.6173 45.0351C87.6173 41.8871 87.1973 38.4424 86.3571 34.7011C85.517 30.9598 84.1241 27.4953 82.1786 24.3074L84.4337 21.3188C87.0425 25.8792 88.7891 29.9968 89.6735 33.6717C90.5578 37.3466 91 41.1322 91 45.0285C91 49.3675 90.5247 53.3855 89.574 57.0825C88.6233 60.7796 87.1088 64.6205 85.0306 68.6053C84.8095 69.0038 84.4116 69.3359 83.8367 69.6015C83.2619 69.8672 82.5986 70 81.8469 70H9.15306C8.53136 70 7.94459 69.845 7.39275 69.5351C6.8418 69.2252 6.37619 68.7319 5.99592 68.0554C4.43061 65.3227 3.03997 62.1202 1.82398 58.448C0.607993 54.7749 0 50.485 0 45.5784C0 39.3674 1.16779 33.4982 3.50337 27.9708C5.83895 22.4434 9.04252 17.6041 13.1141 13.4528C17.1856 9.30234 22.0005 6.02284 27.5587 3.61423C33.1168 1.20475 39.0867 0 45.4682 0Z" fill="#080200"/>
</svg>
