<svg width="70" height="70" viewBox="0 0 70 70" fill="none" xmlns="http://www.w3.org/2000/svg">
<path d="M24.4003 34.0555L34.1079 24.4003L24.6627 15.0075L19.6252 20.045L17.7361 18.1559L22.7736 13.1184L13.3283 3.62069L3.67316 13.2759L24.4003 34.0555ZM56.6192 66.2219L66.2744 56.5667L56.8816 47.1739L51.8441 52.2114L49.9025 50.2699L54.94 45.2324L45.6522 35.9445L35.997 45.5997L56.6192 66.2219ZM15.8996 65.8021H4.1979V54.1529L22.5112 35.8396L0 13.2759L13.3808 0L35.997 22.5637L57.4588 1.04948L68.8981 12.8036L47.6462 34.1079L70 56.6192L56.7241 70L34.1604 47.5412L15.8996 65.8021ZM6.87406 63.1259H14.7451L55.2024 22.6162L47.3838 14.7976L6.87406 55.3073V63.1259ZM51.3193 18.6282L47.3838 14.7976L55.2024 22.6162L51.3193 18.6282Z" fill="#080200"/>
</svg>
