<svg width="93" height="70" viewBox="0 0 93 70" fill="none" xmlns="http://www.w3.org/2000/svg">
<path d="M0 69.9448V66.5539H46.6742V69.9448H0ZM5.319 58.5755V0H84.838V3.39086H8.70986V55.1846H46.6742V58.5755H5.319ZM89.3591 66.5539V22.4063H65.6896V66.5539H89.3591ZM62.2987 69.9448V19.0154H92.75V69.9448H62.2987ZM77.4699 36.7676C78.3927 36.7676 79.1866 36.4467 79.8514 35.8048C80.5163 35.1621 80.8487 34.4152 80.8487 33.5642C80.8487 32.6414 80.515 31.8475 79.8474 31.1826C79.1799 30.5177 78.3865 30.1853 77.4672 30.1853C76.5745 30.1853 75.8179 30.5191 75.1973 31.1866C74.5768 31.8541 74.2665 32.6476 74.2665 33.5669C74.2665 34.4596 74.5874 35.2162 75.2292 35.8367C75.8719 36.4573 76.6188 36.7676 77.4699 36.7676Z" fill="#080200"/>
</svg>
