<svg width="70" height="70" viewBox="0 0 70 70" fill="none" xmlns="http://www.w3.org/2000/svg">
<path d="M68.2182 70L53.4545 55.2471V68.2195H50.8582V50.7703H68.32V53.3648H55.1855L70 68.1686L68.2182 70ZM34.8992 69.7965C30.0717 69.7965 25.535 68.8842 21.2892 67.0596C17.044 65.2343 13.3518 62.7477 10.2124 59.5997C7.07297 56.4511 4.58589 52.7557 2.75113 48.5137C0.917043 44.2716 0 39.7389 0 34.9156C0 30.0875 0.917043 25.5469 2.75113 21.294C4.58589 17.0418 7.07535 13.3431 10.2195 10.1978C13.3643 7.05189 17.0549 4.56594 21.2912 2.73997C25.5275 0.913323 30.0611 0 34.8921 0C39.7223 0 44.2668 0.917052 48.5255 2.75116C52.7842 4.58459 56.4887 7.07325 59.639 10.2171C62.7892 13.361 65.278 17.0547 67.1053 21.2981C68.9333 25.5415 69.8473 30.0756 69.8473 34.9003C69.8473 35.8994 69.8133 36.8907 69.7455 37.8743C69.6776 38.8578 69.5659 39.8498 69.4105 40.8503H66.64C66.8436 39.8837 66.9964 38.9002 67.0982 37.8997C67.2 36.8992 67.2509 35.8987 67.2509 34.8983C67.2509 33.2249 67.1321 31.5519 66.8945 29.8792C66.657 28.2059 66.2667 26.5552 65.7236 24.9273H48.5673C48.9067 26.5891 49.1442 28.2523 49.28 29.9169C49.4158 31.5814 49.4836 33.2459 49.4836 34.9105C49.4836 35.8743 49.4582 36.8595 49.4073 37.8661C49.3564 38.872 49.3024 39.8668 49.2454 40.8503H46.5818C46.6836 39.8579 46.76 38.8659 46.8109 37.8743C46.8618 36.8819 46.8873 35.8899 46.8873 34.8983C46.8873 33.2249 46.8068 31.5519 46.646 29.8792C46.4844 28.2059 46.2594 26.5552 45.9709 24.9273H23.9273C23.5879 26.5552 23.3418 28.2086 23.1891 29.8874C23.0364 31.5661 22.96 33.2449 22.96 34.9237C22.96 36.6025 23.0364 38.2728 23.1891 39.9346C23.3418 41.5964 23.5848 43.2413 23.9181 44.8692H41.9491V47.4637H24.5891C25.6317 51.1217 26.9784 54.6475 28.6292 58.041C30.28 61.4352 32.3782 64.5736 34.9236 67.4564C35.8963 67.4564 36.8864 67.414 37.8937 67.3292C38.9003 67.2444 39.9127 67.1172 40.9309 66.9477V69.2878C39.9127 69.4574 38.9003 69.5845 37.8937 69.6693C36.8864 69.7541 35.8882 69.7965 34.8992 69.7965ZM4.17658 44.8692H21.28C20.9426 43.2074 20.7068 41.5428 20.5724 39.8756C20.438 38.2077 20.3708 36.5401 20.3708 34.8728C20.3708 33.2056 20.438 31.5465 20.5724 29.8955C20.7068 28.2452 20.9426 26.5891 21.28 24.9273H4.17047C3.63016 26.5552 3.23273 28.2086 2.97818 29.8874C2.72364 31.5661 2.59636 33.2449 2.59636 34.9237C2.59636 36.6025 2.71956 38.2728 2.96596 39.9346C3.21169 41.5964 3.61522 43.2413 4.17658 44.8692ZM5.14182 22.3328H21.8431C22.6895 18.6701 23.9103 15.1599 25.5055 11.8023C27.1006 8.44477 29.1539 5.34157 31.6655 2.49273C25.7261 3.17103 20.4145 5.28222 15.7309 8.82631C11.0473 12.3704 7.51758 16.8726 5.14182 22.3328ZM31.6655 67.3038C29.3508 64.3749 27.3721 61.2432 25.7295 57.9087C24.0868 54.5742 22.8049 51.0925 21.8838 47.4637H5.14182C7.51758 52.8561 11.0642 57.3159 15.7818 60.843C20.4994 64.3702 25.7939 66.5237 31.6655 67.3038ZM24.5891 22.3328H45.3091C44.3248 18.6361 42.9561 15.1368 41.2028 11.8349C39.4495 8.53295 37.3564 5.36802 34.9236 2.34012C32.4461 5.22287 30.3418 8.3515 28.6109 11.726C26.88 15.1005 25.5394 18.6361 24.5891 22.3328ZM48.0113 22.3328H64.7564C62.3467 16.8726 58.8 12.3534 54.1164 8.77544C49.4327 5.19743 44.1212 3.1032 38.1818 2.49273C40.4965 5.42161 42.4242 8.57025 43.9651 11.9387C45.5059 15.3071 46.8547 18.7718 48.0113 22.3328Z" fill="#080200"/>
</svg>
