<svg width="70" height="70" viewBox="0 0 70 70" fill="none" xmlns="http://www.w3.org/2000/svg">
<path d="M37.2199 56.2768C37.7773 55.7386 38.056 55.0755 38.056 54.2875C38.056 53.4995 37.7773 52.8267 37.2199 52.2694C36.6625 51.712 35.9995 51.4333 35.2306 51.4333C34.4618 51.4333 33.7987 51.712 33.2413 52.2694C32.684 52.8267 32.4053 53.4995 32.4053 54.2875C32.4053 55.0755 32.684 55.7386 33.2413 56.2768C33.7987 56.8149 34.4618 57.084 35.2306 57.084C35.9995 57.084 36.6625 56.8149 37.2199 56.2768ZM33.4432 42.8418H36.4415C36.5953 41.112 36.9989 39.6417 37.6524 38.4308C38.3059 37.2199 39.5744 35.6727 41.458 33.7891C43.3416 31.9055 44.7543 30.1853 45.696 28.6285C46.6378 27.0717 47.1087 25.2938 47.1087 23.2949C47.1087 19.8353 45.9075 17.0868 43.5049 15.0494C41.1024 13.0121 38.3635 11.9934 35.2883 11.9934C32.29 11.9934 29.7433 12.8199 27.6483 14.4728C25.5533 16.1258 23.9868 17.9132 22.9489 19.8353L26.0049 21.1038C26.7738 19.5277 27.8213 18.115 29.1474 16.8657C30.4736 15.6164 32.4822 14.9918 35.173 14.9918C38.402 14.9918 40.7084 15.8855 42.0923 17.673C43.4761 19.4605 44.168 21.3729 44.168 23.4102C44.168 25.1016 43.7356 26.5335 42.8707 27.7059C42.0058 28.8784 40.9775 30.0412 39.7858 31.1944C37.2103 33.6546 35.5093 35.7111 34.6829 37.3641C33.8564 39.017 33.4432 40.8429 33.4432 42.8418ZM0 70V0H70V70H0ZM2.94069 67.0593H67.0593V2.94069H2.94069V67.0593Z" fill="#080200"/>
</svg>
