<svg width="201" height="36" viewBox="0 0 201 36" fill="none" xmlns="http://www.w3.org/2000/svg">
<g clip-path="url(#clip0_21025_82658)">
<path d="M11.0945 0L20.3953 7.94598C20.9474 8.41772 21.2657 9.10998 21.2657 9.83907L21.2657 15.8276L11.965 7.88161C11.4127 7.40987 11.0945 6.7176 11.0945 5.98847L11.0945 0Z" fill="#FFF5F2"/>
<path d="M11.0947 35.9995L20.3955 28.0534C20.9477 27.5818 21.2659 26.8895 21.2659 26.1604L21.2659 20.1719L11.9652 28.1179C11.413 28.5896 11.0947 29.2819 11.0947 30.0109L11.0947 35.9995Z" fill="#FFF5F2"/>
<path d="M-0.000488281 8.37988L9.17375 16.174C9.61853 16.5519 10.1818 16.7592 10.7638 16.7592H18.1624L9.01076 8.96685C8.56567 8.58785 8.00157 8.37988 7.41863 8.37988H-0.000488281Z" fill="#FFF5F2"/>
<path d="M-0.000732342 27.6206L9.11708 19.8309C9.56267 19.4502 10.128 19.2412 10.7123 19.2412H18.1842L9.00998 27.0353C8.56519 27.4132 8.00193 27.6206 7.41992 27.6206H-0.000732342Z" fill="#FFF5F2"/>
<path d="M33.9041 0L24.6033 7.94598C24.0512 8.41772 23.7329 9.10998 23.7329 9.83907L23.7329 15.8276L33.0336 7.88161C33.5858 7.40987 33.9041 6.7176 33.9041 5.98847L33.9041 0Z" fill="#FFF5F2"/>
<path d="M33.9043 36.0004L24.6035 28.0544C24.0514 27.5827 23.7332 26.8905 23.7332 26.1614L23.7332 20.1729L33.0338 28.1189C33.5861 28.5906 33.9043 29.2828 33.9043 30.0119L33.9043 36.0004Z" fill="#FFF5F2"/>
<path d="M44.9988 8.37988L35.8246 16.174C35.3798 16.5519 34.8165 16.7592 34.2346 16.7592H26.8359L35.9876 8.96685C36.4327 8.58785 36.9968 8.37988 37.5797 8.37988H44.9988Z" fill="#FFF5F2"/>
<path d="M44.9992 27.6206L35.8813 19.8309C35.4358 19.4502 34.8704 19.2412 34.2861 19.2412H26.8142L35.9884 27.0353C36.4332 27.4132 36.9964 27.6206 37.5785 27.6206H44.9992Z" fill="#FFF5F2"/>
<path d="M119.498 9.60213C118.903 9.60213 118.404 9.40071 118.001 8.99777C117.598 8.59487 117.397 8.09604 117.397 7.50126C117.397 6.9065 117.598 6.40766 118.001 6.00475C118.404 5.60185 118.903 5.40039 119.498 5.40039C120.074 5.40039 120.563 5.60185 120.966 6.00475C121.369 6.40766 121.571 6.9065 121.571 7.50126C121.571 8.09604 121.369 8.59487 120.966 8.99777C120.563 9.40071 120.074 9.60213 119.498 9.60213Z" fill="#FFF5F2"/>
<path d="M121.11 11.7021L121.11 27.5594H117.828L117.828 11.7021H121.11Z" fill="#FFF5F2"/>
<path fill-rule="evenodd" clip-rule="evenodd" d="M129.965 12.1926C129.006 12.6915 128.247 13.3054 127.691 14.0344L127.691 11.7034H124.409L124.409 35.1007H127.691L127.691 25.2583C128.286 25.9873 129.053 26.6013 129.994 27.1002C130.934 27.5798 132.009 27.8197 133.218 27.8197C134.599 27.8197 135.857 27.4743 136.989 26.7836C138.14 26.0737 139.042 25.0953 139.694 23.8481C140.347 22.5818 140.672 21.1525 140.672 19.5601C140.672 17.9676 140.347 16.5574 139.694 15.3295C139.042 14.1016 138.14 13.1519 136.989 12.4804C135.857 11.7897 134.599 11.4443 133.218 11.4443C132.009 11.4443 130.925 11.6938 129.965 12.1926ZM136.643 16.7397C137.104 17.5264 137.333 18.4664 137.333 19.5601C137.333 20.6537 137.104 21.613 136.643 22.4379C136.201 23.263 135.606 23.8961 134.858 24.3374C134.129 24.7595 133.342 24.9705 132.498 24.9705C131.672 24.9705 130.886 24.7595 130.138 24.3374C129.408 23.9153 128.813 23.3013 128.353 22.4955C127.911 21.6705 127.691 20.7112 127.691 19.6176C127.691 18.524 127.911 17.5743 128.353 16.7685C128.813 15.9627 129.408 15.3487 130.138 14.9266C130.886 14.5045 131.672 14.2935 132.498 14.2935C133.342 14.2935 134.129 14.5045 134.858 14.9266C135.606 15.3295 136.201 15.9339 136.643 16.7397Z" fill="#FFF5F2"/>
<path d="M148.667 27.8197C147.42 27.8197 146.298 27.599 145.299 27.1577C144.321 26.6973 143.544 26.0833 142.968 25.3159C142.392 24.5293 142.086 23.6563 142.047 22.6969H145.443C145.501 23.3684 145.818 23.9344 146.394 24.395C146.989 24.8362 147.728 25.0568 148.61 25.0568C149.531 25.0568 150.241 24.8842 150.74 24.5388C151.258 24.1743 151.518 23.7139 151.518 23.1575C151.518 22.5627 151.23 22.1214 150.654 21.8336C150.097 21.5458 149.205 21.2292 147.977 20.8839C146.787 20.5577 145.818 20.2411 145.069 19.9342C144.321 19.6272 143.669 19.1572 143.112 18.524C142.575 17.8909 142.306 17.0563 142.306 16.0202C142.306 15.176 142.555 14.4086 143.055 13.7179C143.553 13.008 144.264 12.4516 145.184 12.0487C146.125 11.6458 147.199 11.4443 148.408 11.4443C150.213 11.4443 151.662 11.9048 152.755 12.8257C153.868 13.7275 154.463 14.965 154.54 16.5382H151.258C151.201 15.8283 150.913 15.2624 150.394 14.8403C149.877 14.4182 149.176 14.2072 148.294 14.2072C147.43 14.2072 146.767 14.3702 146.307 14.6964C145.847 15.0226 145.616 15.4542 145.616 15.9914C145.616 16.4135 145.77 16.7685 146.077 17.0563C146.384 17.3441 146.758 17.5743 147.199 17.7469C147.641 17.9005 148.294 18.1019 149.157 18.3513C150.308 18.6583 151.248 18.9749 151.977 19.3011C152.726 19.6081 153.369 20.0685 153.906 20.6825C154.443 21.2964 154.722 22.1118 154.741 23.1287C154.741 24.0304 154.492 24.8362 153.993 25.5461C153.494 26.256 152.784 26.8124 151.862 27.2153C150.96 27.6181 149.896 27.8197 148.667 27.8197Z" fill="#FFF5F2"/>
<path d="M197.505 12.2204C196.526 11.7024 195.414 11.4434 194.167 11.4434C192.996 11.4434 191.902 11.7312 190.885 12.3067C189.868 12.8631 189.119 13.621 188.64 14.5803C188.102 13.5634 187.335 12.7864 186.336 12.2492C185.339 11.712 184.207 11.4434 182.94 11.4434C182 11.4434 181.117 11.6256 180.292 11.9902C179.467 12.3547 178.785 12.8631 178.248 13.5154L178.248 11.7024H174.967L174.967 27.5597H178.248L178.248 18.6957C178.248 17.2759 178.604 16.1919 179.313 15.4437C180.043 14.6763 181.021 14.2925 182.25 14.2925C183.477 14.2925 184.447 14.6763 185.157 15.4437C185.867 16.1919 186.221 17.2759 186.221 18.6957L186.221 27.5597H189.475L189.475 18.6957C189.475 17.2759 189.829 16.1919 190.54 15.4437C191.269 14.6763 192.248 14.2925 193.475 14.2925C194.704 14.2925 195.673 14.6763 196.383 15.4437C197.092 16.1919 197.448 17.2759 197.448 18.6957L197.448 27.5597H200.701L200.701 18.2065C200.701 16.7675 200.413 15.5396 199.837 14.5227C199.28 13.5059 198.504 12.7385 197.505 12.2204Z" fill="#FFF5F2"/>
<path d="M171.645 27.5594L171.645 11.7021H168.363L168.363 20.5374C168.363 21.9571 167.998 23.0507 167.269 23.8181C166.559 24.5664 165.59 24.9405 164.362 24.9405C163.133 24.9405 162.165 24.5664 161.455 23.8181C160.745 23.0507 160.389 21.9571 160.389 20.5374L160.389 11.7021H157.137L157.137 21.0266C157.137 22.4655 157.415 23.6934 157.972 24.7103C158.547 25.7271 159.325 26.4946 160.303 27.0126C161.301 27.5306 162.423 27.7897 163.671 27.7897C164.611 27.7897 165.494 27.6074 166.319 27.2428C167.164 26.8591 167.845 26.3411 168.363 25.6888L168.363 27.5594H171.645Z" fill="#FFF5F2"/>
<path fill-rule="evenodd" clip-rule="evenodd" d="M103.3 26.8114C104.509 27.4829 105.862 27.8187 107.358 27.8187C108.875 27.8187 110.256 27.4829 111.504 26.8114C112.77 26.1207 113.768 25.1518 114.497 23.9047C115.226 22.6576 115.591 21.2282 115.591 19.6166C115.591 18.005 115.236 16.5756 114.526 15.3286C113.816 14.0814 112.847 13.1221 111.619 12.4506C110.39 11.7791 109.019 11.4434 107.502 11.4434C105.987 11.4434 104.614 11.7791 103.386 12.4506C102.158 13.1221 101.189 14.0814 100.479 15.3286C99.7687 16.5756 99.4141 18.005 99.4141 19.6166C99.4141 21.2474 99.7597 22.6864 100.45 23.9335C101.141 25.1614 102.091 26.1207 103.3 26.8114ZM109.719 24.3652C108.99 24.768 108.203 24.9695 107.358 24.9695C106.034 24.9695 104.931 24.5091 104.048 23.5881C103.185 22.648 102.753 21.3242 102.753 19.6166C102.753 18.4654 102.964 17.4966 103.386 16.71C103.809 15.9041 104.375 15.2998 105.084 14.8968C105.814 14.494 106.601 14.2925 107.445 14.2925C108.289 14.2925 109.076 14.494 109.805 14.8968C110.534 15.2998 111.119 15.9041 111.561 16.71C112.002 17.4966 112.223 18.4654 112.223 19.6166C112.223 20.7678 111.992 21.7463 111.533 22.5521C111.072 23.3579 110.467 23.9623 109.719 24.3652Z" fill="#FFF5F2"/>
<path fill-rule="evenodd" clip-rule="evenodd" d="M86.0184 26.848C85.9962 26.836 85.9738 26.8237 85.9517 26.8114C84.7427 26.1207 83.7928 25.1614 83.1019 23.9335C82.4111 22.6864 82.0657 21.2474 82.0657 19.6166C82.0657 18.005 82.4207 16.5756 83.1307 15.3286C83.8407 14.0814 84.8099 13.1221 86.038 12.4506C87.2662 11.7791 88.6383 11.4434 90.1543 11.4434C91.6699 11.4434 93.0424 11.7791 94.2709 12.4506C95.4985 13.1221 96.4678 14.0814 97.1779 15.3286C97.888 16.5756 98.2426 18.005 98.2426 19.6166C98.2426 21.2282 97.8781 22.6576 97.1491 23.9047C96.4201 25.1518 95.422 26.1207 94.1557 26.8114C93.0829 27.3888 91.9111 27.7181 90.6394 27.7989C92.1973 28.5115 94.567 29.0869 95.8972 29.4099C96.4669 29.5482 96.8458 29.6402 96.8899 29.677L96.8917 29.6775L96.8917 32.9606H84.9366L84.9366 29.6775H91.8256C90.0733 29.2817 87.6931 27.9827 86.0184 26.848ZM90.0103 24.9695C90.8545 24.9695 91.6411 24.768 92.371 24.3652C93.1189 23.9623 93.7237 23.3579 94.1845 22.5521C94.6444 21.7463 94.8748 20.7678 94.8748 19.6166C94.8748 18.4654 94.6543 17.4966 94.2133 16.71C93.7714 15.9041 93.1864 15.2998 92.4574 14.8968C91.7275 14.494 90.9409 14.2925 90.0967 14.2925C89.2524 14.2925 88.4656 14.494 87.7363 14.8968C87.0263 15.2998 86.4602 15.9041 86.038 16.71C85.6158 17.4966 85.4048 18.4654 85.4048 19.6166C85.4048 21.3242 85.8365 22.648 86.7 23.5881C87.5829 24.5091 88.6863 24.9695 90.0103 24.9695Z" fill="#FFF5F2"/>
<path fill-rule="evenodd" clip-rule="evenodd" d="M68.6032 26.8114C69.8122 27.4829 71.1651 27.8187 72.6619 27.8187C74.1779 27.8187 75.5596 27.4829 76.807 26.8114C78.0735 26.1207 79.0714 25.1518 79.8006 23.9047C80.5298 22.6576 80.8944 21.2282 80.8944 19.6166C80.8944 18.005 80.5394 16.5756 79.8294 15.3286C79.1194 14.0814 78.1502 13.1221 76.9221 12.4506C75.694 11.7791 74.3218 11.4434 72.8059 11.4434C71.2898 11.4434 69.9178 11.7791 68.6896 12.4506C67.4615 13.1221 66.4924 14.0814 65.7823 15.3286C65.0723 16.5756 64.7173 18.005 64.7173 19.6166C64.7173 21.2474 65.0627 22.6864 65.7535 23.9335C66.4444 25.1614 67.3942 26.1207 68.6032 26.8114ZM75.0223 24.3652C74.2931 24.768 73.5062 24.9695 72.6619 24.9695C71.3378 24.9695 70.2344 24.5091 69.3517 23.5881C68.4881 22.648 68.0564 21.3242 68.0564 19.6166C68.0564 18.4654 68.2674 17.4966 68.6896 16.71C69.1118 15.9041 69.6779 15.2998 70.3879 14.8968C71.1171 14.494 71.9039 14.2925 72.7483 14.2925C73.5926 14.2925 74.3794 14.494 75.1086 14.8968C75.8379 15.2998 76.4231 15.9041 76.8645 16.71C77.3059 17.4966 77.5265 18.4654 77.5265 19.6166C77.5265 20.7678 77.2963 21.7463 76.8357 22.5521C76.3752 23.3579 75.7707 23.9623 75.0223 24.3652Z" fill="#FFF5F2"/>
<path d="M57.2812 24.9124H64.0456L64.0456 27.5601H53.9998L53.9998 7.55859H57.2812L57.2812 24.9124Z" fill="#FFF5F2"/>
</g>
<defs>
<clipPath id="clip0_21025_82658">
<rect width="200.7" height="36" fill="white"/>
</clipPath>
</defs>
</svg>
