<svg width="149" height="40" viewBox="0 0 149 40" fill="none" xmlns="http://www.w3.org/2000/svg">
<path d="M16.6708 6.33398C24.2185 6.33416 30.3405 12.4532 30.3452 20.001C30.3496 27.5486 24.2352 33.6668 16.6875 33.667C9.13974 33.667 3.01696 27.5487 3.01216 20.001C3.00754 12.4531 9.12289 6.33398 16.6708 6.33398Z" stroke="#FFF5F2" stroke-width="6"/>
<path d="M55.1638 17.0112C55.1643 17.8823 54.9548 18.699 54.5353 19.4612C54.1313 20.2234 53.4861 20.8379 52.5998 21.3045C51.7289 21.7712 50.6246 22.0045 49.2869 22.0045H46.5569L46.5607 28.2579H43.294L43.284 11.9712H49.2807C50.5407 11.9712 51.6142 12.189 52.5011 12.6245C53.388 13.0601 54.0495 13.659 54.4855 14.4212C54.9371 15.1834 55.1632 16.0468 55.1638 17.0112ZM49.1452 19.3679C50.0475 19.3679 50.7162 19.1657 51.1515 18.7612C51.5868 18.3412 51.8043 17.7579 51.8038 17.0112C51.8028 15.4245 50.9157 14.6312 49.1423 14.6312H46.5523L46.5552 19.3679H49.1452Z" fill="#FFF5F2"/>
<path d="M62.2968 28.4679C61.0523 28.4679 59.9322 28.1957 58.9363 27.6512C57.9404 27.0912 57.1543 26.3057 56.5782 25.2945C56.0176 24.2834 55.7368 23.1168 55.736 21.7945C55.7352 20.4723 56.0223 19.3057 56.5972 18.2945C57.1877 17.2834 57.9883 16.5057 58.9991 15.9612C60.0099 15.4012 61.1375 15.1212 62.3819 15.1212C63.6264 15.1212 64.7543 15.4012 65.7658 15.9612C66.7772 16.5057 67.571 17.2834 68.1472 18.2945C68.7389 19.3057 69.0352 20.4723 69.036 21.7945C69.0368 23.1168 68.7342 24.2834 68.1282 25.2945C67.5377 26.3057 66.7293 27.0912 65.7029 27.6512C64.6922 28.1957 63.5568 28.4679 62.2968 28.4679ZM62.295 25.6212C62.8861 25.6212 63.4383 25.4812 63.9514 25.2012C64.4802 24.9057 64.8999 24.4701 65.2106 23.8945C65.5214 23.319 65.6765 22.619 65.676 21.7945C65.6753 20.5657 65.348 19.6245 64.6943 18.9712C64.0561 18.3023 63.2704 17.9679 62.337 17.9679C61.4037 17.9679 60.6183 18.3023 59.981 18.9712C59.3591 19.6245 59.0486 20.5657 59.0494 21.7945C59.0501 23.0234 59.354 23.9723 59.9611 24.6412C60.5837 25.2945 61.3617 25.6212 62.295 25.6212Z" fill="#FFF5F2"/>
<path d="M73.759 10.9912L73.7695 28.2579H70.5029L70.4923 10.9912H73.759Z" fill="#FFF5F2"/>
<path d="M88.4224 15.3312L80.4308 34.3712H76.9541L79.7501 27.9312L74.5624 15.3312H78.2258L81.568 24.3612L84.9458 15.3312H88.4224Z" fill="#FFF5F2"/>
<path d="M105.303 15.1445C106.89 15.1445 108.166 15.6345 109.131 16.6145C110.111 17.579 110.602 18.9323 110.603 20.6745L110.608 28.2579H107.341L107.337 21.1179C107.336 20.1068 107.079 19.3368 106.566 18.8079C106.052 18.2634 105.352 17.9912 104.465 17.9912C103.578 17.9912 102.871 18.2634 102.342 18.8079C101.829 19.3368 101.573 20.1068 101.574 21.1179L101.578 28.2579H98.3113L98.3069 21.1179C98.3063 20.1068 98.0492 19.3368 97.5355 18.8079C97.0218 18.2634 96.3217 17.9912 95.435 17.9912C94.5328 17.9912 93.8174 18.2634 93.2888 18.8079C92.7758 19.3368 92.5196 20.1068 92.5202 21.1179L92.5246 28.2579H89.258L89.25 15.3312H92.5167L92.5177 16.8945C92.9373 16.3501 93.4737 15.9223 94.1269 15.6112C94.7956 15.3001 95.5266 15.1445 96.3199 15.1445C97.331 15.1445 98.2334 15.3623 99.027 15.7979C99.8206 16.2179 100.435 16.8245 100.871 17.6179C101.291 16.8712 101.897 16.2723 102.69 15.8212C103.499 15.3701 104.37 15.1445 105.303 15.1445Z" fill="#FFF5F2"/>
<path d="M111.931 21.7479C111.93 20.4412 112.186 19.2823 112.698 18.2712C113.227 17.2601 113.934 16.4823 114.82 15.9379C115.722 15.3934 116.725 15.1212 117.83 15.1212C118.794 15.1212 119.634 15.3157 120.35 15.7045C121.081 16.0934 121.665 16.5834 122.101 17.1745L122.1 15.3312H125.39L125.398 28.2579H122.108L122.107 26.3679C121.687 26.9745 121.104 27.4801 120.358 27.8845C119.627 28.2734 118.779 28.4679 117.815 28.4679C116.726 28.4679 115.73 28.1879 114.827 27.6279C113.94 27.0679 113.232 26.2823 112.703 25.2712C112.189 24.2445 111.931 23.0701 111.931 21.7479ZM122.104 21.7945C122.103 21.0012 121.947 20.3245 121.636 19.7645C121.324 19.189 120.904 18.7534 120.375 18.4579C119.846 18.1468 119.278 17.9912 118.672 17.9912C118.065 17.9912 117.505 18.139 116.992 18.4345C116.479 18.7301 116.059 19.1657 115.733 19.7412C115.422 20.3012 115.267 20.9701 115.267 21.7479C115.268 22.5257 115.424 23.2101 115.735 23.8012C116.062 24.3768 116.482 24.8201 116.996 25.1312C117.525 25.4423 118.085 25.5979 118.676 25.5979C119.283 25.5979 119.851 25.4501 120.379 25.1545C120.908 24.8434 121.328 24.4079 121.638 23.8479C121.949 23.2723 122.104 22.5879 122.104 21.7945Z" fill="#FFF5F2"/>
<path d="M131.452 18.0145L131.456 24.2679C131.456 24.7034 131.557 25.0223 131.76 25.2245C131.978 25.4112 132.335 25.5045 132.833 25.5045H134.35L134.352 28.2579H132.298C129.545 28.2579 128.167 26.9201 128.166 24.2445L128.162 18.0145H126.622L126.62 15.3312H128.16L128.158 12.1345H131.448L131.45 15.3312H134.344L134.345 18.0145H131.452Z" fill="#FFF5F2"/>
<path d="M143.04 15.1445C144.02 15.1445 144.891 15.3623 145.654 15.7979C146.416 16.2179 147.008 16.8479 147.428 17.6879C147.864 18.5123 148.082 19.5079 148.083 20.6745L148.088 28.2579H144.821L144.817 21.1179C144.816 20.0912 144.559 19.3057 144.045 18.7612C143.532 18.2012 142.832 17.9212 141.945 17.9212C141.043 17.9212 140.327 18.2012 139.799 18.7612C139.286 19.3057 139.03 20.0912 139.03 21.1179L139.035 28.2579H135.768L135.757 10.9912H139.024L139.028 16.9412C139.447 16.3812 140.007 15.9457 140.707 15.6345C141.407 15.3079 142.184 15.1445 143.04 15.1445Z" fill="#FFF5F2"/>
</svg>
