<svg width="169" height="40" viewBox="0 0 169 40" fill="none" xmlns="http://www.w3.org/2000/svg">
<path fill-rule="evenodd" clip-rule="evenodd" d="M0.0122053 20.0003C11.6652 20.0003 18.3414 13.32 18.3343 1.66699C18.3414 13.32 25.0259 20.0003 36.6789 20.0003C25.0259 20.0003 18.3496 26.6807 18.3568 38.3337C18.3496 26.6807 11.6652 20.0003 0.0122053 20.0003Z" fill="#FFF5F2"/>
<path d="M43.9257 28.258L50.315 10.758H53.915L60.3257 28.258H56.9257L55.5232 24.208H48.6982L47.2757 28.258H43.9257ZM49.5717 21.708H54.6467L52.0922 14.433L49.5717 21.708Z" fill="#FFF5F2"/>
<path d="M66.7442 28.558C65.4776 28.558 64.3607 28.283 63.3937 27.733C62.4267 27.183 61.6596 26.4163 61.0923 25.433C60.5417 24.4497 60.266 23.3247 60.2653 22.058C60.2645 20.7913 60.5388 19.6663 61.0882 18.683C61.6543 17.6997 62.4205 16.933 63.3868 16.383C64.3531 15.833 65.4696 15.558 66.7363 15.558C68.3196 15.558 69.6532 15.9747 70.737 16.808C71.8209 17.6247 72.5132 18.758 72.8141 20.208H69.4391C69.2721 19.608 68.9385 19.1413 68.4383 18.808C67.9547 18.458 67.3796 18.283 66.7129 18.283C65.8296 18.283 65.0798 18.6163 64.4636 19.283C63.8473 19.9497 63.5395 20.8747 63.5403 22.058C63.541 23.2413 63.8499 24.1663 64.467 24.833C65.084 25.4997 65.8342 25.833 66.7176 25.833C67.3842 25.833 67.9591 25.6663 68.4423 25.333C68.9421 24.9997 69.2751 24.5247 69.4414 23.908H72.8164C72.5172 25.308 71.8263 26.433 70.7435 27.283C69.6606 28.133 68.3276 28.558 66.7442 28.558Z" fill="#FFF5F2"/>
<path d="M74.4093 28.258L74.4017 15.858H77.2267L77.5027 17.533C77.9024 16.933 78.4271 16.458 79.0769 16.108C79.7433 15.7413 80.5098 15.558 81.3765 15.558C83.2932 15.558 84.652 16.2997 85.4529 17.783C85.9025 17.0997 86.5021 16.558 87.2519 16.158C88.0183 15.758 88.8515 15.558 89.7515 15.558C91.3682 15.558 92.6101 16.0413 93.4774 17.008C94.3447 17.9747 94.7789 19.3913 94.78 21.258L94.7843 28.258H91.5843L91.5802 21.558C91.5795 20.4913 91.3707 19.6747 90.9537 19.108C90.5533 18.5413 89.9282 18.258 89.0782 18.258C88.2115 18.258 87.5117 18.5747 86.9787 19.208C86.4625 19.8413 86.2047 20.7247 86.2054 21.858L86.2093 28.258H83.0093L83.0052 21.558C83.0045 20.4913 82.7957 19.6747 82.3787 19.108C81.9617 18.5413 81.3198 18.258 80.4532 18.258C79.6032 18.258 78.9117 18.5747 78.3787 19.208C77.8625 19.8413 77.6047 20.7247 77.6054 21.858L77.6093 28.258H74.4093Z" fill="#FFF5F2"/>
<path d="M102.598 28.558C101.348 28.558 100.239 28.2913 99.2721 27.758C98.3051 27.2247 97.5463 26.4747 96.9957 25.508C96.4451 24.5413 96.1694 23.4247 96.1686 22.158C96.1679 20.8747 96.4338 19.733 96.9665 18.733C97.5159 17.733 98.2655 16.958 99.2151 16.408C100.181 15.8413 101.315 15.558 102.615 15.558C103.831 15.558 104.906 15.8247 105.84 16.358C106.774 16.8913 107.499 17.6247 108.016 18.558C108.55 19.4747 108.818 20.4997 108.818 21.633C108.818 21.8163 108.81 22.008 108.794 22.208C108.794 22.408 108.786 22.6163 108.769 22.833H99.344C99.4113 23.7997 99.7451 24.558 100.345 25.108C100.962 25.658 101.704 25.933 102.571 25.933C103.221 25.933 103.763 25.7913 104.196 25.508C104.646 25.208 104.979 24.8247 105.195 24.358H108.445C108.212 25.1413 107.821 25.858 107.271 26.508C106.738 27.1413 106.072 27.6413 105.272 28.008C104.489 28.3747 103.598 28.558 102.598 28.558ZM102.616 18.158C101.833 18.158 101.141 18.383 100.542 18.833C99.9419 19.2663 99.5589 19.933 99.3928 20.833H105.568C105.517 20.0163 105.217 19.3663 104.667 18.883C104.116 18.3997 103.433 18.158 102.616 18.158Z" fill="#FFF5F2"/>
<path d="M122.971 28.558C121.204 28.558 119.687 28.183 118.42 27.433C117.153 26.6663 116.178 25.608 115.493 24.258C114.809 22.8913 114.467 21.3163 114.465 19.533C114.464 17.7497 114.805 16.1747 115.488 14.808C116.17 13.4413 117.144 12.3747 118.411 11.608C119.677 10.8413 121.193 10.458 122.96 10.458C125.06 10.458 126.777 10.983 128.111 12.033C129.462 13.0663 130.304 14.5247 130.639 16.408H127.114C126.896 15.458 126.429 14.7163 125.712 14.183C125.012 13.633 124.078 13.358 122.912 13.358C121.295 13.358 120.029 13.908 119.113 15.008C118.197 16.108 117.739 17.6163 117.74 19.533C117.742 21.4497 118.201 22.958 119.118 24.058C120.036 25.1413 121.303 25.683 122.919 25.683C124.086 25.683 125.019 25.433 125.719 24.933C126.435 24.4163 126.901 23.708 127.117 22.808H130.642C130.31 24.608 129.469 26.0163 128.12 27.033C126.787 28.0497 125.071 28.558 122.971 28.558Z" fill="#FFF5F2"/>
<path d="M138.104 28.558C136.904 28.558 135.82 28.283 134.853 27.733C133.903 27.183 133.144 26.4247 132.577 25.458C132.026 24.4747 131.75 23.3413 131.75 22.058C131.749 20.7747 132.031 19.6497 132.598 18.683C133.164 17.6997 133.921 16.933 134.871 16.383C135.837 15.833 136.921 15.558 138.121 15.558C139.304 15.558 140.371 15.833 141.321 16.383C142.288 16.933 143.047 17.6997 143.598 18.683C144.165 19.6497 144.449 20.7747 144.45 22.058C144.45 23.3413 144.168 24.4747 143.602 25.458C143.052 26.4247 142.294 27.183 141.328 27.733C140.362 28.283 139.287 28.558 138.104 28.558ZM138.102 25.783C138.935 25.783 139.66 25.4747 140.276 24.858C140.893 24.2247 141.2 23.2913 141.2 22.058C141.199 20.8247 140.89 19.8997 140.273 19.283C139.656 18.6497 138.939 18.333 138.122 18.333C137.272 18.333 136.539 18.6497 135.923 19.283C135.323 19.8997 135.024 20.8247 135.025 22.058C135.025 23.2913 135.326 24.2247 135.926 24.858C136.543 25.4747 137.269 25.783 138.102 25.783Z" fill="#FFF5F2"/>
<path d="M146.065 28.258L146.057 15.858H148.907L149.208 18.183C149.658 17.383 150.266 16.7497 151.032 16.283C151.815 15.7997 152.732 15.558 153.782 15.558L153.784 18.933H152.884C152.184 18.933 151.559 19.0413 151.009 19.258C150.459 19.4747 150.026 19.8497 149.71 20.383C149.41 20.9163 149.261 21.658 149.261 22.608L149.265 28.258H146.065Z" fill="#FFF5F2"/>
<path d="M154.73 33.758L154.719 15.858H157.569L157.92 17.633C158.32 17.083 158.845 16.5997 159.494 16.183C160.161 15.7663 161.019 15.558 162.069 15.558C163.236 15.558 164.277 15.8413 165.194 16.408C166.111 16.9747 166.837 17.7497 167.371 18.733C167.905 19.7163 168.172 20.833 168.173 22.083C168.174 23.333 167.908 24.4497 167.375 25.433C166.842 26.3997 166.118 27.1663 165.201 27.733C164.285 28.283 163.244 28.558 162.077 28.558C161.144 28.558 160.327 28.383 159.627 28.033C158.926 27.683 158.359 27.1913 157.926 26.558L157.93 33.758H154.73ZM161.4 25.758C162.417 25.758 163.258 25.4163 163.925 24.733C164.591 24.0497 164.924 23.1663 164.923 22.083C164.922 20.9997 164.588 20.108 163.921 19.408C163.254 18.708 162.412 18.358 161.396 18.358C160.362 18.358 159.512 18.708 158.846 19.408C158.197 20.0913 157.872 20.9747 157.873 22.058C157.874 23.1413 158.199 24.033 158.85 24.733C159.517 25.4163 160.367 25.758 161.4 25.758Z" fill="#FFF5F2"/>
</svg>
