<svg width="152" height="40" viewBox="0 0 152 40" fill="none" xmlns="http://www.w3.org/2000/svg">
<g clip-path="url(#clip0_21025_82691)">
<path d="M22.7264 3.43466L19.2085 2.49219L16.2512 13.5544L13.5691 3.56736L10.0522 4.50984L12.9501 15.3001L5.74419 8.09859L3.17088 10.6735L11.0749 18.5727L1.23611 15.9368L0.295789 19.4542L11.0459 22.3342C10.9225 21.8034 10.8571 21.2504 10.8567 20.6821C10.8543 16.6599 14.1129 13.3992 18.1352 13.3992C22.1574 13.3992 25.4201 16.6599 25.4225 20.6821C25.4229 21.2467 25.3589 21.7964 25.2377 22.324L35.0076 24.9414L35.9478 21.4241L25.155 18.5326L34.9912 15.8965L34.0465 12.3792L23.2577 15.2705L30.4548 8.06902L27.8783 5.49414L20.0935 13.2838L22.7264 3.43466Z" fill="#FFF5F2"/>
<path d="M25.2274 22.365C24.9267 23.6399 24.2907 24.7852 23.4177 25.7029L30.4987 32.7796L33.072 30.2047L25.2274 22.365Z" fill="#FFF5F2"/>
<path d="M23.3463 25.7769C22.4627 26.6798 21.3459 27.3537 20.0932 27.701L22.6741 37.3112L26.1909 36.3687L23.3463 25.7769Z" fill="#FFF5F2"/>
<path d="M19.9618 27.7361C19.3806 27.8856 18.7714 27.965 18.1435 27.965C17.4708 27.965 16.8193 27.8738 16.2008 27.703L13.6293 37.322L17.1472 38.2645L19.9618 27.7361Z" fill="#FFF5F2"/>
<path d="M16.0764 27.6676C14.8424 27.3031 13.7446 26.6206 12.878 25.715L5.78822 32.8091L8.36468 35.384L16.0764 27.6676Z" fill="#FFF5F2"/>
<path d="M12.8195 25.6523C11.9677 24.741 11.347 23.611 11.0511 22.3557L1.25254 24.9817L2.19717 28.499L12.8195 25.6523Z" fill="#FFF5F2"/>
</g>
<path d="M57.1067 10.7578L57.1145 23.4328L48.9817 10.7578H45.7317L45.7424 28.2578H48.9924L48.9847 15.6828L57.1174 28.2578H60.3674L60.3567 10.7578H57.1067Z" fill="#FFF5F2"/>
<path d="M61.8231 14.0328H65.1731L65.1711 10.7578H61.8211L61.8231 14.0328ZM61.8819 28.2578L61.8742 15.7578H65.1242L65.1319 28.2578H61.8819Z" fill="#FFF5F2"/>
<path d="M79.1114 22.0078C79.1088 17.6828 76.0325 15.6328 72.7825 15.6078C69.5075 15.5828 66.4838 17.6828 66.4864 22.0078C66.4891 26.3328 69.5154 28.4328 72.7904 28.4078C75.7653 28.3828 77.8145 27.0078 78.7631 24.7328L76.2375 23.6828C75.4634 25.2328 74.2387 25.7828 72.7888 25.8078C71.5388 25.8328 70.1134 25.2328 69.812 23.0078H79.037C79.0868 22.6828 79.1116 22.3578 79.1114 22.0078ZM72.7841 18.1828C74.0341 18.2078 75.3095 18.8828 75.7106 20.6828H69.8606C70.2845 18.8578 71.5591 18.1578 72.7841 18.1828Z" fill="#FFF5F2"/>
<path d="M86.62 18.0828L86.6185 15.6078H84.5685L84.5664 12.2578L81.317 13.2578L81.3185 15.6078H79.2685L79.27 18.0828H81.32L81.3239 24.5578C81.3254 27.0078 81.5262 28.2578 85.3262 28.2578H86.2012L86.1995 25.4078H85.3245C84.7245 25.4078 84.5744 25.3078 84.5739 24.5578L84.57 18.0828H86.62Z" fill="#FFF5F2"/>
<path d="M91.4538 25.5328L98.3495 18.4828L98.3478 15.7578H87.9978L87.9995 18.4828H94.6995L87.8038 25.5328L87.8055 28.2578H98.4305L98.4288 25.5328H91.4538Z" fill="#FFF5F2"/>
<path d="M99.5936 24.7328L102.868 24.2328C103.094 25.4828 104.569 25.9578 105.469 25.9578C106.394 25.9578 107.994 25.7578 107.993 24.2578C107.991 21.3328 99.9687 24.9828 99.9653 19.3828C99.9631 15.7828 104.138 15.5828 105.463 15.5828C106.713 15.5828 110.338 15.7828 111.09 18.6828L107.99 19.3328C107.714 18.0078 106.314 17.7578 105.564 17.7578C104.814 17.7578 103.214 17.9328 103.215 19.3828C103.217 22.2828 111.24 18.5828 111.243 24.2578C111.246 28.0828 106.846 28.4078 105.471 28.4078C104.221 28.4078 100.246 28.0828 99.5936 24.7328Z" fill="#FFF5F2"/>
<path d="M115.464 22.0078C115.466 25.0578 117.091 25.9828 118.791 25.9578C120.316 25.9328 121.366 25.3078 121.99 23.5578L124.666 24.8578C123.692 27.4078 121.318 28.3828 118.793 28.4078C115.518 28.4328 112.217 26.3328 112.214 22.0078C112.211 17.6828 115.51 15.5828 118.785 15.6078C121.31 15.6328 123.686 16.6078 124.662 19.1578L121.988 20.4578C121.362 18.7078 120.312 18.0828 118.787 18.0578C117.087 18.0328 115.462 18.9578 115.464 22.0078Z" fill="#FFF5F2"/>
<path d="M133.385 15.5578C131.71 15.5578 130.185 16.4328 129.212 18.3078L129.207 10.7578H125.957L125.968 28.2578H129.218L129.215 23.8328C129.211 18.1078 131.586 17.6328 132.461 17.6328C133.861 17.6328 134.062 19.0828 134.063 21.2078L134.068 28.2578H137.318L137.313 21.2078C137.312 18.5578 136.885 15.5578 133.385 15.5578Z" fill="#FFF5F2"/>
<path d="M151.035 22.0078C151.033 17.6828 147.956 15.6328 144.706 15.6078C141.431 15.5828 138.408 17.6828 138.41 22.0078C138.413 26.3328 141.439 28.4328 144.714 28.4078C147.689 28.3828 149.738 27.0078 150.687 24.7328L148.161 23.6828C147.387 25.2328 146.163 25.7828 144.713 25.8078C143.463 25.8328 142.037 25.2328 141.736 23.0078H150.961C151.011 22.6828 151.035 22.3578 151.035 22.0078ZM144.708 18.1828C145.958 18.2078 147.233 18.8828 147.634 20.6828H141.784C142.208 18.8578 143.483 18.1578 144.708 18.1828Z" fill="#FFF5F2"/>
<defs>
<clipPath id="clip0_21025_82691">
<rect width="36.6667" height="36.6667" fill="white" transform="matrix(1 0 0.000612478 1 0.000976562 1.66699)"/>
</clipPath>
</defs>
</svg>
