<svg width="158" height="40" viewBox="0 0 158 40" fill="none" xmlns="http://www.w3.org/2000/svg">
<path d="M17.9855 3.33398C14.9522 3.33399 12.5037 5.7542 12.5055 8.75065C12.5073 11.7241 14.9588 14.1442 17.9688 14.1673C17.2221 14.1442 16.6385 13.545 16.638 12.8074C16.6375 12.0698 17.2438 11.4475 18.0139 11.4475C21.2805 11.4475 28.5372 11.4475 31.7338 11.4475C33.9972 11.4475 35.8394 9.62655 35.838 7.39075C35.8366 5.1549 33.9922 3.33398 31.7289 3.33398L17.9855 3.33398Z" fill="#FFF5F2"/>
<path opacity="0.9" d="M11.3254 14.167C8.29204 14.167 5.84352 16.5872 5.84536 19.5837C5.84718 22.5571 8.29866 24.9773 11.3087 25.0003C10.562 24.9773 9.9783 24.378 9.97784 23.6404C9.97739 22.9028 10.5837 22.2805 11.3537 22.2805C14.6203 22.2805 21.877 22.2805 25.0737 22.2805C27.337 22.2805 29.1792 20.4596 29.1779 18.2238C29.1765 15.9879 27.332 14.167 25.0687 14.167L11.3254 14.167Z" fill="#FFF5F2"/>
<path opacity="0.8" d="M6.72388 25C3.47387 25 0.850473 27.6064 0.85245 30.8333C0.854411 34.0355 3.481 36.6418 6.706 36.6667C5.906 36.6418 5.28061 35.9965 5.28013 35.2021C5.27964 34.4078 5.92924 33.7376 6.75425 33.7376C10.2542 33.7376 18.0292 33.7376 21.4542 33.7376C23.8792 33.7376 25.853 31.7766 25.8516 29.3688C25.8501 26.961 23.8739 25 21.4489 25L6.72388 25Z" fill="#FFF5F2"/>
<path d="M44.1674 28.2572L44.1567 10.7572H55.4067L55.4085 13.7572H47.4585L47.4611 17.9322H54.7111L54.7129 20.9322H47.4629L47.4656 25.2572H55.5656L55.5674 28.2572H44.1674Z" fill="#FFF5F2"/>
<path d="M56.8633 33.2572L56.8526 15.8572H59.9526L59.9535 17.3572H60.4035C60.6866 16.8739 61.128 16.4489 61.7277 16.0822C62.3275 15.6989 63.1857 15.5072 64.3024 15.5072C65.3024 15.5072 66.2275 15.7572 67.0779 16.2572C67.9281 16.7406 68.6119 17.4572 69.1292 18.4072C69.6464 19.3572 69.9055 20.5072 69.9063 21.8572L69.9065 22.2572C69.9074 23.6072 69.6497 24.7572 69.1336 25.7072C68.6176 26.6572 67.9347 27.3822 67.085 27.8822C66.2353 28.3656 65.3104 28.6072 64.3104 28.6072C63.5604 28.6072 62.927 28.5156 62.4102 28.3322C61.9101 28.1656 61.5017 27.9489 61.1848 27.6822C60.8847 27.3989 60.6428 27.1156 60.4593 26.8322H60.0093L60.0133 33.2572H56.8633ZM63.3587 25.8572C64.3421 25.8572 65.1502 25.5489 65.7832 24.9322C66.4328 24.2989 66.7572 23.3822 66.7565 22.1822L66.7563 21.9322C66.7556 20.7322 66.43 19.8239 65.7797 19.2072C65.1293 18.5739 64.3207 18.2572 63.3541 18.2572C62.3874 18.2572 61.5793 18.5739 60.9297 19.2072C60.28 19.8239 59.9556 20.7322 59.9563 21.9322L59.9565 22.1822C59.9572 23.3822 60.2828 24.2989 60.9332 24.9322C61.5835 25.5489 62.3921 25.8572 63.3587 25.8572Z" fill="#FFF5F2"/>
<path d="M71.5526 28.2572L71.545 15.8572H74.695L74.7026 28.2572H71.5526ZM73.1191 14.4072C72.5524 14.4072 72.069 14.2239 71.6688 13.8572C71.2852 13.4906 71.0932 13.0072 71.0929 12.4072C71.0925 11.8072 71.2839 11.3239 71.667 10.9572C72.0668 10.5906 72.55 10.4072 73.1167 10.4072C73.7 10.4072 74.1834 10.5906 74.567 10.9572C74.9505 11.3239 75.1425 11.8072 75.1429 12.4072C75.1432 13.0072 74.9519 13.4906 74.5688 13.8572C74.1857 14.2239 73.7024 14.4072 73.1191 14.4072Z" fill="#FFF5F2"/>
<path d="M82.7684 28.6072C81.5684 28.6072 80.4766 28.3572 79.493 27.8572C78.526 27.3572 77.7589 26.6322 77.1916 25.6822C76.6244 24.7322 76.3403 23.5822 76.3395 22.2322L76.3393 21.8822C76.3385 20.5322 76.6211 19.3822 77.1872 18.4322C77.7533 17.4822 78.5195 16.7572 79.4859 16.2572C80.4689 15.7572 81.5604 15.5072 82.7604 15.5072C83.9437 15.5072 84.9605 15.7156 85.8108 16.1322C86.661 16.5489 87.3447 17.1239 87.8618 17.8572C88.3956 18.5739 88.7461 19.3906 88.9133 20.3072L85.8637 20.9572C85.7968 20.4572 85.6465 20.0072 85.4129 19.6072C85.1793 19.2072 84.8458 18.8906 84.4123 18.6572C83.9955 18.4239 83.4704 18.3072 82.8371 18.3072C82.2038 18.3072 81.6289 18.4489 81.1124 18.7322C80.6125 18.9989 80.2128 19.4072 79.9131 19.9572C79.6301 20.4906 79.4889 21.1489 79.4893 21.9322L79.4895 22.1822C79.49 22.9656 79.632 23.6322 79.9157 24.1822C80.216 24.7156 80.6163 25.1239 81.1165 25.4072C81.6333 25.6739 82.2084 25.8072 82.8417 25.8072C83.7917 25.8072 84.5082 25.5656 84.9913 25.0822C85.491 24.5822 85.8072 23.9322 85.9401 23.1322L88.9905 23.8572C88.7744 24.7406 88.3999 25.5489 87.867 26.2822C87.3508 26.9989 86.6678 27.5656 85.818 27.9822C84.9683 28.3989 83.9518 28.6072 82.7684 28.6072Z" fill="#FFF5F2"/>
<path d="M95.0668 28.4572C94.1001 28.4572 93.25 28.2406 92.5164 27.8072C91.7994 27.3572 91.2407 26.7406 90.8402 25.9572C90.4398 25.1739 90.2392 24.2739 90.2386 23.2572L90.234 15.8572H93.384L93.3884 23.0072C93.389 23.9406 93.6144 24.6406 94.0647 25.1072C94.5317 25.5739 95.1901 25.8072 96.0401 25.8072C97.0068 25.8072 97.7566 25.4906 98.2896 24.8572C98.8225 24.2072 99.0886 23.3072 99.0879 22.1572L99.084 15.8572H102.234L102.242 28.2572H99.1416L99.1406 26.6322H98.6906C98.4909 27.0489 98.1162 27.4572 97.5664 27.8572C97.0166 28.2572 96.1834 28.4572 95.0668 28.4572Z" fill="#FFF5F2"/>
<path d="M104.497 28.2572L104.489 15.8572H107.589L107.59 17.2572H108.04C108.223 16.7572 108.523 16.3906 108.94 16.1572C109.373 15.9239 109.873 15.8072 110.439 15.8072H111.939L111.941 18.6072H110.391C109.591 18.6072 108.933 18.8239 108.416 19.2572C107.9 19.6739 107.642 20.3239 107.643 21.2072L107.647 28.2572H104.497Z" fill="#FFF5F2"/>
<path d="M113.159 28.2572L113.151 15.8572H116.301L116.309 28.2572H113.159ZM114.726 14.4072C114.159 14.4072 113.675 14.2239 113.275 13.8572C112.892 13.4906 112.7 13.0072 112.699 12.4072C112.699 11.8072 112.89 11.3239 113.273 10.9572C113.673 10.5906 114.156 10.4072 114.723 10.4072C115.306 10.4072 115.79 10.5906 116.173 10.9572C116.557 11.3239 116.749 11.8072 116.749 12.4072C116.75 13.0072 116.558 13.4906 116.175 13.8572C115.792 14.2239 115.309 14.4072 114.726 14.4072Z" fill="#FFF5F2"/>
<path d="M124.45 28.6072C123.217 28.6072 122.108 28.3572 121.124 27.8572C120.141 27.3572 119.365 26.6322 118.798 25.6822C118.231 24.7322 117.947 23.5906 117.946 22.2572L117.946 21.8572C117.945 20.5239 118.228 19.3822 118.794 18.4322C119.36 17.4822 120.134 16.7572 121.117 16.2572C122.1 15.7572 123.209 15.5072 124.442 15.5072C125.675 15.5072 126.784 15.7572 127.767 16.2572C128.751 16.7572 129.526 17.4822 130.094 18.4322C130.661 19.3822 130.945 20.5239 130.946 21.8572L130.946 22.2572C130.947 23.5906 130.664 24.7322 130.098 25.6822C129.532 26.6322 128.757 27.3572 127.774 27.8572C126.791 28.3572 125.683 28.6072 124.45 28.6072ZM124.448 25.8072C125.415 25.8072 126.215 25.4989 126.848 24.8822C127.481 24.2489 127.797 23.3489 127.796 22.1822L127.796 21.9322C127.795 20.7656 127.478 19.8739 126.844 19.2572C126.227 18.6239 125.427 18.3072 124.444 18.3072C123.477 18.3072 122.677 18.6239 122.044 19.2572C121.411 19.8739 121.095 20.7656 121.096 21.9322L121.096 22.1822C121.097 23.3489 121.414 24.2489 122.048 24.8822C122.681 25.4989 123.481 25.8072 124.448 25.8072Z" fill="#FFF5F2"/>
<path d="M137.332 28.4572C136.366 28.4572 135.516 28.2406 134.782 27.8072C134.065 27.3572 133.506 26.7406 133.106 25.9572C132.705 25.1739 132.505 24.2739 132.504 23.2572L132.5 15.8572H135.65L135.654 23.0072C135.655 23.9406 135.88 24.6406 136.33 25.1072C136.797 25.5739 137.456 25.8072 138.306 25.8072C139.272 25.8072 140.022 25.4906 140.555 24.8572C141.088 24.2072 141.354 23.3072 141.354 22.1572L141.35 15.8572H144.5L144.507 28.2572H141.407L141.406 26.6322H140.956C140.757 27.0489 140.382 27.4572 139.832 27.8572C139.282 28.2572 138.449 28.4572 137.332 28.4572Z" fill="#FFF5F2"/>
<path d="M151.913 28.6072C150.296 28.6072 148.971 28.2572 147.937 27.5572C146.903 26.8572 146.278 25.8572 146.06 24.5572L148.96 23.8072C149.077 24.3906 149.269 24.8489 149.536 25.1822C149.819 25.5156 150.161 25.7572 150.561 25.9072C150.978 26.0406 151.428 26.1072 151.911 26.1072C152.645 26.1072 153.186 25.9822 153.536 25.7322C153.886 25.4656 154.061 25.1406 154.06 24.7572C154.06 24.3739 153.893 24.0822 153.56 23.8822C153.226 23.6656 152.693 23.4906 151.96 23.3572L151.259 23.2322C150.393 23.0656 149.601 22.8406 148.884 22.5572C148.167 22.2572 147.592 21.8489 147.158 21.3322C146.725 20.8156 146.508 20.1489 146.507 19.3322C146.506 18.0989 146.956 17.1572 147.855 16.5072C148.755 15.8406 149.938 15.5072 151.405 15.5072C152.788 15.5072 153.938 15.8156 154.855 16.4322C155.772 17.0489 156.373 17.8572 156.657 18.8572L153.732 19.7572C153.599 19.1239 153.323 18.6739 152.907 18.4072C152.506 18.1406 152.006 18.0072 151.406 18.0072C150.806 18.0072 150.348 18.1156 150.031 18.3322C149.715 18.5322 149.557 18.8156 149.557 19.1822C149.557 19.5822 149.724 19.8822 150.058 20.0822C150.391 20.2656 150.841 20.4072 151.408 20.5072L152.108 20.6322C153.041 20.7989 153.883 21.0239 154.633 21.3072C155.4 21.5739 156 21.9656 156.434 22.4822C156.884 22.9822 157.11 23.6656 157.11 24.5322C157.111 25.8322 156.637 26.8406 155.687 27.5572C154.754 28.2572 153.496 28.6072 151.913 28.6072Z" fill="#FFF5F2"/>
</svg>
