<svg width="152" height="40" viewBox="0 0 152 40" fill="none" xmlns="http://www.w3.org/2000/svg">
<g clip-path="url(#clip0_21025_82730)">
<path d="M22.7267 3.43466L19.2088 2.49219L16.2515 13.5544L13.5693 3.56736L10.0525 4.50984L12.9504 15.3001L5.74443 8.09859L3.17112 10.6735L11.0752 18.5727L1.23635 15.9368L0.296033 19.4542L11.0462 22.3342C10.9228 21.8034 10.8573 21.2504 10.857 20.6821C10.8545 16.6599 14.1132 13.3992 18.1354 13.3992C22.1577 13.3992 25.4203 16.6599 25.4228 20.6821C25.4231 21.2467 25.3592 21.7964 25.2379 22.324L35.0078 24.9414L35.9481 21.4241L25.1552 18.5326L34.9915 15.8965L34.0468 12.3792L23.2579 15.2705L30.455 8.06902L27.8785 5.49414L20.0937 13.2838L22.7267 3.43466Z" fill="#FFF5F2"/>
<path d="M25.2277 22.365C24.9269 23.6399 24.2909 24.7852 23.4179 25.7029L30.4989 32.7796L33.0723 30.2047L25.2277 22.365Z" fill="#FFF5F2"/>
<path d="M23.3465 25.7769C22.463 26.6798 21.3461 27.3537 20.0934 27.701L22.6744 37.3112L26.1911 36.3687L23.3465 25.7769Z" fill="#FFF5F2"/>
<path d="M19.9621 27.7361C19.3809 27.8856 18.7716 27.965 18.1437 27.965C17.471 27.965 16.8196 27.8738 16.201 27.703L13.6295 37.322L17.1474 38.2645L19.9621 27.7361Z" fill="#FFF5F2"/>
<path d="M16.0766 27.6676C14.8426 27.3031 13.7448 26.6206 12.8782 25.715L5.78846 32.8091L8.36493 35.384L16.0766 27.6676Z" fill="#FFF5F2"/>
<path d="M12.8197 25.6523C11.9679 24.741 11.3472 23.611 11.0513 22.3557L1.25279 24.9817L2.19741 28.499L12.8197 25.6523Z" fill="#FFF5F2"/>
</g>
<path d="M57.1064 10.7578L57.1142 23.4328L48.9814 10.7578H45.7314L45.7422 28.2578H48.9922L48.9845 15.6828L57.1172 28.2578H60.3672L60.3564 10.7578H57.1064Z" fill="#FFF5F2"/>
<path d="M61.8229 14.0328H65.1729L65.1709 10.7578H61.8209L61.8229 14.0328ZM61.8816 28.2578L61.874 15.7578H65.124L65.1316 28.2578H61.8816Z" fill="#FFF5F2"/>
<path d="M79.1112 22.0078C79.1085 17.6828 76.0323 15.6328 72.7823 15.6078C69.5073 15.5828 66.4835 17.6828 66.4862 22.0078C66.4888 26.3328 69.5151 28.4328 72.7901 28.4078C75.7651 28.3828 77.8143 27.0078 78.7629 24.7328L76.2372 23.6828C75.4632 25.2328 74.2385 25.7828 72.7885 25.8078C71.5385 25.8328 70.1132 25.2328 69.8118 23.0078H79.0368C79.0866 22.6828 79.1114 22.3578 79.1112 22.0078ZM72.7838 18.1828C74.0339 18.2078 75.3093 18.8828 75.7104 20.6828H69.8604C70.2843 18.8578 71.5588 18.1578 72.7838 18.1828Z" fill="#FFF5F2"/>
<path d="M86.6197 18.0828L86.6182 15.6078H84.5682L84.5662 12.2578L81.3168 13.2578L81.3182 15.6078H79.2682L79.2697 18.0828H81.3197L81.3237 24.5578C81.3252 27.0078 81.526 28.2578 85.326 28.2578H86.201L86.1992 25.4078H85.3242C84.7242 25.4078 84.5741 25.3078 84.5737 24.5578L84.5697 18.0828H86.6197Z" fill="#FFF5F2"/>
<path d="M91.4536 25.5328L98.3493 18.4828L98.3476 15.7578H87.9976L87.9993 18.4828H94.6993L87.8036 25.5328L87.8053 28.2578H98.4303L98.4286 25.5328H91.4536Z" fill="#FFF5F2"/>
<path d="M99.5933 24.7328L102.868 24.2328C103.094 25.4828 104.569 25.9578 105.469 25.9578C106.394 25.9578 107.994 25.7578 107.993 24.2578C107.991 21.3328 99.9685 24.9828 99.965 19.3828C99.9628 15.7828 104.138 15.5828 105.463 15.5828C106.713 15.5828 110.338 15.7828 111.09 18.6828L107.99 19.3328C107.714 18.0078 106.314 17.7578 105.564 17.7578C104.814 17.7578 103.214 17.9328 103.215 19.3828C103.217 22.2828 111.24 18.5828 111.243 24.2578C111.245 28.0828 106.846 28.4078 105.471 28.4078C104.221 28.4078 100.245 28.0828 99.5933 24.7328Z" fill="#FFF5F2"/>
<path d="M115.464 22.0078C115.466 25.0578 117.091 25.9828 118.791 25.9578C120.316 25.9328 121.366 25.3078 121.99 23.5578L124.665 24.8578C123.692 27.4078 121.318 28.3828 118.793 28.4078C115.518 28.4328 112.216 26.3328 112.214 22.0078C112.211 17.6828 115.51 15.5828 118.785 15.6078C121.31 15.6328 123.685 16.6078 124.662 19.1578L121.988 20.4578C121.362 18.7078 120.311 18.0828 118.786 18.0578C117.086 18.0328 115.462 18.9578 115.464 22.0078Z" fill="#FFF5F2"/>
<path d="M133.385 15.5578C131.71 15.5578 130.185 16.4328 129.211 18.3078L129.207 10.7578H125.957L125.967 28.2578H129.217L129.215 23.8328C129.211 18.1078 131.586 17.6328 132.461 17.6328C133.861 17.6328 134.062 19.0828 134.063 21.2078L134.067 28.2578H137.317L137.313 21.2078C137.311 18.5578 136.885 15.5578 133.385 15.5578Z" fill="#FFF5F2"/>
<path d="M151.035 22.0078C151.032 17.6828 147.956 15.6328 144.706 15.6078C141.431 15.5828 138.407 17.6828 138.41 22.0078C138.413 26.3328 141.439 28.4328 144.714 28.4078C147.689 28.3828 149.738 27.0078 150.687 24.7328L148.161 23.6828C147.387 25.2328 146.162 25.7828 144.712 25.8078C143.462 25.8328 142.037 25.2328 141.736 23.0078H150.961C151.01 22.6828 151.035 22.3578 151.035 22.0078ZM144.708 18.1828C145.958 18.2078 147.233 18.8828 147.634 20.6828H141.784C142.208 18.8578 143.483 18.1578 144.708 18.1828Z" fill="#FFF5F2"/>
<defs>
<clipPath id="clip0_21025_82730">
<rect width="36.6667" height="36.6667" fill="white" transform="matrix(1 0 0.000612478 1 0.000976562 1.66699)"/>
</clipPath>
</defs>
</svg>
