<svg width="1440" height="242" viewBox="0 0 1440 242" fill="none" xmlns="http://www.w3.org/2000/svg">
<path d="M323.861 238H271.361V193.55H139.061V156.8L262.961 3.5H323.861V146.3H357.461V193.55H323.861V238ZM205.211 146.3H271.361V67.2H268.211L205.211 142.8V146.3Z" fill="#080200"/>
<path d="M424.293 112.59H411.045V62.03H424.293V67.79H417.509V106.83H424.293V112.59ZM460.949 109.39C448.597 109.39 443.221 103.694 443.221 95.438V94.35H450.005V95.054C450.005 100.366 452.245 103.054 461.205 103.054C467.541 103.054 469.845 101.326 469.845 97.358C469.845 93.454 468.565 92.046 461.973 90.702L454.677 89.23C447.317 87.822 443.349 84.238 443.349 77.454C443.349 71.118 448.277 65.23 459.349 65.23C471.189 65.23 475.925 71.886 475.925 79.502V80.27H469.141V79.566C469.141 74.318 466.837 71.566 459.157 71.566C452.821 71.566 450.261 73.358 450.261 77.134C450.261 81.038 451.989 82.126 457.877 83.406L465.173 84.942C473.237 86.606 476.757 90.638 476.757 97.102C476.757 103.822 471.893 109.39 460.949 109.39ZM501.637 109.39C489.413 109.39 481.605 100.686 481.605 87.31C481.605 73.934 489.413 65.23 501.637 65.23C513.797 65.23 521.605 73.934 521.605 87.31C521.605 100.686 513.797 109.39 501.637 109.39ZM501.637 102.734C510.533 102.734 514.245 98.446 514.245 87.31C514.245 76.174 510.533 71.886 501.637 71.886C492.741 71.886 488.965 76.174 488.965 87.31C488.965 98.446 492.741 102.734 501.637 102.734ZM535.327 108.75H528.415V65.87H546.847C556.319 65.87 562.271 70.542 562.271 78.67C562.271 85.774 557.919 90.062 550.367 90.446V90.958C553.503 91.982 555.359 93.902 556.959 96.846L563.359 108.75H555.359L549.279 97.678C547.295 93.966 545.503 92.238 540.383 92.238H535.327V108.75ZM535.327 72.078V86.542H547.679C553.247 86.542 555.359 84.494 555.359 79.31C555.359 74.254 553.247 72.078 547.679 72.078H535.327ZM575.482 108.75H568.57V65.87H587.002C596.474 65.87 602.426 70.542 602.426 78.67C602.426 85.774 598.074 90.062 590.522 90.446V90.958C593.658 91.982 595.514 93.902 597.114 96.846L603.514 108.75H595.514L589.434 97.678C587.45 93.966 585.658 92.238 580.538 92.238H575.482V108.75ZM575.482 72.078V86.542H587.834C593.402 86.542 595.514 84.494 595.514 79.31C595.514 74.254 593.402 72.078 587.834 72.078H575.482ZM626.571 108.75H619.723V92.814L603.083 65.87H610.955L619.083 79.118L623.051 85.838H623.499L627.403 79.118L635.467 65.87H643.275L626.571 92.942V108.75ZM655.485 94.67H648.765C648.765 88.462 647.741 75.278 647.741 70.35V65.87H656.509V70.35C656.509 75.278 655.485 88.526 655.485 94.67ZM656.061 108.75H648.253V99.278H656.061V108.75ZM697.848 108.75H691V92.814L674.36 65.87H682.232L690.36 79.118L694.328 85.838H694.776L698.68 79.118L706.744 65.87H714.552L697.848 92.942V108.75ZM733.534 109.39C721.31 109.39 713.502 100.686 713.502 87.31C713.502 73.934 721.31 65.23 733.534 65.23C745.694 65.23 753.502 73.934 753.502 87.31C753.502 100.686 745.694 109.39 733.534 109.39ZM733.534 102.734C742.43 102.734 746.142 98.446 746.142 87.31C746.142 76.174 742.43 71.886 733.534 71.886C724.638 71.886 720.862 76.174 720.862 87.31C720.862 98.446 724.638 102.734 733.534 102.734ZM778.424 109.39C766.776 109.39 760.184 102.926 760.184 91.982V65.87H767.032V91.982C767.032 99.726 769.976 102.734 778.424 102.734C786.808 102.734 789.752 99.726 789.752 91.982V65.87H796.664V91.982C796.664 102.926 790.008 109.39 778.424 109.39ZM415.269 172.75H408.037L424.741 129.87H434.661L451.365 172.75H443.877L439.525 161.614H419.621L415.269 172.75ZM426.533 144.078L422.053 155.406H437.093L432.613 144.078L429.861 136.142H429.349L426.533 144.078ZM462.424 172.75H455.512V129.87H473.944C483.416 129.87 489.368 134.542 489.368 142.67C489.368 149.774 485.016 154.062 477.464 154.446V154.958C480.6 155.982 482.456 157.902 484.056 160.846L490.456 172.75H482.456L476.376 161.678C474.392 157.966 472.6 156.238 467.48 156.238H462.424V172.75ZM462.424 136.078V150.542H474.776C480.344 150.542 482.456 148.494 482.456 143.31C482.456 138.254 480.344 136.078 474.776 136.078H462.424ZM526.323 172.75H495.667V129.87H526.323V136.078H502.579V148.046H525.363V154.318H502.579V166.542H526.323V172.75ZM576.862 172.75H547.102V129.87H554.014V166.542H576.862V172.75ZM597.822 173.39C585.598 173.39 577.79 164.686 577.79 151.31C577.79 137.934 585.598 129.23 597.822 129.23C609.982 129.23 617.79 137.934 617.79 151.31C617.79 164.686 609.982 173.39 597.822 173.39ZM597.822 166.734C606.718 166.734 610.43 162.446 610.43 151.31C610.43 140.174 606.718 135.886 597.822 135.886C588.926 135.886 585.15 140.174 585.15 151.31C585.15 162.446 588.926 166.734 597.822 166.734ZM641.694 173.39C629.342 173.39 623.966 167.694 623.966 159.438V158.35H630.75V159.054C630.75 164.366 632.99 167.054 641.95 167.054C648.286 167.054 650.59 165.326 650.59 161.358C650.59 157.454 649.31 156.046 642.718 154.702L635.422 153.23C628.062 151.822 624.094 148.238 624.094 141.454C624.094 135.118 629.022 129.23 640.094 129.23C651.934 129.23 656.67 135.886 656.67 143.502V144.27H649.886V143.566C649.886 138.318 647.582 135.566 639.902 135.566C633.566 135.566 631.006 137.358 631.006 141.134C631.006 145.038 632.734 146.126 638.622 147.406L645.918 148.942C653.982 150.606 657.502 154.638 657.502 161.102C657.502 167.822 652.638 173.39 641.694 173.39ZM680.182 172.75H673.334V136.078H658.742V129.87H694.774V136.078H680.182V172.75ZM709.601 170.83H716.385V131.79H709.601V126.03H722.849V176.59H709.601V170.83Z" fill="#080200"/>
<path d="M955.811 241.5C888.261 241.5 850.461 193.9 850.461 120.75C850.461 47.95 888.261 0 955.811 0C1023.01 0 1060.81 47.95 1060.81 120.75C1060.81 193.9 1023.01 241.5 955.811 241.5ZM955.811 190.75C991.511 190.75 1004.81 176.4 1004.81 120.75C1004.81 65.1 991.511 50.75 955.811 50.75C919.761 50.75 906.461 65.1 906.461 120.75C906.461 176.4 919.761 190.75 955.811 190.75Z" fill="#080200"/>
<path d="M1267.34 238H1214.84V193.55H1082.54V156.8L1206.44 3.5H1267.34V146.3H1300.94V193.55H1267.34V238ZM1148.69 146.3H1214.84V67.2H1211.69L1148.69 142.8V146.3Z" fill="#080200"/>
</svg>
