<svg width="284" height="72" viewBox="0 0 284 72" fill="none" xmlns="http://www.w3.org/2000/svg">
<path d="M32.3739 6C26.9139 6 22.5066 10.3564 22.5099 15.75C22.5132 21.1022 26.9258 25.4585 32.3438 25.5C30.9998 25.4585 29.9492 24.3798 29.9484 23.0521C29.9475 21.7245 31.0389 20.6043 32.4249 20.6043C38.3048 20.6043 51.3669 20.6043 57.1209 20.6043C61.1949 20.6043 64.5108 17.3266 64.5084 13.3022C64.5059 9.27766 61.1859 6 57.1119 6L32.3739 6Z" fill="url(#paint0_linear_19213_84092)"/>
<path opacity="0.9" d="M20.3856 25.5C14.9256 25.5 10.5183 29.8564 10.5216 35.25C10.5249 40.6022 14.9375 44.9585 20.3555 45C19.0115 44.9585 17.9609 43.8798 17.9601 42.5521C17.9593 41.2245 19.0506 40.1043 20.4366 40.1043C26.3165 40.1043 39.3786 40.1043 45.1326 40.1043C49.2066 40.1043 52.5226 36.8266 52.5201 32.8022C52.5176 28.7777 49.1976 25.5 45.1236 25.5L20.3856 25.5Z" fill="url(#paint1_linear_19213_84092)"/>
<path opacity="0.8" d="M12.1023 45C6.25234 45 1.53022 49.6915 1.53377 55.5C1.53731 61.2639 6.26517 65.9553 12.0702 66C10.6302 65.9553 9.50447 64.7936 9.50359 63.3638C9.50272 61.934 10.672 60.7277 12.157 60.7277C18.4569 60.7277 32.452 60.7277 38.617 60.7277C42.982 60.7277 46.5348 57.1979 46.5322 52.8639C46.5295 48.5298 42.9723 45 38.6074 45L12.1023 45Z" fill="url(#paint2_linear_19213_84092)"/>
<path d="M79.5011 50.8639L79.4818 19.3639H99.7318L99.7351 24.7639H85.4251L85.4297 32.2789H98.4797L98.4831 37.6789H85.433L85.4378 45.4639H100.018L100.021 50.8639H79.5011Z" fill="url(#paint3_linear_19213_84092)"/>
<path d="M102.354 59.8639L102.334 28.5439H107.914L107.916 31.2439H108.726C109.236 30.3739 110.03 29.6089 111.11 28.9489C112.189 28.2589 113.734 27.9139 115.744 27.9139C117.544 27.9139 119.209 28.3639 120.74 29.2639C122.27 30.1339 123.501 31.4239 124.432 33.1339C125.363 34.8439 125.83 36.9139 125.831 39.3439L125.832 40.0639C125.833 42.4939 125.369 44.5639 124.44 46.2739C123.511 47.9839 122.282 49.2889 120.753 50.1889C119.223 51.0589 117.559 51.4939 115.759 51.4939C114.409 51.4939 113.268 51.3289 112.338 50.9989C111.438 50.6989 110.703 50.3089 110.132 49.8289C109.592 49.3189 109.157 48.8089 108.827 48.2989H108.017L108.024 59.8639H102.354ZM114.045 46.5439C115.815 46.5439 117.27 45.9889 118.409 44.8789C119.579 43.7389 120.163 42.0889 120.161 39.9289L120.161 39.4789C120.16 37.3189 119.574 35.6839 118.403 34.5739C117.232 33.4339 115.777 32.8639 114.037 32.8639C112.297 32.8639 110.842 33.4339 109.673 34.5739C108.504 35.6839 107.92 37.3189 107.921 39.4789L107.921 39.9289C107.923 42.0889 108.509 43.7389 109.679 44.8789C110.85 45.9889 112.305 46.5439 114.045 46.5439Z" fill="url(#paint4_linear_19213_84092)"/>
<path d="M128.794 50.8639L128.781 28.5439H134.451L134.464 50.8639H128.794ZM131.614 25.9339C130.594 25.9339 129.724 25.6039 129.004 24.9439C128.313 24.2839 127.968 23.4139 127.967 22.3339C127.966 21.2539 128.311 20.3839 129 19.7239C129.72 19.0639 130.59 18.7339 131.61 18.7339C132.66 18.7339 133.53 19.0639 134.22 19.7239C134.911 20.3839 135.256 21.2539 135.257 22.3339C135.258 23.4139 134.913 24.2839 134.224 24.9439C133.534 25.6039 132.664 25.9339 131.614 25.9339Z" fill="url(#paint5_linear_19213_84092)"/>
<path d="M148.983 51.4939C146.823 51.4939 144.858 51.0439 143.087 50.1439C141.347 49.2439 139.966 47.9389 138.945 46.2289C137.924 44.5189 137.412 42.4489 137.411 40.0189L137.411 39.3889C137.409 36.9589 137.918 34.8889 138.937 33.1789C139.956 31.4689 141.335 30.1639 143.074 29.2639C144.844 28.3639 146.808 27.9139 148.968 27.9139C151.098 27.9139 152.929 28.2889 154.459 29.0389C155.99 29.7889 157.22 30.8239 158.151 32.1439C159.112 33.4339 159.743 34.9039 160.044 36.5539L154.554 37.7239C154.434 36.8239 154.163 36.0139 153.743 35.2939C153.323 34.5739 152.722 34.0039 151.942 33.5839C151.192 33.1639 150.247 32.9539 149.107 32.9539C147.967 32.9539 146.932 33.2089 146.002 33.7189C145.102 34.1989 144.383 34.9339 143.843 35.9239C143.334 36.8839 143.08 38.0689 143.081 39.4789L143.081 39.9289C143.082 41.3389 143.337 42.5389 143.848 43.5289C144.389 44.4889 145.109 45.2239 146.009 45.7339C146.94 46.2139 147.975 46.4539 149.115 46.4539C150.825 46.4539 152.115 46.0189 152.984 45.1489C153.883 44.2489 154.453 43.0789 154.692 41.6389L160.183 42.9439C159.794 44.5339 159.12 45.9889 158.16 47.3089C157.231 48.5989 156.002 49.6189 154.472 50.3689C152.943 51.1189 151.113 51.4939 148.983 51.4939Z" fill="url(#paint6_linear_19213_84092)"/>
<path d="M171.12 51.2239C169.38 51.2239 167.85 50.8339 166.529 50.0539C165.239 49.2439 164.233 48.1339 163.512 46.7239C162.791 45.3139 162.43 43.6939 162.429 41.8639L162.421 28.5439H168.091L168.099 41.4139C168.1 43.0939 168.506 44.3539 169.316 45.1939C170.157 46.0339 171.342 46.4539 172.872 46.4539C174.612 46.4539 175.962 45.8839 176.921 44.7439C177.88 43.5739 178.359 41.9539 178.358 39.8839L178.351 28.5439H184.021L184.035 50.8639H178.455L178.453 47.9389H177.643C177.283 48.6889 176.609 49.4239 175.619 50.1439C174.63 50.8639 173.13 51.2239 171.12 51.2239Z" fill="url(#paint7_linear_19213_84092)"/>
<path d="M188.094 50.8639L188.081 28.5439H193.661L193.662 31.0639H194.472C194.802 30.1639 195.341 29.5039 196.091 29.0839C196.871 28.6639 197.77 28.4539 198.79 28.4539H201.49L201.494 33.4939H198.704C197.264 33.4939 196.079 33.8839 195.149 34.6639C194.22 35.4139 193.755 36.5839 193.756 38.1739L193.764 50.8639H188.094Z" fill="url(#paint8_linear_19213_84092)"/>
<path d="M203.686 50.8639L203.672 28.5439H209.342L209.356 50.8639H203.686ZM206.506 25.9339C205.486 25.9339 204.616 25.6039 203.895 24.9439C203.205 24.2839 202.859 23.4139 202.859 22.3339C202.858 21.2539 203.202 20.3839 203.892 19.7239C204.612 19.0639 205.481 18.7339 206.501 18.7339C207.551 18.7339 208.422 19.0639 209.112 19.7239C209.802 20.3839 210.148 21.2539 210.149 22.3339C210.149 23.4139 209.805 24.2839 209.115 24.9439C208.426 25.6039 207.556 25.9339 206.506 25.9339Z" fill="url(#paint9_linear_19213_84092)"/>
<path d="M224.01 51.4939C221.79 51.4939 219.794 51.0439 218.024 50.1439C216.253 49.2439 214.857 47.9389 213.836 46.2289C212.815 44.5189 212.304 42.4639 212.303 40.0639L212.302 39.3439C212.301 36.9439 212.809 34.8889 213.828 33.1789C214.847 31.4689 216.241 30.1639 218.011 29.2639C219.78 28.3639 221.775 27.9139 223.995 27.9139C226.215 27.9139 228.21 28.3639 229.981 29.2639C231.751 30.1639 233.147 31.4689 234.168 33.1789C235.189 34.8889 235.701 36.9439 235.702 39.3439L235.703 40.0639C235.704 42.4639 235.195 44.5189 234.176 46.2289C233.157 47.9389 231.763 49.2439 229.994 50.1439C228.224 51.0439 226.23 51.4939 224.01 51.4939ZM224.006 46.4539C225.746 46.4539 227.186 45.8989 228.325 44.7889C229.465 43.6489 230.034 42.0289 230.032 39.9289L230.032 39.4789C230.031 37.3789 229.46 35.7739 228.319 34.6639C227.209 33.5239 225.768 32.9539 223.998 32.9539C222.258 32.9539 220.819 33.5239 219.679 34.6639C218.54 35.7739 217.971 37.3789 217.972 39.4789L217.972 39.9289C217.974 42.0289 218.545 43.6489 219.685 44.7889C220.826 45.8989 222.266 46.4539 224.006 46.4539Z" fill="url(#paint10_linear_19213_84092)"/>
<path d="M247.198 51.2239C245.458 51.2239 243.928 50.8339 242.607 50.0539C241.317 49.2439 240.311 48.1339 239.59 46.7239C238.869 45.3139 238.508 43.6939 238.507 41.8639L238.499 28.5439H244.169L244.177 41.4139C244.178 43.0939 244.584 44.3539 245.394 45.1939C246.235 46.0339 247.42 46.4539 248.95 46.4539C250.69 46.4539 252.04 45.8839 252.999 44.7439C253.958 43.5739 254.437 41.9539 254.436 39.8839L254.429 28.5439H260.099L260.113 50.8639H254.533L254.531 47.9389H253.721C253.362 48.6889 252.687 49.4239 251.697 50.1439C250.708 50.8639 249.208 51.2239 247.198 51.2239Z" fill="url(#paint11_linear_19213_84092)"/>
<path d="M273.443 51.4939C270.533 51.4939 268.147 50.8639 266.287 49.6039C264.426 48.3439 263.3 46.5439 262.908 44.2039L268.127 42.8539C268.338 43.9039 268.684 44.7289 269.164 45.3289C269.674 45.9289 270.29 46.3639 271.01 46.6339C271.76 46.8739 272.57 46.9939 273.44 46.9939C274.76 46.9939 275.735 46.7689 276.365 46.3189C276.994 45.8389 277.309 45.2539 277.308 44.5639C277.308 43.8739 277.008 43.3489 276.408 42.9889C275.807 42.5989 274.847 42.2839 273.527 42.0439L272.267 41.8189C270.707 41.5189 269.281 41.1139 267.991 40.6039C266.701 40.0639 265.665 39.3289 264.885 38.3989C264.104 37.4689 263.713 36.2689 263.712 34.7989C263.711 32.5789 264.52 30.8839 266.139 29.7139C267.759 28.5139 269.888 27.9139 272.528 27.9139C275.018 27.9139 277.089 28.4689 278.739 29.5789C280.39 30.6889 281.471 32.1439 281.982 33.9439L276.718 35.5639C276.477 34.4239 275.982 33.6139 275.231 33.1339C274.511 32.6539 273.611 32.4139 272.531 32.4139C271.451 32.4139 270.626 32.6089 270.056 32.9989C269.487 33.3589 269.202 33.8689 269.202 34.5289C269.203 35.2489 269.503 35.7889 270.103 36.1489C270.704 36.4789 271.514 36.7339 272.534 36.9139L273.794 37.1389C275.474 37.4389 276.989 37.8439 278.34 38.3539C279.72 38.8339 280.8 39.5389 281.581 40.4689C282.392 41.3689 282.797 42.5989 282.798 44.1589C282.8 46.4989 281.946 48.3139 280.237 49.6039C278.557 50.8639 276.293 51.4939 273.443 51.4939Z" fill="url(#paint12_linear_19213_84092)"/>
<defs>
<linearGradient id="paint0_linear_19213_84092" x1="43.5039" y1="6" x2="43.5039" y2="25.5" gradientUnits="userSpaceOnUse">
<stop stop-color="#1183FF"/>
<stop offset="1" stop-color="#66AFFF"/>
</linearGradient>
<linearGradient id="paint1_linear_19213_84092" x1="31.5156" y1="25.5" x2="31.5156" y2="45" gradientUnits="userSpaceOnUse">
<stop stop-color="#1183FF"/>
<stop offset="1" stop-color="#66AFFF"/>
</linearGradient>
<linearGradient id="paint2_linear_19213_84092" x1="24.0273" y1="45" x2="24.0273" y2="66" gradientUnits="userSpaceOnUse">
<stop stop-color="#1183FF"/>
<stop offset="1" stop-color="#66AFFF"/>
</linearGradient>
<linearGradient id="paint3_linear_19213_84092" x1="181.132" y1="18.7339" x2="181.132" y2="59.8639" gradientUnits="userSpaceOnUse">
<stop stop-color="#1183FF"/>
<stop offset="1" stop-color="#66AFFF"/>
</linearGradient>
<linearGradient id="paint4_linear_19213_84092" x1="181.132" y1="18.7339" x2="181.132" y2="59.8639" gradientUnits="userSpaceOnUse">
<stop stop-color="#1183FF"/>
<stop offset="1" stop-color="#66AFFF"/>
</linearGradient>
<linearGradient id="paint5_linear_19213_84092" x1="181.132" y1="18.7339" x2="181.132" y2="59.8639" gradientUnits="userSpaceOnUse">
<stop stop-color="#1183FF"/>
<stop offset="1" stop-color="#66AFFF"/>
</linearGradient>
<linearGradient id="paint6_linear_19213_84092" x1="181.132" y1="18.7339" x2="181.132" y2="59.8639" gradientUnits="userSpaceOnUse">
<stop stop-color="#1183FF"/>
<stop offset="1" stop-color="#66AFFF"/>
</linearGradient>
<linearGradient id="paint7_linear_19213_84092" x1="181.132" y1="18.7339" x2="181.132" y2="59.8639" gradientUnits="userSpaceOnUse">
<stop stop-color="#1183FF"/>
<stop offset="1" stop-color="#66AFFF"/>
</linearGradient>
<linearGradient id="paint8_linear_19213_84092" x1="181.132" y1="18.7339" x2="181.132" y2="59.8639" gradientUnits="userSpaceOnUse">
<stop stop-color="#1183FF"/>
<stop offset="1" stop-color="#66AFFF"/>
</linearGradient>
<linearGradient id="paint9_linear_19213_84092" x1="181.132" y1="18.7339" x2="181.132" y2="59.8639" gradientUnits="userSpaceOnUse">
<stop stop-color="#1183FF"/>
<stop offset="1" stop-color="#66AFFF"/>
</linearGradient>
<linearGradient id="paint10_linear_19213_84092" x1="181.132" y1="18.7339" x2="181.132" y2="59.8639" gradientUnits="userSpaceOnUse">
<stop stop-color="#1183FF"/>
<stop offset="1" stop-color="#66AFFF"/>
</linearGradient>
<linearGradient id="paint11_linear_19213_84092" x1="181.132" y1="18.7339" x2="181.132" y2="59.8639" gradientUnits="userSpaceOnUse">
<stop stop-color="#1183FF"/>
<stop offset="1" stop-color="#66AFFF"/>
</linearGradient>
<linearGradient id="paint12_linear_19213_84092" x1="181.132" y1="18.7339" x2="181.132" y2="59.8639" gradientUnits="userSpaceOnUse">
<stop stop-color="#1183FF"/>
<stop offset="1" stop-color="#66AFFF"/>
</linearGradient>
</defs>
</svg>
