<svg width="120" height="69" viewBox="0 0 120 69" fill="none" xmlns="http://www.w3.org/2000/svg">
<path d="M67.0272 25.3891C67.0272 10.4942 77.1829 -3.69931e-06 92.0778 -2.39715e-06C107.988 -1.00621e-06 119.498 12.8638 119.498 33.1751C119.498 61.6109 100.541 83.6148 73.4591 87L73.4591 70.751C88.0156 68.0428 98.1712 58.9027 98.1712 47.0545C95.463 48.07 92.4163 48.7471 88.6926 48.7471C76.5058 48.7471 67.0272 39.9455 67.0272 25.3891ZM5.3862e-06 25.3891C6.68835e-06 10.4942 10.1556 -9.55902e-06 25.0506 -8.25686e-06C40.9611 -6.86592e-06 52.4708 12.8638 52.4708 33.1751C52.4708 61.6109 33.5136 83.6148 6.4319 87L6.4319 70.751C20.9883 68.0428 31.4825 58.9027 31.4825 46.7159C28.7743 48.07 25.7276 48.7471 22.0039 48.7471C9.81712 48.7471 4.11363e-06 39.9455 5.3862e-06 25.3891Z" fill="white" fill-opacity="0.3"/>
</svg>
