<svg width="293" height="84" viewBox="0 0 293 84" fill="none" xmlns="http://www.w3.org/2000/svg">
<rect width="292.613" height="84" rx="42" fill="black"/>
<path d="M52.4555 35.7925C52.4555 32.7268 50.9028 30.1938 48 28.0664H54.7468C55.9361 28.9723 56.8998 30.1412 57.5623 31.4815C58.2249 32.8218 58.5684 34.2973 58.566 35.7925C58.5684 37.2876 58.2249 38.7631 57.5623 40.1034C56.8998 41.4437 55.9361 42.6126 54.7468 43.5185C56.9374 44.432 58.1836 46.6616 58.1836 49.8527V55.9329H52.0747V49.8527C52.0747 46.8133 50.6241 44.686 48.0015 43.5201C50.9043 41.3912 52.4571 38.8597 52.4571 35.794L52.4555 35.7925ZM65.6952 35.7925C65.6952 32.7268 64.1424 30.1938 61.2397 28.0664H67.988C69.1771 28.9725 70.1404 30.1414 70.8027 31.4817C71.465 32.8221 71.8083 34.2974 71.8057 35.7925C71.8083 37.2875 71.465 38.7629 70.8027 40.1032C70.1404 41.4435 69.1771 42.6124 67.988 43.5185C70.1771 44.432 71.4249 46.6616 71.4249 49.8527V55.9329H65.3144V49.8527C65.3144 46.8133 63.8622 44.686 61.2397 43.5201C64.1424 41.3912 65.6952 38.8597 65.6952 35.794V35.7925ZM78.938 35.7925C78.938 32.7268 77.3852 30.1938 74.4824 28.0664H81.2292C82.4186 28.9723 83.3822 30.1412 84.0448 31.4815C84.7073 32.8218 85.0509 34.2973 85.0485 35.7925C85.0509 37.2876 84.7073 38.7631 84.0448 40.1034C83.3822 41.4437 82.4186 42.6126 81.2292 43.5185C83.4198 44.432 84.6661 46.6616 84.6661 49.8527V55.9329H78.5556V49.8527C78.5556 46.8133 77.105 44.686 74.4824 43.5201C77.3852 41.3912 78.938 38.8597 78.938 35.794V35.7925ZM99.0266 50.8699V33.1325H110.409C115.883 33.1325 118.581 35.1608 118.581 38.4788C118.581 40.7331 117.257 42.4301 114.788 43.2925C117.333 43.6718 118.479 45.0142 118.479 47.4218V50.8668H113.794V47.6247C113.794 45.5964 112.776 44.7866 110.102 44.7866H103.662V50.8699H99.0266ZM110.152 35.7166H103.659V42.204H110.1C112.443 42.204 113.893 40.9112 113.893 38.8844C113.893 36.8825 112.546 35.7166 110.152 35.7166ZM126.625 33.1325H121.992V50.8699H126.625V33.1325ZM140.833 45.0901H135.18V50.8668H130.545V33.1325H140.933C146.407 33.1325 149.285 35.4131 149.285 39.0625C149.285 42.8357 146.358 45.0901 140.833 45.0901ZM140.73 35.7166H135.18V42.5059H140.679C143.073 42.5059 144.55 41.2905 144.55 39.0873C144.55 36.9336 143.073 35.7166 140.73 35.7166ZM162.322 45.0901H156.67V50.8668H152.035V33.1325H162.423C167.897 33.1325 170.775 35.4131 170.775 39.0625C170.775 42.8357 167.846 45.0901 162.322 45.0901ZM162.22 35.7166H156.67V42.5059H162.169C164.562 42.5059 166.039 41.2905 166.039 39.0873C166.039 36.9336 164.562 35.7166 162.22 35.7166ZM178.158 33.1325V48.2316H189.718V50.8699H173.525V33.1325H178.158ZM197.251 33.1325H192.618V50.8699H197.251V33.1325ZM204.229 50.8699H201.173V33.1325H204.639L217.267 44.9383V33.1325H220.323V50.8699H216.86L204.229 39.0594V50.8699ZM235.448 35.2103C231.042 35.2103 228.166 37.9973 228.166 42.1514C228.166 46.2544 230.916 48.789 235.193 48.789H235.498C236.95 48.789 238.579 48.484 240.082 48.004V43.2151H232.597V40.682H244.613V49.0166C242.119 50.3094 238.35 51.3236 235.295 51.3236H234.888C227.86 51.3236 223.328 47.6231 223.328 42.252C223.328 36.932 227.988 32.6773 235.142 32.6773H235.549C238.529 32.6773 241.94 33.614 244.462 35.0833L243.137 37.2355C240.872 35.9953 238.172 35.2103 235.753 35.2103H235.448Z" fill="white"/>
</svg>
