<svg width="285" height="84" viewBox="0 0 285 84" fill="none" xmlns="http://www.w3.org/2000/svg">
<rect width="284.701" height="84" rx="42" fill="black"/>
<path d="M100.308 30.4037H109.158C114.8 30.4037 119.461 33.6682 119.461 41.1219V42.6882C119.461 50.1985 115.102 53.5762 109.328 53.5762H100.308V30.4037ZM105.252 34.6117V49.3493H109.045C112.253 49.3493 114.404 47.2547 114.404 42.5938V41.3672C114.404 36.7063 112.14 34.6117 108.875 34.6117H105.252ZM122.084 34.8382H126.047L126.688 39.1972C127.443 36.2346 129.368 34.6495 132.859 34.6495H134.086V39.6501H132.048C128.028 39.6501 127.047 41.0465 127.047 45.0092V53.6328H122.16V34.8382H122.084ZM135.067 44.6129V44.0845C135.067 37.8008 139.086 34.3664 144.559 34.3664C150.144 34.3664 154.05 37.8008 154.05 44.0845V44.6129C154.05 50.7834 150.257 54.1046 144.559 54.1046C138.501 54.048 135.067 50.8023 135.067 44.6129ZM149.05 44.5563V44.0845C149.05 40.5936 147.295 38.499 144.502 38.499C141.766 38.499 139.954 40.4237 139.954 44.0845V44.5563C139.954 47.9341 141.709 49.8588 144.502 49.8588C147.295 49.8022 149.05 47.9341 149.05 44.5563ZM156.617 34.8382H160.692L161.164 38.3858C162.145 36.0081 164.24 34.3664 167.335 34.3664C172.109 34.3664 175.26 37.8008 175.26 44.16V44.6884C175.26 50.8589 171.769 54.1235 167.335 54.1235C164.372 54.1235 162.334 52.7837 161.334 50.6325V60.1242H156.56L156.617 34.8382ZM170.297 44.5563V44.1412C170.297 40.4049 168.373 38.5556 165.806 38.5556C163.07 38.5556 161.259 40.6502 161.259 44.1412V44.4997C161.259 47.8208 163.013 49.9154 165.75 49.9154C168.561 49.8588 170.297 48.0661 170.297 44.5563ZM182.487 50.1607L182.072 53.5951H177.883V28.5544H182.657V38.1593C183.714 35.7062 185.809 34.3664 188.771 34.3664C193.262 34.423 196.583 37.5177 196.583 43.7449V44.3299C196.583 50.557 193.432 54.1235 188.658 54.1235C185.507 54.048 183.469 52.595 182.487 50.1607ZM191.564 44.3299V43.8581C191.564 40.4237 189.696 38.499 187.073 38.499C184.393 38.499 182.525 40.6502 182.525 43.9147V44.3299C182.525 47.8208 184.337 49.8588 187.016 49.8588C189.885 49.8588 191.564 48.0661 191.564 44.3299ZM198.678 44.6129V44.0845C198.678 37.8008 202.697 34.3664 208.17 34.3664C213.755 34.3664 217.661 37.8008 217.661 44.0845V44.6129C217.661 50.7834 213.812 54.1046 208.17 54.1046C202.112 54.048 198.678 50.8023 198.678 44.6129ZM212.699 44.5563V44.0845C212.699 40.5936 210.944 38.499 208.151 38.499C205.415 38.499 203.603 40.4237 203.603 44.0845V44.5563C203.603 47.9341 205.358 49.8588 208.151 49.8588C210.963 49.8022 212.699 47.9341 212.699 44.5563ZM224.058 43.8581L217.473 34.8382H223.115L226.908 40.4804L230.757 34.8382H236.343L229.663 43.8015L236.701 53.5951H231.172L226.87 47.368L222.681 53.5951H216.907L224.058 43.8581Z" fill="white"/>
<path d="M69.8894 30.4038L58.9447 37.3858L69.8894 44.3677L58.9447 51.3497L48 44.33L58.9447 37.348L48 30.4038L58.9447 23.4219L69.8894 30.4038ZM58.8881 53.5952L69.8328 46.6133L80.7774 53.5952L69.8328 60.5772L58.8881 53.5952ZM69.8894 44.33L80.834 37.348L69.8894 30.4038L80.7774 23.4219L91.7221 30.4038L80.7774 37.3858L91.7221 44.3677L80.7774 51.3497L69.8894 44.33Z" fill="white"/>
</svg>
