<svg width="246" height="84" viewBox="0 0 246 84" fill="none" xmlns="http://www.w3.org/2000/svg">
<rect width="245.254" height="84" rx="42" fill="black"/>
<path d="M100.175 55.4101V38.5102H100.476L112.777 55.4101H116.649V30.5923H112.347V47.4497H112.046L99.7448 30.5923H95.8737V55.4101H100.175ZM128.821 55.7932C134.499 55.7932 137.983 52.1323 137.983 46.0023C137.983 39.915 134.499 36.2115 128.821 36.2115C123.186 36.2115 119.659 39.915 119.659 46.0023C119.702 52.1323 123.143 55.7932 128.821 55.7932ZM128.821 52.2174C125.81 52.2174 124.09 49.9613 124.09 46.0023C124.09 42.086 125.81 39.7873 128.821 39.7873C131.832 39.7873 133.552 42.086 133.552 46.0023C133.552 49.9613 131.832 52.2174 128.821 52.2174ZM141.897 31.9971V36.7223H138.886V40.1278H141.897V50.3869C141.897 54.0479 143.617 55.4952 148.005 55.4952C148.822 55.4952 149.639 55.4101 150.284 55.2824V51.962C149.768 52.0046 149.424 52.0471 148.822 52.0471C147.015 52.0471 146.198 51.2383 146.198 49.3653V40.1278H150.284V36.7223H146.198V31.9971H141.897ZM152.865 55.4101H157.166V36.5946H152.865V55.4101ZM155.016 33.487C156.435 33.487 157.596 32.3377 157.596 30.9329C157.596 29.4855 156.435 28.3362 155.016 28.3362C153.596 28.3362 152.435 29.4855 152.435 30.9329C152.435 32.3377 153.596 33.487 155.016 33.487ZM168.951 55.7932C174.629 55.7932 178.113 52.1323 178.113 46.0023C178.113 39.915 174.629 36.2115 168.951 36.2115C163.317 36.2115 159.79 39.915 159.79 46.0023C159.79 52.1323 163.231 55.7932 168.951 55.7932ZM168.951 52.2174C165.941 52.2174 164.22 49.9613 164.22 46.0023C164.22 42.086 165.941 39.7873 168.951 39.7873C171.919 39.7873 173.683 42.086 173.683 46.0023C173.64 49.9613 171.919 52.2174 168.951 52.2174ZM180.651 55.4101H184.952V44.4698C184.952 41.7029 186.586 39.9575 189.124 39.9575C191.748 39.9575 192.952 41.4049 192.952 44.257V55.4101H197.254V43.2353C197.254 38.723 194.931 36.2115 190.716 36.2115C187.877 36.2115 185.984 37.4885 185.081 39.617H184.78V36.5946H180.608C180.651 36.5946 180.651 55.4101 180.651 55.4101Z" fill="white"/>
<path fill-rule="evenodd" clip-rule="evenodd" d="M54.6323 29.0039C55.8842 30.0138 56.337 29.9341 58.6809 29.7746L80.7619 28.4458C81.2413 28.4458 80.8418 27.9674 80.682 27.9142L77.0063 25.2831C76.3137 24.7516 75.3548 24.1137 73.5703 24.2732L52.2084 25.8412C51.436 25.921 51.2762 26.3196 51.5958 26.612L54.6323 29.0039ZM55.9641 34.1332V57.3084C55.9641 58.5575 56.5767 59.0093 57.9884 58.9296L82.2535 57.521C83.6652 57.4413 83.825 56.5908 83.825 55.5809V32.5652C83.825 31.5553 83.4255 30.9972 82.5731 31.0769L57.2159 32.5652C56.2837 32.6449 55.9641 33.1233 55.9641 34.1332ZM79.9095 35.3824C80.0694 36.0734 79.9095 36.7909 79.217 36.8707L78.045 37.1099V54.2255C77.0329 54.757 76.1006 55.0759 75.3016 55.0759C74.0497 55.0759 73.7301 54.6773 72.7978 53.5079L65.1534 41.5217V53.1092L67.5772 53.6408C67.5772 53.6408 67.5772 55.0494 65.6328 55.0494L60.2524 55.3683C60.0926 55.0494 60.2524 54.2786 60.7851 54.1192L62.1968 53.7205V38.4121L60.2524 38.2527C60.0926 37.5617 60.4921 36.5518 61.5842 36.472L67.3641 36.0734L75.3282 48.1925V37.482L73.3039 37.2428C73.1441 36.3923 73.7833 35.7544 74.5558 35.6747L79.9095 35.3824ZM50.4238 23.7151L72.6646 22.0939C75.3815 21.8547 76.1006 22.0141 77.8053 23.2633L84.8904 28.2332C86.0624 29.0836 86.4619 29.3228 86.4619 30.253V57.5476C86.4619 59.2485 85.8493 60.2584 83.6652 60.4179L57.8552 61.986C56.2038 62.0657 55.4314 61.8265 54.579 60.7368L49.3318 53.9597C48.3995 52.7106 48 51.7804 48 50.6907V26.4259C48 25.0173 48.6393 23.8745 50.4238 23.7151Z" fill="white"/>
</svg>
