<svg width="264" height="84" viewBox="0 0 264 84" fill="none" xmlns="http://www.w3.org/2000/svg">
<rect width="263.675" height="84" rx="42" fill="black"/>
<path d="M60.5756 29.508C67.5062 29.508 73.1513 35.153 73.1513 42.1395C73.1513 49.126 67.5062 54.771 60.5756 54.771C53.6451 54.771 48 49.1819 48 42.1395C48 35.0971 53.6451 29.508 60.5756 29.508ZM159.169 29.2285V51.3616C159.169 53.0384 159.839 53.4855 161.125 53.8209L161.181 54.1003H154.083V51.3616C153.244 53.3737 151.511 54.6034 149.276 54.6034C145.475 54.6034 142.96 51.1381 142.96 45.996C142.96 43.0897 143.798 40.6304 145.363 38.786C146.872 36.9975 148.94 36.0473 151.232 36.0473C152.35 36.0473 153.3 36.2709 154.083 36.7739V33.7557C154.083 33.085 153.915 32.6379 153.58 32.3026C153.132 31.9113 152.406 31.7436 151.288 31.8554H151.232V31.576L159.169 29.2285ZM186.109 36.1032V51.3616C186.109 53.0384 186.779 53.4855 188.065 53.8209V54.1003H180.966V51.3057C180.128 53.3179 178.284 54.6034 176.216 54.6034C173.756 54.6034 172.191 53.4855 171.577 51.3057L171.465 50.7468C171.353 50.1879 171.297 49.629 171.297 49.0701V40.9099C171.297 39.1214 170.906 38.5624 169.341 38.4507H169.285V38.1712L176.383 36.1032V48.9583C176.383 50.8586 177.222 51.9206 178.787 51.9206C179.737 51.9206 180.519 51.4175 180.966 50.5792V40.9099C180.966 39.0655 180.631 38.5065 179.346 38.3948H179.29V38.1153L186.109 36.1032ZM134.856 36.0473C136.756 36.0473 138.601 36.718 139.83 37.8917C141.227 39.2331 141.954 41.1893 142.01 43.7604V43.8163H131.335C131.111 47.5051 133.403 50.5233 136.421 50.635C138.601 50.8027 140.501 49.4613 141.563 47.2815L141.842 47.3933C141.227 51.4734 138.824 54.5475 134.632 54.5475C129.881 54.5475 127.199 50.5792 127.087 45.6048V44.3193C127.31 42.1395 127.981 40.1833 129.155 38.7301C129.881 37.8358 130.72 37.1651 131.726 36.718C132.564 36.2709 133.794 36.0473 134.8 36.0473H134.856ZM208.801 36.1032C211.819 36.1032 213.663 38.0035 213.663 41.2452V51.6411C213.663 52.8707 214.222 53.4855 215.619 53.8209H215.675V54.1003H208.521V41.4129C208.521 39.4008 207.794 38.3948 206.285 38.3948C205.056 38.3948 204.441 39.289 204.106 40.0715C204.162 40.4628 204.217 40.854 204.217 41.2452V51.8088C204.217 53.0943 204.609 53.5414 205.727 53.8209H205.782V54.1003H199.131V41.4129C199.131 39.4008 198.349 38.3948 196.896 38.3948C195.722 38.3948 195.107 39.2331 194.828 39.9038V51.8647C194.828 53.1502 195.219 53.5973 196.337 53.8768H196.393V54.1562H189.741V40.854C189.741 39.0655 189.294 38.5065 187.785 38.3948H187.729V38.1153L194.828 36.1591V39.1214C195.554 37.221 197.231 36.1032 199.355 36.1032C201.758 36.1032 203.435 37.2769 203.994 39.4008C204.72 37.3887 206.565 36.1032 208.801 36.1032ZM106.854 30.3464L113.505 45.9401L120.156 30.3464H127.31L127.254 30.6258L127.173 30.6439C125.941 30.9248 125.298 31.3857 125.298 32.9174V51.9206C125.41 53.1502 126.081 53.5414 127.254 53.8209H127.31V54.1003H118.2V53.8209H118.256C119.43 53.5414 120.1 53.1502 120.212 51.9206V33.4204L111.437 54.0444H110.934L102.383 33.9793V51.4734C102.383 53.0384 103.053 53.4855 104.339 53.765H104.395V54.0444H99.1409V53.765H99.1968C100.482 53.4855 101.153 53.0384 101.153 51.4734V32.9174C101.153 31.3524 100.482 30.9053 99.1968 30.6258H99.1409V30.3464H106.854ZM167.832 36.1032V51.3616L167.833 51.4648C167.86 53.057 168.529 53.4925 169.788 53.8209L169.844 54.1003H162.746V40.9099C162.746 39.1214 162.355 38.5624 160.79 38.4507H160.734V38.1712L167.832 36.1032ZM80.6967 30.2346C84.1061 30.2346 86.9565 35.6002 86.9565 42.1395C86.9565 48.7347 84.162 54.0444 80.6967 54.0444C77.2314 54.0444 74.4368 48.7347 74.4368 42.1395C74.4368 35.5443 77.2314 30.2346 80.6967 30.2346ZM90.3101 31.4642C91.5956 31.4642 92.5457 36.2709 92.5457 42.1395C92.5457 48.0081 91.5397 52.8148 90.3101 52.8148C89.0927 52.8148 88.0945 48.1038 88.0747 42.3152L88.0744 42.1395C88.0744 36.2709 89.0804 31.4642 90.3101 31.4642ZM152.07 37.0534C149.835 37.0534 148.437 40.0156 148.437 44.5987C148.437 46.7785 148.829 48.6788 149.499 49.9643C150.114 51.194 151.008 51.8647 152.015 51.8647C153.021 51.8647 153.747 51.4175 154.083 50.5792V38.283C153.691 37.5005 152.965 37.0534 152.07 37.0534ZM134.8 37.1093C132.788 37.1093 131.614 39.5126 131.446 42.8661V42.922H137.539C137.65 40.2951 137.203 38.5624 136.365 37.7241C135.918 37.3328 135.415 37.1093 134.8 37.1093ZM165.093 29.3962C166.714 29.3962 167.944 30.6258 167.944 32.2467C167.944 33.8675 166.714 35.0971 165.093 35.0971C163.472 35.0971 162.243 33.8675 162.243 32.2467C162.243 30.6258 163.472 29.3962 165.093 29.3962Z" fill="white"/>
</svg>
