<svg width="144" height="144" viewBox="0 0 144 144" fill="none" xmlns="http://www.w3.org/2000/svg">
<circle cx="71.9984" cy="71.9983" r="71.9983" fill="#080200"/>
<path fill-rule="evenodd" clip-rule="evenodd" d="M64.9181 41.2793C62.398 41.2793 60.3568 43.3182 60.3568 45.8325V60.0498H45.8437C43.3236 60.0498 41.2801 62.0887 41.2801 64.603V98.1646C41.2801 100.679 43.3236 102.718 45.8437 102.718H79.0807C81.6007 102.718 83.6443 100.679 83.6443 98.1646V83.9473H98.1574C100.677 83.9473 102.719 81.9084 102.719 79.3964V45.8325C102.719 45.2348 102.601 44.6429 102.372 44.0906C102.143 43.5383 101.807 43.0365 101.383 42.6138C100.96 42.1912 100.457 41.856 99.9033 41.6274C99.3497 41.3988 98.7565 41.2813 98.1574 41.2816L64.9181 41.2793ZM83.6443 83.9473V64.603C83.6443 62.0887 81.6007 60.0498 79.0807 60.0498H60.3568V79.3964C60.3568 81.9107 62.398 83.9473 64.9181 83.9473H83.6443Z" fill="#FFF5F2"/>
</svg>
