<svg width="245" height="84" viewBox="0 0 245 84" fill="none" xmlns="http://www.w3.org/2000/svg">
<rect width="244.761" height="84" rx="42" fill="black"/>
<path fill-rule="evenodd" clip-rule="evenodd" d="M116.026 46.7299C114.988 46.9695 114.45 46.6499 114.45 45.9619C114.45 45.0193 115.425 44.6419 116.817 44.6419C117.43 44.6419 118.008 44.6948 118.008 44.6948C118.008 45.0984 117.131 46.4753 116.026 46.7299ZM117.083 37.2922C113.758 37.2922 111.371 38.5149 111.371 38.5149V42.1091C111.371 42.1091 114.007 40.594 116.145 40.594C117.851 40.594 118.06 41.5144 117.983 42.2779C117.983 42.2779 117.491 42.1477 115.989 42.1477C112.45 42.1477 110.664 43.7562 110.664 46.3348C110.664 48.781 112.672 49.8032 114.363 49.8032C116.831 49.8032 117.916 48.1446 118.249 47.3579C118.48 46.8121 118.523 46.4441 118.73 46.4441C118.968 46.4441 118.888 46.7081 118.876 47.2513C118.856 48.2028 118.902 48.9219 119.052 49.5281H122.325V43.6419C122.325 39.9668 121.024 37.2922 117.083 37.2922Z" fill="white"/>
<path fill-rule="evenodd" clip-rule="evenodd" d="M138.621 43.5537C138.621 42.4786 139.621 41.4995 141.455 41.4995C143.454 41.4995 145.062 42.4621 145.423 42.6808V38.5199C145.423 38.5199 144.153 37.2968 141.03 37.2968C137.739 37.2968 134.998 39.2226 134.998 43.3679C134.998 47.5128 137.486 49.8114 141.022 49.8114C143.784 49.8114 145.43 48.2937 145.43 48.2937V44.3421C144.909 44.6332 143.458 45.6408 141.475 45.6408C139.376 45.6408 138.621 44.6746 138.621 43.5537ZM94.8836 37.5693C94.884 37.5719 95.0925 38.4662 94.8178 39.6355C94.6778 40.2302 94.4205 40.7359 94.7312 40.7359C94.9454 40.7359 94.9458 40.5581 95.2245 39.9208C95.632 38.9893 96.4911 37.2937 98.4987 37.2937C100.407 37.2937 101.306 38.4533 101.604 39.539C101.831 40.3639 101.632 40.7359 101.909 40.7359C102.105 40.7359 102.173 40.3079 102.415 39.7666C102.849 38.7968 103.794 37.2937 105.704 37.2937C108.586 37.2937 109.687 39.375 109.687 42.4972V49.5323H105.405V43.0466C105.405 41.9653 105.23 40.9164 104.244 40.9164C103.331 40.9164 102.905 42.535 102.905 43.5799V49.535H98.5449V43.047C98.5449 41.6635 98.3498 40.9168 97.3774 40.9168C96.5356 40.9168 96.0445 42.4061 96.0445 43.5804V49.5328H91.7014V37.5693H94.8836ZM123.75 37.5857C123.752 37.5866 124.491 38.0128 125.926 38.0128C127.363 38.0128 128.093 37.5857 128.093 37.5857V49.5354H123.75V37.5857ZM159.603 37.5857C159.605 37.5866 160.344 38.0128 161.779 38.0128C163.216 38.0128 163.946 37.5857 163.946 37.5857V49.5354H159.603V37.5857ZM133.841 33.9475V49.5354H129.498V33.9475H133.841ZM150.584 33.9475C150.584 33.9475 150.764 34.3968 150.764 35.7293C150.764 37.6968 150.336 39.2982 150.134 39.9084C150.027 40.2315 149.836 40.7301 150.11 40.739C150.268 40.7439 150.363 40.5057 150.557 40.0924C150.75 39.6786 151.706 37.2964 154.22 37.2964C157.683 37.2964 158.192 40.1319 158.192 43.2026V49.535H153.849V42.9426C153.849 41.5906 153.565 40.919 152.659 40.919C151.565 40.919 151.178 42.6133 151.178 43.583V49.535H146.835V33.9471L150.584 33.9475ZM168.595 37.5693C168.596 37.5719 168.804 38.4662 168.529 39.6355C168.389 40.2302 168.132 40.7359 168.443 40.7359C168.657 40.7359 168.657 40.5581 168.936 39.9208C169.343 38.9893 170.203 37.2937 172.21 37.2937C174.206 37.2937 174.997 38.4586 175.316 39.539C175.529 40.263 175.344 40.7359 175.62 40.7359C175.817 40.7359 175.885 40.3079 176.127 39.7666C176.56 38.7968 177.505 37.2937 179.416 37.2937C182.298 37.2937 183.398 39.375 183.398 42.4972V49.5323H179.116V43.0466C179.116 41.9653 178.942 40.9164 177.956 40.9164C177.043 40.9164 176.616 42.535 176.616 43.5799V49.535H172.256V43.047C172.256 41.6635 172.062 40.9168 171.089 40.9168C170.247 40.9168 169.756 42.4061 169.756 43.5804V49.5328H165.413V37.5693H168.595ZM125.908 33.8266C124.441 33.8266 123.25 34.6035 123.25 35.5617C123.25 36.5199 124.44 37.2968 125.908 37.2968C127.377 37.2968 128.567 36.5199 128.567 35.5617C128.567 34.6035 127.377 33.8266 125.908 33.8266ZM161.761 33.8266C160.293 33.8266 159.103 34.6035 159.103 35.5617C159.103 36.5199 160.293 37.2968 161.761 37.2968C163.229 37.2968 164.42 36.5199 164.42 35.5617C164.42 34.6035 163.23 33.8266 161.761 33.8266Z" fill="white"/>
<path fill-rule="evenodd" clip-rule="evenodd" d="M190.796 46.9575C189.801 46.9575 189.068 45.6948 189.068 43.9353C189.068 42.2264 189.82 40.914 190.762 40.914C191.97 40.914 192.485 42.022 192.485 43.9353C192.485 45.9259 192.01 46.9575 190.796 46.9575ZM191.988 37.2895C189.756 37.2895 188.733 38.9629 188.288 39.9162C187.994 40.546 188.01 40.7313 187.795 40.7313C187.485 40.7313 187.742 40.2255 187.882 39.6309C188.158 38.4598 187.948 37.5651 187.948 37.5651H184.768V52.8286H189.109V47.9895C189.622 48.861 190.574 49.7921 192.041 49.7921C195.181 49.7921 196.761 47.1357 196.761 43.5468C196.761 39.4793 194.87 37.2895 191.989 37.2895" fill="white"/>
<path fill-rule="evenodd" clip-rule="evenodd" d="M76.3488 40.9012C76.6408 40.8665 76.9203 40.8647 77.1776 40.9012C77.3265 40.5598 77.3519 39.9718 77.2181 39.3314C77.0194 38.3794 76.7501 37.8034 76.1936 37.8932C75.6372 37.983 75.6168 38.6727 75.8159 39.6243C75.9279 40.1598 76.127 40.6176 76.3488 40.9012Z" fill="white"/>
<path fill-rule="evenodd" clip-rule="evenodd" d="M71.575 41.6545C71.9727 41.8292 72.2176 41.9452 72.3132 41.8439C72.375 41.7808 72.3563 41.6603 72.2612 41.5052C72.0647 41.1848 71.6607 40.8594 71.2318 40.6768C70.3554 40.2994 69.3096 40.4248 68.503 41.0043C68.2367 41.1994 67.9843 41.4696 68.0203 41.6336C68.0319 41.6865 68.0719 41.7265 68.1652 41.7399C68.3848 41.7648 69.1519 41.3772 70.0359 41.323C70.6594 41.2848 71.1767 41.4799 71.575 41.6545Z" fill="white"/>
<path fill-rule="evenodd" clip-rule="evenodd" d="M70.776 42.1115C70.2574 42.1932 69.9716 42.3643 69.788 42.523C69.6316 42.6599 69.5347 42.8115 69.5356 42.9177C69.536 42.9683 69.5578 42.9977 69.5752 43.0123C69.5987 43.0332 69.6267 43.0448 69.6605 43.0448C69.7774 43.0448 70.04 42.9395 70.04 42.9395C70.7614 42.6812 71.2374 42.7128 71.7089 42.7661C71.9694 42.7955 72.0929 42.8115 72.1498 42.7221C72.1667 42.6963 72.1871 42.6408 72.1351 42.5563C72.0138 42.3595 71.4898 42.0266 70.776 42.1115Z" fill="white"/>
<path fill-rule="evenodd" clip-rule="evenodd" d="M74.7379 43.788C75.0899 43.9609 75.4774 43.8929 75.6036 43.6365C75.7299 43.38 75.5467 43.0316 75.1947 42.8587C74.8428 42.6858 74.4552 42.7538 74.329 43.0102C74.2028 43.2671 74.3859 43.6151 74.7379 43.788Z" fill="white"/>
<path fill-rule="evenodd" clip-rule="evenodd" d="M77.0013 41.8108C76.7155 41.8059 76.4782 42.1197 76.4715 42.5122C76.4648 42.9046 76.6915 43.2259 76.9773 43.2308C77.263 43.2357 77.5004 42.9219 77.507 42.5295C77.5137 42.1375 77.287 41.8157 77.0013 41.8108Z" fill="white"/>
<path fill-rule="evenodd" clip-rule="evenodd" d="M57.7925 48.8817C57.7214 48.7923 57.6045 48.8194 57.4912 48.8461C57.4121 48.8648 57.3228 48.8852 57.2245 48.8839C57.0143 48.8799 56.8361 48.7901 56.7361 48.6363C56.6059 48.4363 56.6134 48.1381 56.757 47.7968L56.8241 47.6439C57.0534 47.1292 57.437 46.2683 57.0063 45.4479C56.6819 44.8301 56.153 44.4457 55.517 44.3648C54.9063 44.2875 54.2779 44.5137 53.877 44.9559C53.2446 45.6537 53.1455 46.6034 53.2677 46.939C53.3126 47.0617 53.3828 47.0959 53.4334 47.103C53.541 47.1172 53.7001 47.039 53.7997 46.771L53.8281 46.6839C53.8726 46.5421 53.9552 46.2781 54.0908 46.0666C54.2543 45.8114 54.5086 45.6359 54.8072 45.5714C55.1112 45.5061 55.4223 45.5643 55.6828 45.735C56.1259 46.0248 56.2965 46.5679 56.1072 47.0857C56.0094 47.3537 55.8503 47.8661 55.8854 48.287C55.9565 49.139 56.4805 49.4812 56.9512 49.5176C57.409 49.535 57.729 49.2776 57.8099 49.0901C57.8574 48.979 57.8174 48.9114 57.7912 48.8825" fill="white"/>
<path fill-rule="evenodd" clip-rule="evenodd" d="M62.1466 33.233C63.6399 31.5076 65.4777 30.0077 67.1243 29.1654C67.1812 29.1361 67.2416 29.1979 67.211 29.2539C67.0803 29.4908 66.8283 29.9979 66.7488 30.3823C66.7363 30.4423 66.8017 30.4872 66.8523 30.453C67.8768 29.7548 69.6585 29.0063 71.2216 28.9103C71.2887 28.9063 71.3212 28.9921 71.2678 29.0334C71.0301 29.2157 70.7701 29.4681 70.5803 29.7232C70.5479 29.7668 70.5785 29.829 70.6327 29.8294C71.7301 29.8374 73.2772 30.2214 74.2856 30.7872C74.3536 30.8254 74.3052 30.9574 74.2287 30.9401C72.703 30.5903 70.2056 30.325 67.611 30.9579C65.295 31.5228 63.527 32.3952 62.2377 33.333C62.1723 33.3805 62.0937 33.2939 62.1466 33.233ZM69.583 49.9493L69.5834 49.9502L69.5843 49.952L69.583 49.9493ZM75.7403 50.676C75.7847 50.6573 75.8149 50.6071 75.81 50.5569C75.8038 50.4951 75.7487 50.4502 75.6869 50.4564C75.6869 50.4564 72.5007 50.928 69.4905 49.8262C69.8185 48.7605 70.6901 49.1453 72.0078 49.2516C74.3829 49.3933 76.5118 49.0462 78.0851 48.5947C79.4483 48.2036 81.2389 47.432 82.6296 46.3342C83.0984 47.3645 83.2642 48.4987 83.2642 48.4987C83.2642 48.4987 83.6273 48.4338 83.9309 48.6205C84.2176 48.7969 84.4278 49.1636 84.2842 50.112C83.9918 51.8835 83.2389 53.3218 81.9731 54.6449C81.2025 55.4742 80.2674 56.1951 79.1971 56.7195C78.6287 57.0182 78.0238 57.2764 77.3843 57.4848C72.6127 59.0435 67.7283 57.3302 66.1541 53.6511C66.0283 53.3746 65.9221 53.0849 65.8385 52.7822C65.1679 50.3578 65.7372 47.4489 67.5176 45.6178C67.6274 45.5014 67.7394 45.3631 67.7394 45.1902C67.7394 45.0458 67.6474 44.8934 67.5679 44.7849C66.9448 43.8814 64.787 42.3418 65.2203 39.3623C65.5314 37.2218 67.4034 35.7143 69.1487 35.8036L69.591 35.829C70.3474 35.8739 71.007 35.9707 71.6296 35.997C72.6718 36.0423 73.6087 35.8907 74.7189 34.9659C75.0932 34.6539 75.3936 34.3832 75.9016 34.2974C75.9549 34.2881 76.0878 34.2405 76.3532 34.253C76.6243 34.2676 76.882 34.3419 77.1136 34.4961C78.0034 35.0881 78.1296 36.5223 78.1758 37.5712C78.202 38.1698 78.2745 39.6187 78.2994 40.0347C78.3558 40.9858 78.606 41.1196 79.1118 41.2863C79.3962 41.38 79.6602 41.4498 80.0496 41.5592C81.2273 41.8898 81.9256 42.2254 82.366 42.6565C82.6287 42.9258 82.7509 43.212 82.7887 43.4849C82.9273 44.4983 82.002 45.7498 79.5518 46.8871C76.8736 48.1302 73.6243 48.4449 71.3794 48.1947L70.5927 48.1058C68.7972 47.864 67.7728 50.1844 68.8505 51.7747C69.5452 52.7995 71.4372 53.4662 73.3301 53.4666C77.67 53.4671 81.006 51.6138 82.2469 50.0133L82.346 49.872C82.4073 49.78 82.3567 49.7293 82.2807 49.7813C81.2669 50.4751 76.7638 53.2293 71.947 52.4004C71.947 52.4004 71.3616 52.304 70.8274 52.0964C70.403 51.9311 69.5141 51.5222 69.4061 50.6107C73.2932 51.8129 75.7403 50.676 75.7403 50.676ZM54.3897 41.4383C53.0377 41.7009 51.8462 42.4672 51.1177 43.5258C50.6822 43.1627 49.8711 42.4596 49.7275 42.1854C48.5644 39.9765 50.9969 35.6823 52.6964 33.257C56.8964 27.2637 63.4741 22.7273 66.519 23.5504C67.0141 23.6904 68.6536 25.5912 68.6536 25.5912C68.6536 25.5912 65.6097 27.2801 62.787 29.6343C58.9835 32.5628 56.111 36.8192 54.3897 41.4383ZM56.6613 51.5738C56.4568 51.6089 56.2479 51.6227 56.0373 51.6173C54.0031 51.5627 51.8062 49.7316 51.588 47.56C51.3466 45.1596 52.5733 43.3125 54.7448 42.8743C55.0044 42.8218 55.3182 42.7916 55.6564 42.8094C56.8733 42.876 58.6661 43.8103 59.0755 46.4609C59.4381 48.8084 58.8621 51.1987 56.6613 51.5738ZM84.2149 47.3231C84.1976 47.2613 84.0838 46.8467 83.9278 46.3467C83.7718 45.8462 83.6104 45.4947 83.6104 45.4947C84.2362 44.5583 84.2473 43.7205 84.1638 43.2463C84.0749 42.6583 83.83 42.1574 83.3367 41.6392C82.8433 41.1214 81.834 40.5907 80.4158 40.1925L79.6718 39.9858C79.6682 39.9552 79.6327 38.2316 79.6007 37.4916C79.5771 36.9565 79.5314 36.1214 79.2722 35.2992C78.9634 34.1859 78.4256 33.2116 77.754 32.5885C79.6074 30.6677 80.7642 28.5512 80.7611 26.7361C80.7558 23.245 76.4683 22.1886 71.1843 24.3766L70.0647 24.8517C70.0599 24.8468 68.0408 22.8659 68.0105 22.8393C61.9861 17.5846 43.1507 38.5209 49.1724 43.6058L50.4884 44.7209C50.1471 45.6054 50.0129 46.6187 50.1226 47.708C50.2631 49.1076 50.9849 50.4489 52.1551 51.4853C53.2657 52.4693 54.7262 53.0924 56.143 53.0911C58.4866 58.4915 63.8412 61.8044 70.1194 61.991C76.854 62.191 82.5073 59.0311 84.8762 53.3546C85.0313 52.9564 85.6887 51.1613 85.6887 49.5765C85.6887 47.984 84.7882 47.3231 84.2149 47.3231Z" fill="white"/>
</svg>
