<svg width="276" height="84" viewBox="0 0 276 84" fill="none" xmlns="http://www.w3.org/2000/svg">
<rect width="275.279" height="84" rx="42" fill="black"/>
<path d="M58.7237 49.7191V47.1005H50.9635V34.2514H48V49.7191H58.7237ZM66.1784 49.2318C66.82 48.7447 67.3088 48.1053 67.6449 47.3136V49.7191H70.4862V42.2592C70.4862 41.4676 70.3028 40.7368 69.9057 40.1279C69.5086 39.5189 68.928 39.0317 68.1948 38.6968C67.4616 38.3619 66.5755 38.1792 65.5674 38.1792C65.0174 38.1792 64.4675 38.2401 63.9481 38.3314C63.4288 38.4228 62.9399 38.575 62.4816 38.7577C62.0234 38.9404 61.5955 39.1535 61.229 39.3971L61.3206 42.0461C62.0234 41.5894 62.6954 41.2544 63.3676 41.0109C64.0398 40.7673 64.773 40.6455 65.5979 40.6455C66.2395 40.6455 66.7588 40.7978 67.1255 41.1022C67.4922 41.4067 67.6754 41.8025 67.6754 42.2897V43.0509H65.1091C63.5815 43.0509 62.3899 43.3553 61.5039 43.9948C60.618 44.6342 60.1903 45.5172 60.1903 46.6438C60.1903 47.2832 60.343 47.8313 60.618 48.3489C60.9235 48.8664 61.3206 49.2623 61.8706 49.5363C62.4205 49.8408 63.0621 49.9626 63.7648 49.9626C64.7424 49.9626 65.5368 49.7191 66.1784 49.2318ZM63.6121 47.3136C63.3065 47.07 63.1232 46.7351 63.1232 46.3089C63.1232 45.7912 63.337 45.3954 63.7953 45.1214C64.2231 44.8473 64.8952 44.6951 65.7507 44.6951H67.5838V45.1214C67.5838 45.4867 67.4922 45.8521 67.2783 46.248C67.0644 46.6438 66.7588 46.9788 66.3311 47.2528C65.9035 47.5268 65.4146 47.679 64.8646 47.679C64.3453 47.679 63.9176 47.5573 63.6121 47.3136ZM79.5296 49.2014C80.2018 48.6229 80.6906 47.8313 80.9961 46.8569V49.7191H83.8679V38.5141H80.9961V43.7512C80.9961 44.5125 80.8738 45.1822 80.6294 45.7608C80.3851 46.3393 80.049 46.8265 79.5907 47.1309C79.1324 47.4659 78.613 47.6181 78.0326 47.6181C77.391 47.6181 76.9021 47.4354 76.5355 47.07C76.1994 46.7046 76.0161 46.1566 76.0161 45.4564V38.5141H73.1442V45.5172C73.1442 46.9788 73.4803 48.0748 74.1829 48.8664C74.8857 49.6582 75.8022 50.054 76.9937 50.054C78.0326 50.054 78.8574 49.7799 79.5296 49.2014ZM89.8866 44.482C89.8866 43.7207 90.0089 43.0509 90.2533 42.4723C90.4977 41.8938 90.8337 41.4067 91.2616 41.1022C91.6893 40.7673 92.2086 40.615 92.7891 40.615C93.4307 40.615 93.9195 40.7978 94.2861 41.1632C94.6222 41.5284 94.8056 42.0766 94.8056 42.7768V49.7495H97.708V42.7464C97.708 41.2849 97.3719 40.1888 96.6692 39.3971C95.9665 38.6055 95.0499 38.2096 93.8584 38.2096C92.8502 38.2096 92.0253 38.5141 91.3532 39.0622C90.7116 39.6407 90.2227 40.4324 89.8866 41.4067V38.5446H87.0148V49.7495H89.8866V44.482ZM107.423 49.9626C107.79 49.9017 108.157 49.8103 108.462 49.7191C108.798 49.6277 109.073 49.5059 109.379 49.4146L109.409 46.7046C108.951 46.9483 108.462 47.1005 107.943 47.2223C107.423 47.344 106.904 47.405 106.385 47.405C105.621 47.405 104.949 47.2528 104.429 46.9788C103.91 46.7046 103.513 46.3089 103.268 45.7912C103.024 45.3041 102.902 44.7256 102.902 44.1166C102.902 43.5076 103.024 42.9596 103.268 42.4419C103.513 41.9548 103.91 41.5589 104.429 41.2544C104.949 40.9499 105.59 40.8282 106.324 40.8282C106.904 40.8282 107.423 40.889 107.943 41.0109C108.462 41.1327 108.921 41.3153 109.379 41.5284L109.348 38.7273C109.012 38.6055 108.707 38.4837 108.401 38.4228C108.096 38.3314 107.76 38.2705 107.362 38.2401C106.996 38.1792 106.599 38.1487 106.171 38.1487C104.888 38.1487 103.788 38.4228 102.841 38.9404C101.894 39.458 101.16 40.1888 100.641 41.0718C100.122 41.9852 99.8771 42.99 99.8771 44.1471C99.8771 45.2736 100.152 46.3089 100.672 47.1919C101.191 48.0748 101.924 48.7752 102.871 49.2623C103.818 49.7494 104.918 50.0236 106.171 50.0236C106.629 50.054 107.057 50.0236 107.423 49.9626ZM114.848 49.7191V44.482C114.848 43.7207 114.97 43.0509 115.214 42.4723C115.459 41.8938 115.795 41.4067 116.253 41.1022C116.711 40.7673 117.2 40.615 117.781 40.615C118.453 40.615 118.942 40.7978 119.278 41.1632C119.614 41.5284 119.797 42.0766 119.797 42.7768V49.7495H122.669V42.7464C122.669 41.2849 122.333 40.1888 121.63 39.3971C120.927 38.6055 120.011 38.2096 118.819 38.2096C117.811 38.2096 116.956 38.5141 116.314 39.0622C115.642 39.6407 115.153 40.4324 114.848 41.4067V34.2514H112.006V49.7191H114.848ZM131.957 49.7191C133.606 49.7191 135.012 49.4146 136.173 48.7752C137.334 48.1358 138.22 47.2528 138.831 46.0957C139.442 44.9387 139.747 43.5686 139.747 42.0157C139.747 40.4628 139.442 39.0926 138.831 37.9356C138.22 36.7786 137.334 35.8651 136.173 35.2257C135.012 34.5863 133.606 34.2818 131.957 34.2818H125.999V49.7495H131.957V49.7191ZM128.963 47.1005V36.8699H131.926C133.423 36.8699 134.584 37.3266 135.409 38.2096C136.265 39.1231 136.662 40.3714 136.662 41.9852C136.662 43.599 136.234 44.8777 135.409 45.7608C134.554 46.6438 133.393 47.1005 131.926 47.1005H128.963ZM147.263 49.2318C147.905 48.7447 148.394 48.1053 148.73 47.3136V49.7191H151.571V42.2592C151.571 41.4676 151.388 40.7368 150.991 40.1279C150.593 39.5189 150.013 39.0317 149.28 38.6968C148.546 38.3619 147.66 38.1792 146.652 38.1792C146.102 38.1792 145.552 38.2401 145.033 38.3314C144.514 38.4228 144.025 38.575 143.566 38.7577C143.108 38.9404 142.68 39.1535 142.314 39.3971L142.405 42.0461C143.108 41.5894 143.78 41.2544 144.452 41.0109C145.125 40.7673 145.858 40.6455 146.683 40.6455C147.324 40.6455 147.844 40.7978 148.21 41.1022C148.577 41.4067 148.76 41.8025 148.76 42.2897V43.0509H146.255C144.727 43.0509 143.536 43.3553 142.65 43.9948C141.764 44.6342 141.336 45.5172 141.336 46.6438C141.336 47.2832 141.489 47.8313 141.764 48.3489C142.069 48.8664 142.467 49.2623 143.016 49.5363C143.566 49.8408 144.208 49.9626 144.911 49.9626C145.858 49.9626 146.622 49.7191 147.263 49.2318ZM144.697 47.3136C144.391 47.07 144.208 46.7351 144.208 46.3089C144.208 45.7912 144.422 45.3954 144.88 45.1214C145.308 44.8473 145.98 44.6951 146.835 44.6951H148.669V45.1214C148.669 45.4867 148.577 45.8521 148.363 46.248C148.149 46.6438 147.844 46.9788 147.416 47.2528C146.988 47.5268 146.53 47.6485 145.98 47.6485C145.461 47.679 145.033 47.5573 144.697 47.3136ZM157.376 49.7191V44.9387C157.376 43.6903 157.651 42.7464 158.17 42.107C158.69 41.4676 159.423 41.1327 160.309 41.1327C160.737 41.1327 161.134 41.1935 161.5 41.3153V38.5446C161.317 38.4837 161.134 38.4532 160.95 38.4228C160.767 38.3923 160.553 38.3923 160.339 38.3923C159.637 38.3923 159.026 38.6359 158.537 39.1231C158.048 39.6103 157.651 40.3105 157.406 41.1632V38.4837H154.535V49.6886H157.376V49.7191ZM166.205 49.7191V46.0957L167.244 45.1214L170.605 49.7191H174.027L169.23 43.1727L173.935 38.5141H170.33L166.236 42.4723V34.2514H163.395V49.7191H166.205ZM178.641 49.7191V34.2514H175.768V49.7191H178.641ZM183.039 53.8904C184.108 53.8904 184.965 53.6773 185.636 53.251C186.308 52.8247 186.859 52.0636 187.316 50.9978L192.48 38.5141H189.516L186.492 46.3393L183.375 38.5141H180.412L185.026 49.6886L184.781 50.2671C184.628 50.6325 184.445 50.937 184.17 51.0892C183.926 51.2719 183.528 51.3632 183.008 51.3632H180.626V53.8904H183.039Z" fill="white"/>
<path d="M213.622 55.7782C213.408 55.7782 213.194 55.6565 213.072 55.4433C212.98 55.2302 212.98 55.0171 213.133 54.8343L219.641 45.913L208.245 50.5411C208.153 50.5716 208.092 50.602 208.001 50.602C207.725 50.602 207.481 50.4194 207.421 50.1757C207.329 49.9322 207.45 49.6581 207.664 49.506L217.686 43.6294L200.057 42.6246C199.691 42.5942 199.477 42.3201 199.477 42.0157C199.477 41.7416 199.66 41.4372 200.057 41.4067L217.686 40.4019L207.664 34.5254C207.45 34.3732 207.329 34.0991 207.421 33.8556C207.511 33.612 207.725 33.4293 208.001 33.4293C208.092 33.4293 208.153 33.4597 208.245 33.4902L219.641 38.1183L213.133 29.1665C213.011 28.9839 212.98 28.7403 213.072 28.5576C213.164 28.3444 213.378 28.2227 213.622 28.2227C213.775 28.2227 213.927 28.2836 214.049 28.4053L227.004 41.285C227.187 41.4676 227.279 41.7416 227.279 41.9852C227.279 42.2288 227.187 42.4724 227.004 42.6855L214.049 55.5956C213.927 55.7173 213.775 55.7782 213.622 55.7782Z" fill="white"/>
</svg>
