<svg width="243" height="84" viewBox="0 0 243 84" fill="none" xmlns="http://www.w3.org/2000/svg">
<rect width="242.536" height="84" rx="42" fill="black"/>
<path d="M90.991 34.8045H97.1404C100.547 34.8045 102.315 36.2012 102.315 38.8237V38.9544C102.364 39.7229 102.135 40.4833 101.67 41.0973C101.205 41.7114 100.536 42.1383 99.7831 42.3004C100.685 42.3797 101.518 42.8115 102.103 43.5019C102.689 44.1923 102.978 45.0857 102.908 45.988V46.0784C102.908 48.9421 101.029 50.4494 97.4218 50.4494H90.991V34.8045ZM96.5677 41.2252C98.2759 41.2252 98.9491 40.6123 98.9491 39.2156V39.1252C98.9491 37.8189 98.2055 37.2261 96.5476 37.2261H94.4475V41.2453L96.5677 41.2252ZM96.8691 47.9876C98.6175 47.9876 99.4113 47.1938 99.4113 45.777V45.6866C99.4113 44.2396 98.6175 43.5061 96.6983 43.5061H94.4475V47.9976L96.8691 47.9876Z" fill="white"/>
<path d="M103.833 47.2641C103.833 44.5914 106.274 43.5865 109.781 43.5865H111.067V43.1344C111.067 41.7779 110.655 41.0343 109.208 41.0343C108.974 41.0065 108.737 41.027 108.511 41.0944C108.285 41.1618 108.075 41.2747 107.894 41.4263C107.713 41.5778 107.566 41.7647 107.46 41.9756C107.354 42.1864 107.293 42.4166 107.279 42.6521H104.265C104.466 39.9391 106.606 38.7333 109.409 38.7333C112.213 38.7333 114.192 39.8688 114.192 42.9736V50.4293H111.107V49.0527C110.72 49.5982 110.198 50.0339 109.592 50.3175C108.987 50.601 108.318 50.7226 107.651 50.6704C105.581 50.6704 103.833 49.6656 103.833 47.2641ZM111.067 46.4302V45.4253H109.841C108.003 45.4253 106.937 45.8273 106.937 47.0431C106.937 47.8771 107.44 48.4297 108.595 48.4297C109.992 48.4699 111.067 47.6962 111.067 46.4302Z" fill="white"/>
<path d="M115.528 46.8421H118.482C118.613 47.8469 119.115 48.4699 120.492 48.4699C121.718 48.4699 122.291 48.0077 122.291 47.2139C122.291 46.4201 121.607 46.0986 119.97 45.8675C116.955 45.4052 115.749 44.5311 115.749 42.3004C115.749 40.0697 117.94 38.7333 120.271 38.7333C122.813 38.7333 124.712 39.6578 124.994 42.2803H122.09C121.919 41.3358 121.386 40.9037 120.301 40.9037C119.216 40.9037 118.683 41.386 118.683 42.0793C118.683 42.7727 119.226 43.0841 120.884 43.3253C123.748 43.7373 125.325 44.4607 125.325 46.9125C125.325 49.3642 123.537 50.6704 120.512 50.6704C117.488 50.6704 115.639 49.3139 115.528 46.8421Z" fill="white"/>
<path d="M126.139 44.8526V44.6818C126.101 43.8965 126.226 43.1119 126.507 42.3776C126.788 41.6434 127.219 40.9755 127.771 40.4162C128.324 39.857 128.987 39.4187 129.718 39.129C130.449 38.8393 131.232 38.7045 132.017 38.7333C134.971 38.7333 137.594 40.4616 137.594 44.5511V45.4253H129.385C129.465 47.3244 130.5 48.4397 132.218 48.4397C133.685 48.4397 134.409 47.8067 134.61 46.8421H137.624C137.252 49.3139 135.283 50.6905 132.158 50.6905C128.651 50.6704 126.139 48.5101 126.139 44.8526ZM134.509 43.476C134.409 41.7477 133.524 40.964 132.017 40.964C131.339 40.9608 130.685 41.2207 130.194 41.6891C129.703 42.1576 129.413 42.798 129.385 43.476H134.509Z" fill="white"/>
<path d="M138.428 44.8525V44.6817C138.39 43.8946 138.516 43.1083 138.798 42.3726C139.08 41.6369 139.512 40.968 140.067 40.4085C140.622 39.849 141.287 39.4111 142.02 39.1227C142.754 38.8342 143.539 38.7016 144.326 38.7332C146.979 38.7332 149.421 39.8887 149.712 43.1745H146.697C146.677 42.8924 146.601 42.6173 146.472 42.3654C146.344 42.1136 146.166 41.8901 145.95 41.7083C145.733 41.5264 145.482 41.39 145.212 41.307C144.942 41.224 144.658 41.1961 144.376 41.2251C142.739 41.2251 141.643 42.451 141.643 44.6415V44.8123C141.643 47.1133 142.648 48.2889 144.447 48.2889C144.753 48.3065 145.059 48.2631 145.348 48.1611C145.637 48.0591 145.903 47.9006 146.13 47.6949C146.358 47.4892 146.542 47.2403 146.672 46.9628C146.802 46.6852 146.876 46.3846 146.888 46.0783H149.752C149.581 48.7913 147.612 50.6703 144.286 50.6703C140.96 50.6703 138.428 48.5904 138.428 44.8525Z" fill="white"/>
<path d="M150.486 47.2641C150.486 44.5913 152.927 43.5865 156.424 43.5865H157.72V43.1344C157.72 41.7779 157.298 41.0343 155.861 41.0343C155.626 41.0035 155.386 41.0217 155.158 41.0878C154.929 41.1538 154.717 41.2663 154.534 41.4181C154.351 41.5699 154.201 41.7579 154.094 41.9702C153.987 42.1825 153.925 42.4147 153.912 42.6521H150.898C151.099 39.9391 153.239 38.7333 156.032 38.7333C158.826 38.7333 160.825 39.8687 160.825 42.9736V50.4293H157.74V49.0527C157.353 49.5981 156.831 50.0339 156.226 50.3174C155.62 50.601 154.951 50.7226 154.284 50.6704C152.274 50.6704 150.486 49.6656 150.486 47.2641ZM157.72 46.4301V45.4253H156.515C154.676 45.4253 153.601 45.8272 153.601 47.0431C153.601 47.877 154.113 48.4297 155.269 48.4297C156.685 48.4699 157.761 47.6962 157.761 46.4301H157.72Z" fill="white"/>
<path d="M163.056 38.9543H166.221V40.7027C166.566 40.0815 167.074 39.5661 167.69 39.212C168.306 38.858 169.007 38.6785 169.718 38.6931C170.396 38.6388 171.073 38.8052 171.649 39.1673C172.225 39.5295 172.668 40.068 172.913 40.7027C173.335 40.0724 173.908 39.5581 174.581 39.207C175.253 38.8559 176.003 38.6792 176.761 38.6931C178.881 38.6931 180.519 40.0295 180.519 43.064V50.389H177.374V43.4558C177.374 41.9888 176.721 41.3357 175.576 41.3357C175.271 41.3224 174.967 41.3751 174.684 41.49C174.402 41.605 174.147 41.7796 173.939 42.0018C173.73 42.2241 173.571 42.4888 173.474 42.7778C173.377 43.0669 173.343 43.3736 173.375 43.6769V50.4292H170.22V43.4558C170.22 41.9888 169.547 41.3357 168.431 41.3357C168.126 41.321 167.821 41.3725 167.537 41.4868C167.253 41.6011 166.998 41.7754 166.788 41.9978C166.578 42.2203 166.418 42.4855 166.32 42.7753C166.222 43.0651 166.189 43.3727 166.221 43.6769V50.4292H163.056V38.9543Z" fill="white"/>
<path d="M182.69 38.9543H185.865V40.7529C186.243 40.1238 186.778 39.6034 187.417 39.2425C188.057 38.8815 188.778 38.6922 189.512 38.6931C192.316 38.6931 194.536 40.773 194.536 44.5511V44.732C194.536 48.51 192.396 50.6302 189.512 50.6302C188.779 50.6603 188.051 50.4889 187.408 50.1346C186.765 49.7803 186.231 49.2567 185.865 48.6206V54.3279H182.69V38.9543ZM191.281 44.5812C191.281 42.2601 190.145 41.1247 188.548 41.1247C186.95 41.1247 185.754 42.2802 185.754 44.5812V44.7521C185.754 47.043 186.85 48.1584 188.578 48.1584C190.306 48.1584 191.281 46.9928 191.281 44.7923V44.5812Z" fill="white"/>
<path fill-rule="evenodd" clip-rule="evenodd" d="M67.4987 29.3434C58.5826 29.3434 53.9328 36.8955 51.3293 44.2769C51.0146 45.1692 50.0361 45.6375 49.1438 45.3227C48.5056 45.0976 48.0843 44.533 48.0113 43.9032C47.9823 43.6524 48.0084 43.3913 48.098 43.1373C50.7396 35.6476 56.1379 25.917 67.4987 25.917C73.437 25.917 77.6875 29.8456 80.4364 34.5652C83.1926 39.2973 84.6621 45.1567 84.9933 49.8876C85.0171 50.2276 84.9389 50.5671 84.7687 50.8624C83.1767 53.6259 80.5282 55.4269 77.5092 56.5299C74.4977 57.6302 71.0092 58.0797 67.5125 58.0808C64.5417 58.1272 61.5957 57.5326 58.8753 56.3376C56.1506 55.1407 53.7164 53.3697 51.7391 51.1455C51.3185 50.6723 51.193 50.0058 51.413 49.4121L51.4143 49.4086L51.4167 49.402L51.4251 49.3797L51.4554 49.2997C51.4816 49.2312 51.5195 49.133 51.5684 49.0094C51.666 48.7623 51.8077 48.4124 51.9869 47.9937C52.3436 47.16 52.8562 46.0364 53.4719 44.902C54.0795 43.7825 54.8266 42.579 55.6668 41.6308C56.4328 40.7664 57.6234 39.7133 59.1472 39.703L59.1588 39.7029C60.2357 39.7029 61.1202 40.1959 61.7569 40.6699C62.3987 41.1477 62.9815 41.7548 63.4486 42.2491C63.5022 42.3058 63.5542 42.361 63.6049 42.4147C64.0399 42.8759 64.3726 43.2286 64.6886 43.4927C64.7241 43.5224 64.7567 43.5486 64.7865 43.5717C64.8893 43.4667 65.0119 43.329 65.1531 43.154C65.6552 42.5315 66.2192 41.6546 66.765 40.7158C67.3036 39.7894 67.7938 38.8562 68.1512 38.1504C68.3293 37.7986 68.473 37.5061 68.5716 37.3026C68.6209 37.2009 68.6589 37.1216 68.6842 37.0685L68.7125 37.0088L68.7192 36.9946L68.7206 36.9916C69.1223 36.135 70.1425 35.7657 70.9991 36.1672C71.8559 36.5688 72.2248 37.5889 71.8232 38.4456L71.8195 38.4534L71.8106 38.4723L71.7777 38.5418C71.7492 38.6016 71.7077 38.6881 71.6547 38.7974C71.5488 39.016 71.3963 39.3263 71.2081 39.6981C70.8329 40.4391 70.3102 41.4351 69.7271 42.438C69.1513 43.4284 68.485 44.4808 67.82 45.3052C67.4902 45.714 67.1163 46.123 66.7121 46.4445C66.3547 46.7288 65.7244 47.1486 64.9164 47.1486C63.8479 47.1486 63.006 46.552 62.4915 46.122C62.0065 45.7167 61.5221 45.2017 61.1151 44.769C61.0614 44.7119 61.0091 44.6562 60.9582 44.6024C60.4758 44.0919 60.0814 43.6942 59.7109 43.4184C59.3861 43.1766 59.2203 43.1368 59.1727 43.1305C59.1727 43.1305 59.1693 43.1318 59.1663 43.1328C59.1139 43.1513 58.7992 43.2623 58.2313 43.9032C57.6425 44.5677 57.04 45.5107 56.4833 46.5364C55.9347 47.5473 55.4682 48.5677 55.137 49.3417C55.0943 49.4414 55.054 49.5368 55.0161 49.6272C56.5239 51.1296 58.2991 52.3421 60.2533 53.2006C62.5265 54.1991 64.9884 54.6951 67.4708 54.6547L67.4987 54.6545C70.7397 54.6545 73.8074 54.2345 76.3334 53.3116C78.6573 52.4625 80.43 51.225 81.532 49.5822C81.1585 45.372 79.8174 40.3104 77.4757 36.2897C75.0247 32.0817 71.6989 29.3434 67.4987 29.3434ZM64.5049 43.8151C64.5049 43.8151 64.5124 43.8094 64.5267 43.8021C64.512 43.8121 64.5049 43.8151 64.5049 43.8151Z" fill="white"/>
</svg>
