<svg width="297" height="84" viewBox="0 0 297 84" fill="none" xmlns="http://www.w3.org/2000/svg">
<rect width="296.7" height="84" rx="42" fill="black"/>
<g clip-path="url(#clip0_20226_85176)">
<path d="M59.0945 24L68.3953 31.946C68.9474 32.4177 69.2657 33.11 69.2657 33.8391L69.2657 39.8276L59.965 31.8816C59.4127 31.4099 59.0945 30.7176 59.0945 29.9885L59.0945 24Z" fill="white"/>
<path d="M59.0947 59.9995L68.3955 52.0534C68.9477 51.5818 69.2659 50.8895 69.2659 50.1604L69.2659 44.1719L59.9652 52.1179C59.413 52.5896 59.0947 53.2819 59.0947 54.0109L59.0947 59.9995Z" fill="white"/>
<path d="M47.9995 32.3799L57.1738 40.174C57.6185 40.5519 58.1818 40.7592 58.7638 40.7592H66.1624L57.0108 32.9669C56.5657 32.5878 56.0016 32.3799 55.4186 32.3799H47.9995Z" fill="white"/>
<path d="M47.9993 51.6206L57.1171 43.8309C57.5627 43.4502 58.128 43.2412 58.7123 43.2412H66.1842L57.01 51.0353C56.5652 51.4132 56.0019 51.6206 55.4199 51.6206H47.9993Z" fill="white"/>
<path d="M81.9041 24L72.6033 31.946C72.0512 32.4177 71.7329 33.11 71.7329 33.8391L71.7329 39.8276L81.0336 31.8816C81.5858 31.4099 81.9041 30.7176 81.9041 29.9885L81.9041 24Z" fill="white"/>
<path d="M81.9043 60.0004L72.6035 52.0544C72.0514 51.5827 71.7332 50.8905 71.7332 50.1614L71.7332 44.1729L81.0338 52.1189C81.5861 52.5906 81.9043 53.2828 81.9043 54.0119L81.9043 60.0004Z" fill="white"/>
<path d="M92.9988 32.3799L83.8246 40.174C83.3798 40.5519 82.8165 40.7592 82.2346 40.7592H74.8359L83.9876 32.9669C84.4327 32.5878 84.9968 32.3799 85.5797 32.3799H92.9988Z" fill="white"/>
<path d="M92.9992 51.6206L83.8813 43.8309C83.4358 43.4502 82.8704 43.2412 82.2861 43.2412H74.8142L83.9884 51.0353C84.4332 51.4132 84.9964 51.6206 85.5785 51.6206H92.9992Z" fill="white"/>
<path d="M167.498 33.6021C166.903 33.6021 166.404 33.4007 166.001 32.9978C165.598 32.5949 165.397 32.096 165.397 31.5013C165.397 30.9065 165.598 30.4077 166.001 30.0047C166.404 29.6018 166.903 29.4004 167.498 29.4004C168.074 29.4004 168.563 29.6018 168.966 30.0047C169.369 30.4077 169.571 30.9065 169.571 31.5013C169.571 32.096 169.369 32.5949 168.966 32.9978C168.563 33.4007 168.074 33.6021 167.498 33.6021Z" fill="white"/>
<path d="M169.11 35.7021L169.11 51.5594H165.828L165.828 35.7021H169.11Z" fill="white"/>
<path fill-rule="evenodd" clip-rule="evenodd" d="M177.965 36.1926C177.006 36.6915 176.247 37.3054 175.691 38.0344L175.691 35.7034H172.409L172.409 59.1007H175.691L175.691 49.2583C176.286 49.9873 177.053 50.6013 177.994 51.1002C178.934 51.5798 180.009 51.8197 181.218 51.8197C182.599 51.8197 183.857 51.4743 184.989 50.7836C186.14 50.0737 187.042 49.0953 187.694 47.8481C188.347 46.5818 188.672 45.1525 188.672 43.5601C188.672 41.9676 188.347 40.5574 187.694 39.3295C187.042 38.1016 186.14 37.1519 184.989 36.4804C183.857 35.7897 182.599 35.4443 181.218 35.4443C180.009 35.4443 178.925 35.6938 177.965 36.1926ZM184.643 40.7397C185.104 41.5264 185.333 42.4664 185.333 43.5601C185.333 44.6537 185.104 45.613 184.643 46.4379C184.201 47.263 183.606 47.8961 182.858 48.3374C182.129 48.7595 181.342 48.9705 180.498 48.9705C179.672 48.9705 178.886 48.7595 178.138 48.3374C177.408 47.9153 176.813 47.3013 176.353 46.4955C175.911 45.6705 175.691 44.7112 175.691 43.6176C175.691 42.524 175.911 41.5743 176.353 40.7685C176.813 39.9627 177.408 39.3487 178.138 38.9266C178.886 38.5045 179.672 38.2935 180.498 38.2935C181.342 38.2935 182.129 38.5045 182.858 38.9266C183.606 39.3295 184.201 39.9339 184.643 40.7397Z" fill="white"/>
<path d="M196.667 51.8197C195.42 51.8197 194.298 51.599 193.299 51.1577C192.321 50.6973 191.544 50.0833 190.968 49.3159C190.392 48.5293 190.086 47.6563 190.047 46.6969H193.443C193.501 47.3684 193.818 47.9344 194.394 48.395C194.989 48.8362 195.728 49.0568 196.61 49.0568C197.531 49.0568 198.241 48.8842 198.74 48.5388C199.258 48.1743 199.518 47.7139 199.518 47.1575C199.518 46.5627 199.23 46.1214 198.654 45.8336C198.097 45.5458 197.205 45.2292 195.977 44.8839C194.787 44.5577 193.818 44.2411 193.069 43.9342C192.321 43.6272 191.669 43.1572 191.112 42.524C190.575 41.8909 190.306 41.0563 190.306 40.0202C190.306 39.176 190.555 38.4086 191.055 37.7179C191.553 37.008 192.264 36.4516 193.184 36.0487C194.125 35.6458 195.199 35.4443 196.408 35.4443C198.213 35.4443 199.662 35.9048 200.755 36.8257C201.868 37.7275 202.463 38.965 202.54 40.5382H199.258C199.201 39.8283 198.913 39.2624 198.394 38.8403C197.877 38.4182 197.176 38.2072 196.294 38.2072C195.43 38.2072 194.767 38.3702 194.307 38.6964C193.847 39.0226 193.616 39.4542 193.616 39.9914C193.616 40.4135 193.77 40.7685 194.077 41.0563C194.384 41.3441 194.758 41.5743 195.199 41.7469C195.641 41.9005 196.294 42.1019 197.157 42.3513C198.308 42.6583 199.248 42.9749 199.977 43.3011C200.726 43.6081 201.369 44.0685 201.906 44.6825C202.443 45.2964 202.722 46.1118 202.741 47.1287C202.741 48.0304 202.492 48.8362 201.993 49.5461C201.494 50.256 200.784 50.8124 199.862 51.2153C198.96 51.6181 197.896 51.8197 196.667 51.8197Z" fill="white"/>
<path d="M245.505 36.2204C244.526 35.7024 243.414 35.4434 242.167 35.4434C240.996 35.4434 239.902 35.7312 238.885 36.3067C237.868 36.8631 237.119 37.621 236.64 38.5803C236.102 37.5634 235.335 36.7864 234.336 36.2492C233.339 35.712 232.207 35.4434 230.94 35.4434C230 35.4434 229.117 35.6256 228.292 35.9902C227.467 36.3547 226.785 36.8631 226.248 37.5154L226.248 35.7024H222.967L222.967 51.5597H226.248L226.248 42.6957C226.248 41.2759 226.604 40.1919 227.313 39.4437C228.043 38.6763 229.021 38.2925 230.25 38.2925C231.477 38.2925 232.447 38.6763 233.157 39.4437C233.867 40.1919 234.221 41.2759 234.221 42.6957L234.221 51.5597H237.475L237.475 42.6957C237.475 41.2759 237.829 40.1919 238.54 39.4437C239.269 38.6763 240.248 38.2925 241.475 38.2925C242.704 38.2925 243.673 38.6763 244.383 39.4437C245.092 40.1919 245.448 41.2759 245.448 42.6957L245.448 51.5597H248.701L248.701 42.2065C248.701 40.7675 248.413 39.5396 247.837 38.5227C247.28 37.5059 246.504 36.7385 245.505 36.2204Z" fill="white"/>
<path d="M219.645 51.5594L219.645 35.7021H216.363L216.363 44.5374C216.363 45.9571 215.998 47.0507 215.269 47.8181C214.559 48.5664 213.59 48.9405 212.362 48.9405C211.133 48.9405 210.165 48.5664 209.455 47.8181C208.745 47.0507 208.389 45.9571 208.389 44.5374L208.389 35.7021H205.137L205.137 45.0266C205.137 46.4655 205.415 47.6934 205.972 48.7103C206.547 49.7271 207.325 50.4946 208.303 51.0126C209.301 51.5306 210.423 51.7896 211.671 51.7896C212.611 51.7896 213.494 51.6074 214.319 51.2428C215.164 50.8591 215.845 50.3411 216.363 49.6888L216.363 51.5594H219.645Z" fill="white"/>
<path fill-rule="evenodd" clip-rule="evenodd" d="M151.3 50.8114C152.509 51.4829 153.862 51.8187 155.358 51.8187C156.875 51.8187 158.256 51.4829 159.504 50.8114C160.77 50.1207 161.768 49.1518 162.497 47.9047C163.226 46.6576 163.591 45.2282 163.591 43.6166C163.591 42.005 163.236 40.5756 162.526 39.3286C161.816 38.0814 160.847 37.1221 159.619 36.4506C158.39 35.7791 157.019 35.4434 155.502 35.4434C153.987 35.4434 152.614 35.7791 151.386 36.4506C150.158 37.1221 149.189 38.0814 148.479 39.3286C147.769 40.5756 147.414 42.005 147.414 43.6166C147.414 45.2474 147.76 46.6864 148.45 47.9335C149.141 49.1614 150.091 50.1207 151.3 50.8114ZM157.719 48.3652C156.99 48.768 156.203 48.9695 155.358 48.9695C154.034 48.9695 152.931 48.5091 152.048 47.5881C151.185 46.648 150.753 45.3242 150.753 43.6166C150.753 42.4654 150.964 41.4966 151.386 40.71C151.809 39.9041 152.375 39.2998 153.084 38.8968C153.814 38.494 154.601 38.2925 155.445 38.2925C156.289 38.2925 157.076 38.494 157.805 38.8968C158.534 39.2998 159.119 39.9041 159.561 40.71C160.002 41.4966 160.223 42.4654 160.223 43.6166C160.223 44.7678 159.992 45.7463 159.533 46.5521C159.072 47.3579 158.467 47.9623 157.719 48.3652Z" fill="white"/>
<path fill-rule="evenodd" clip-rule="evenodd" d="M134.018 50.848C133.996 50.836 133.974 50.8237 133.952 50.8114C132.743 50.1207 131.793 49.1614 131.102 47.9335C130.411 46.6864 130.066 45.2474 130.066 43.6166C130.066 42.005 130.421 40.5756 131.131 39.3286C131.841 38.0814 132.81 37.1221 134.038 36.4506C135.266 35.7791 136.638 35.4434 138.154 35.4434C139.67 35.4434 141.042 35.7791 142.271 36.4506C143.499 37.1221 144.468 38.0814 145.178 39.3286C145.888 40.5756 146.243 42.005 146.243 43.6166C146.243 45.2282 145.878 46.6576 145.149 47.9047C144.42 49.1518 143.422 50.1207 142.156 50.8114C141.083 51.3888 139.911 51.7181 138.639 51.7989C140.197 52.5115 142.567 53.0869 143.897 53.4099C144.467 53.5482 144.846 53.6402 144.89 53.677L144.892 53.6775L144.892 56.9606H132.937L132.937 53.6775H139.826C138.073 53.2817 135.693 51.9827 134.018 50.848ZM138.01 48.9695C138.855 48.9695 139.641 48.768 140.371 48.3652C141.119 47.9623 141.724 47.3579 142.185 46.5521C142.644 45.7463 142.875 44.7678 142.875 43.6166C142.875 42.4654 142.654 41.4966 142.213 40.71C141.771 39.9041 141.186 39.2998 140.457 38.8968C139.728 38.494 138.941 38.2925 138.097 38.2925C137.252 38.2925 136.466 38.494 135.736 38.8968C135.026 39.2998 134.46 39.9041 134.038 40.71C133.616 41.4966 133.405 42.4654 133.405 43.6166C133.405 45.3242 133.836 46.648 134.7 47.5881C135.583 48.5091 136.686 48.9695 138.01 48.9695Z" fill="white"/>
<path fill-rule="evenodd" clip-rule="evenodd" d="M116.603 50.8114C117.812 51.4829 119.165 51.8187 120.662 51.8187C122.178 51.8187 123.56 51.4829 124.807 50.8114C126.073 50.1207 127.071 49.1518 127.801 47.9047C128.53 46.6576 128.894 45.2282 128.894 43.6166C128.894 42.005 128.539 40.5756 127.829 39.3286C127.119 38.0814 126.15 37.1221 124.922 36.4506C123.694 35.7791 122.322 35.4434 120.806 35.4434C119.29 35.4434 117.918 35.7791 116.69 36.4506C115.461 37.1221 114.492 38.0814 113.782 39.3286C113.072 40.5756 112.717 42.005 112.717 43.6166C112.717 45.2474 113.063 46.6864 113.754 47.9335C114.444 49.1614 115.394 50.1207 116.603 50.8114ZM123.022 48.3652C122.293 48.768 121.506 48.9695 120.662 48.9695C119.338 48.9695 118.234 48.5091 117.352 47.5881C116.488 46.648 116.056 45.3242 116.056 43.6166C116.056 42.4654 116.267 41.4966 116.69 40.71C117.112 39.9041 117.678 39.2998 118.388 38.8968C119.117 38.494 119.904 38.2925 120.748 38.2925C121.593 38.2925 122.379 38.494 123.109 38.8968C123.838 39.2998 124.423 39.9041 124.864 40.71C125.306 41.4966 125.527 42.4654 125.527 43.6166C125.527 44.7678 125.296 45.7463 124.836 46.5521C124.375 47.3579 123.771 47.9623 123.022 48.3652Z" fill="white"/>
<path d="M105.281 48.9124H112.046L112.046 51.5601H102L102 31.5586H105.281L105.281 48.9124Z" fill="white"/>
</g>
<defs>
<clipPath id="clip0_20226_85176">
<rect width="200.7" height="36" fill="white" transform="translate(48 24)"/>
</clipPath>
</defs>
</svg>
