<svg width="265" height="84" viewBox="0 0 265 84" fill="none" xmlns="http://www.w3.org/2000/svg">
<rect width="264.358" height="84" rx="42" fill="black"/>
<path fill-rule="evenodd" clip-rule="evenodd" d="M48.0122 42.0003C59.6652 42.0003 66.3414 35.32 66.3343 23.667C66.3414 35.32 73.0259 42.0003 84.6789 42.0003C73.0259 42.0003 66.3496 48.6807 66.3568 60.3337C66.3496 48.6807 59.6652 42.0003 48.0122 42.0003Z" fill="white"/>
<path d="M91.9257 50.258L98.315 32.758H101.915L108.326 50.258H104.926L103.523 46.208H96.6982L95.2757 50.258H91.9257ZM97.5717 43.708H102.647L100.092 36.433L97.5717 43.708Z" fill="white"/>
<path d="M114.744 50.558C113.478 50.558 112.361 50.283 111.394 49.733C110.427 49.183 109.66 48.4163 109.092 47.433C108.542 46.4497 108.266 45.3247 108.265 44.058C108.264 42.7913 108.539 41.6663 109.088 40.683C109.654 39.6997 110.42 38.933 111.387 38.383C112.353 37.833 113.47 37.558 114.736 37.558C116.32 37.558 117.653 37.9747 118.737 38.808C119.821 39.6247 120.513 40.758 120.814 42.208H117.439C117.272 41.608 116.938 41.1413 116.438 40.808C115.955 40.458 115.38 40.283 114.713 40.283C113.83 40.283 113.08 40.6163 112.464 41.283C111.847 41.9497 111.54 42.8747 111.54 44.058C111.541 45.2413 111.85 46.1663 112.467 46.833C113.084 47.4997 113.834 47.833 114.718 47.833C115.384 47.833 115.959 47.6663 116.442 47.333C116.942 46.9997 117.275 46.5247 117.441 45.908H120.816C120.517 47.308 119.826 48.433 118.743 49.283C117.661 50.133 116.328 50.558 114.744 50.558Z" fill="white"/>
<path d="M122.409 50.258L122.402 37.858H125.227L125.503 39.533C125.902 38.933 126.427 38.458 127.077 38.108C127.743 37.7413 128.51 37.558 129.377 37.558C131.293 37.558 132.652 38.2997 133.453 39.783C133.902 39.0997 134.502 38.558 135.252 38.158C136.018 37.758 136.852 37.558 137.752 37.558C139.368 37.558 140.61 38.0413 141.477 39.008C142.345 39.9747 142.779 41.3913 142.78 43.258L142.784 50.258H139.584L139.58 43.558C139.58 42.4913 139.371 41.6747 138.954 41.108C138.553 40.5413 137.928 40.258 137.078 40.258C136.211 40.258 135.512 40.5747 134.979 41.208C134.462 41.8413 134.205 42.7247 134.205 43.858L134.209 50.258H131.009L131.005 43.558C131.005 42.4913 130.796 41.6747 130.379 41.108C129.962 40.5413 129.32 40.258 128.453 40.258C127.603 40.258 126.912 40.5747 126.379 41.208C125.862 41.8413 125.605 42.7247 125.605 43.858L125.609 50.258H122.409Z" fill="white"/>
<path d="M150.598 50.558C149.348 50.558 148.239 50.2913 147.272 49.758C146.305 49.2247 145.546 48.4747 144.996 47.508C144.445 46.5413 144.169 45.4247 144.169 44.158C144.168 42.8747 144.434 41.733 144.967 40.733C145.516 39.733 146.265 38.958 147.215 38.408C148.181 37.8413 149.315 37.558 150.615 37.558C151.831 37.558 152.906 37.8247 153.84 38.358C154.774 38.8913 155.499 39.6247 156.016 40.558C156.55 41.4747 156.818 42.4997 156.818 43.633C156.818 43.8163 156.81 44.008 156.794 44.208C156.794 44.408 156.786 44.6163 156.769 44.833H147.344C147.411 45.7997 147.745 46.558 148.345 47.108C148.962 47.658 149.704 47.933 150.571 47.933C151.221 47.933 151.763 47.7913 152.196 47.508C152.646 47.208 152.979 46.8247 153.195 46.358H156.445C156.212 47.1413 155.821 47.858 155.271 48.508C154.738 49.1413 154.072 49.6413 153.272 50.008C152.489 50.3747 151.598 50.558 150.598 50.558ZM150.616 40.158C149.833 40.158 149.141 40.383 148.542 40.833C147.942 41.2663 147.559 41.933 147.393 42.833H153.568C153.517 42.0163 153.217 41.3663 152.667 40.883C152.116 40.3997 151.433 40.158 150.616 40.158Z" fill="white"/>
<path d="M170.971 50.558C169.204 50.558 167.687 50.183 166.42 49.433C165.153 48.6663 164.178 47.608 163.493 46.258C162.809 44.8913 162.467 43.3163 162.465 41.533C162.464 39.7497 162.805 38.1747 163.488 36.808C164.17 35.4413 165.144 34.3747 166.411 33.608C167.677 32.8413 169.193 32.458 170.96 32.458C173.06 32.458 174.777 32.983 176.111 34.033C177.462 35.0663 178.304 36.5247 178.639 38.408H175.114C174.896 37.458 174.429 36.7163 173.712 36.183C173.012 35.633 172.078 35.358 170.912 35.358C169.295 35.358 168.029 35.908 167.113 37.008C166.197 38.108 165.739 39.6163 165.74 41.533C165.742 43.4497 166.201 44.958 167.118 46.058C168.036 47.1413 169.303 47.683 170.919 47.683C172.086 47.683 173.019 47.433 173.719 46.933C174.435 46.4163 174.901 45.708 175.117 44.808H178.642C178.31 46.608 177.469 48.0163 176.12 49.033C174.787 50.0497 173.071 50.558 170.971 50.558Z" fill="white"/>
<path d="M186.104 50.558C184.904 50.558 183.82 50.283 182.853 49.733C181.903 49.183 181.144 48.4247 180.577 47.458C180.026 46.4747 179.75 45.3413 179.75 44.058C179.749 42.7747 180.031 41.6497 180.598 40.683C181.164 39.6997 181.921 38.933 182.871 38.383C183.837 37.833 184.921 37.558 186.121 37.558C187.304 37.558 188.371 37.833 189.321 38.383C190.288 38.933 191.047 39.6997 191.598 40.683C192.165 41.6497 192.449 42.7747 192.45 44.058C192.45 45.3413 192.168 46.4747 191.602 47.458C191.052 48.4247 190.294 49.183 189.328 49.733C188.362 50.283 187.287 50.558 186.104 50.558ZM186.102 47.783C186.935 47.783 187.66 47.4747 188.276 46.858C188.893 46.2247 189.2 45.2913 189.2 44.058C189.199 42.8247 188.89 41.8997 188.273 41.283C187.656 40.6497 186.939 40.333 186.122 40.333C185.272 40.333 184.539 40.6497 183.923 41.283C183.323 41.8997 183.024 42.8247 183.025 44.058C183.025 45.2913 183.326 46.2247 183.926 46.858C184.543 47.4747 185.269 47.783 186.102 47.783Z" fill="white"/>
<path d="M194.065 50.258L194.057 37.858H196.907L197.208 40.183C197.658 39.383 198.266 38.7497 199.032 38.283C199.815 37.7997 200.732 37.558 201.782 37.558L201.784 40.933H200.884C200.184 40.933 199.559 41.0413 199.009 41.258C198.459 41.4747 198.026 41.8497 197.71 42.383C197.41 42.9163 197.261 43.658 197.261 44.608L197.265 50.258H194.065Z" fill="white"/>
<path d="M202.73 55.758L202.719 37.858H205.569L205.92 39.633C206.32 39.083 206.845 38.5997 207.494 38.183C208.161 37.7663 209.019 37.558 210.069 37.558C211.236 37.558 212.277 37.8413 213.194 38.408C214.111 38.9747 214.837 39.7497 215.371 40.733C215.905 41.7163 216.172 42.833 216.173 44.083C216.174 45.333 215.908 46.4497 215.375 47.433C214.842 48.3997 214.118 49.1663 213.201 49.733C212.285 50.283 211.244 50.558 210.077 50.558C209.144 50.558 208.327 50.383 207.627 50.033C206.926 49.683 206.359 49.1913 205.926 48.558L205.93 55.758H202.73ZM209.4 47.758C210.417 47.758 211.258 47.4163 211.925 46.733C212.591 46.0497 212.924 45.1663 212.923 44.083C212.922 42.9997 212.588 42.108 211.921 41.408C211.254 40.708 210.412 40.358 209.396 40.358C208.362 40.358 207.512 40.708 206.846 41.408C206.197 42.0913 205.872 42.9747 205.873 44.058C205.874 45.1413 206.199 46.033 206.85 46.733C207.517 47.4163 208.367 47.758 209.4 47.758Z" fill="white"/>
</svg>
