<svg width="254" height="84" viewBox="0 0 254 84" fill="none" xmlns="http://www.w3.org/2000/svg">
<rect width="253.525" height="84" rx="42" fill="black"/>
<path d="M65.9855 25.334C62.9522 25.334 60.5037 27.7542 60.5055 30.7507C60.5073 33.7241 62.9588 36.1442 65.9688 36.1673C65.2221 36.1442 64.6385 35.545 64.638 34.8074C64.6375 34.0698 65.2438 33.4475 66.0139 33.4475C69.2805 33.4475 76.5372 33.4475 79.7338 33.4475C81.9972 33.4475 83.8394 31.6266 83.838 29.3907C83.8366 27.1549 81.9922 25.334 79.7289 25.334L65.9855 25.334Z" fill="white"/>
<path opacity="0.9" d="M59.3254 36.167C56.292 36.167 53.8435 38.5872 53.8454 41.5837C53.8472 44.5571 56.2987 46.9773 59.3087 47.0003C58.562 46.9773 57.9783 46.378 57.9778 45.6404C57.9774 44.9028 58.5837 44.2805 59.3537 44.2805C62.6203 44.2805 69.877 44.2805 73.0737 44.2805C75.337 44.2805 77.1792 42.4596 77.1779 40.2238C77.1765 37.9879 75.332 36.167 73.0687 36.167L59.3254 36.167Z" fill="white"/>
<path opacity="0.8" d="M54.7239 47C51.4739 47 48.8505 49.6064 48.8524 52.8333C48.8544 56.0355 51.481 58.6418 54.706 58.6667C53.906 58.6418 53.2806 57.9965 53.2801 57.2021C53.2796 56.4078 53.9292 55.7376 54.7543 55.7376C58.2542 55.7376 66.0292 55.7376 69.4542 55.7376C71.8792 55.7376 73.853 53.7766 73.8516 51.3688C73.8501 48.961 71.8739 47 69.4489 47L54.7239 47Z" fill="white"/>
<path d="M92.1674 50.2572L92.1567 32.7572H103.407L103.409 35.7572H95.4585L95.4611 39.9322H102.711L102.713 42.9322H95.4629L95.4656 47.2572H103.566L103.567 50.2572H92.1674Z" fill="white"/>
<path d="M104.863 55.2572L104.853 37.8572H107.953L107.954 39.3572H108.404C108.687 38.8739 109.128 38.4489 109.728 38.0822C110.328 37.6989 111.186 37.5072 112.302 37.5072C113.302 37.5072 114.228 37.7572 115.078 38.2572C115.928 38.7406 116.612 39.4572 117.129 40.4072C117.646 41.3572 117.905 42.5072 117.906 43.8572L117.907 44.2572C117.907 45.6072 117.65 46.7572 117.134 47.7072C116.618 48.6572 115.935 49.3822 115.085 49.8822C114.235 50.3656 113.31 50.6072 112.31 50.6072C111.56 50.6072 110.927 50.5156 110.41 50.3322C109.91 50.1656 109.502 49.9489 109.185 49.6822C108.885 49.3989 108.643 49.1156 108.459 48.8322H108.009L108.013 55.2572H104.863ZM111.359 47.8572C112.342 47.8572 113.15 47.5489 113.783 46.9322C114.433 46.2989 114.757 45.3822 114.756 44.1822L114.756 43.9322C114.756 42.7322 114.43 41.8239 113.78 41.2072C113.129 40.5739 112.321 40.2572 111.354 40.2572C110.387 40.2572 109.579 40.5739 108.93 41.2072C108.28 41.8239 107.956 42.7322 107.956 43.9322L107.956 44.1822C107.957 45.3822 108.283 46.2989 108.933 46.9322C109.584 47.5489 110.392 47.8572 111.359 47.8572Z" fill="white"/>
<path d="M119.553 50.2572L119.545 37.8572H122.695L122.703 50.2572H119.553ZM121.119 36.4072C120.552 36.4072 120.069 36.2239 119.669 35.8572C119.285 35.4906 119.093 35.0072 119.093 34.4072C119.093 33.8072 119.284 33.3239 119.667 32.9572C120.067 32.5906 120.55 32.4072 121.117 32.4072C121.7 32.4072 122.183 32.5906 122.567 32.9572C122.951 33.3239 123.143 33.8072 123.143 34.4072C123.143 35.0072 122.952 35.4906 122.569 35.8572C122.186 36.2239 121.702 36.4072 121.119 36.4072Z" fill="white"/>
<path d="M130.768 50.6072C129.568 50.6072 128.477 50.3572 127.493 49.8572C126.526 49.3572 125.759 48.6322 125.192 47.6822C124.624 46.7322 124.34 45.5822 124.34 44.2322L124.339 43.8822C124.338 42.5322 124.621 41.3822 125.187 40.4322C125.753 39.4822 126.519 38.7572 127.486 38.2572C128.469 37.7572 129.56 37.5072 130.76 37.5072C131.944 37.5072 132.961 37.7156 133.811 38.1322C134.661 38.5489 135.345 39.1239 135.862 39.8572C136.396 40.5739 136.746 41.3906 136.913 42.3072L133.864 42.9572C133.797 42.4572 133.646 42.0072 133.413 41.6072C133.179 41.2072 132.846 40.8906 132.412 40.6572C131.996 40.4239 131.47 40.3072 130.837 40.3072C130.204 40.3072 129.629 40.4489 129.112 40.7322C128.613 40.9989 128.213 41.4072 127.913 41.9572C127.63 42.4906 127.489 43.1489 127.489 43.9322L127.489 44.1822C127.49 44.9656 127.632 45.6322 127.916 46.1822C128.216 46.7156 128.616 47.1239 129.116 47.4072C129.633 47.6739 130.208 47.8072 130.842 47.8072C131.792 47.8072 132.508 47.5656 132.991 47.0822C133.491 46.5822 133.807 45.9322 133.94 45.1322L136.991 45.8572C136.774 46.7406 136.4 47.5489 135.867 48.2822C135.351 48.9989 134.668 49.5656 133.818 49.9822C132.968 50.3989 131.952 50.6072 130.768 50.6072Z" fill="white"/>
<path d="M143.067 50.4572C142.1 50.4572 141.25 50.2406 140.516 49.8072C139.799 49.3572 139.241 48.7406 138.84 47.9572C138.44 47.1739 138.239 46.2739 138.239 45.2572L138.234 37.8572H141.384L141.388 45.0072C141.389 45.9406 141.614 46.6406 142.065 47.1072C142.532 47.5739 143.19 47.8072 144.04 47.8072C145.007 47.8072 145.757 47.4906 146.29 46.8572C146.822 46.2072 147.089 45.3072 147.088 44.1572L147.084 37.8572H150.234L150.242 50.2572H147.142L147.141 48.6322H146.691C146.491 49.0489 146.116 49.4572 145.566 49.8572C145.017 50.2572 144.183 50.4572 143.067 50.4572Z" fill="white"/>
<path d="M152.497 50.2572L152.489 37.8572H155.589L155.59 39.2572H156.04C156.223 38.7572 156.523 38.3906 156.94 38.1572C157.373 37.9239 157.873 37.8072 158.439 37.8072H159.939L159.941 40.6072H158.391C157.591 40.6072 156.933 40.8239 156.416 41.2572C155.9 41.6739 155.642 42.3239 155.643 43.2072L155.647 50.2572H152.497Z" fill="white"/>
<path d="M161.159 50.2572L161.151 37.8572H164.301L164.309 50.2572H161.159ZM162.726 36.4072C162.159 36.4072 161.675 36.2239 161.275 35.8572C160.892 35.4906 160.7 35.0072 160.699 34.4072C160.699 33.8072 160.89 33.3239 161.273 32.9572C161.673 32.5906 162.156 32.4072 162.723 32.4072C163.306 32.4072 163.79 32.5906 164.173 32.9572C164.557 33.3239 164.749 33.8072 164.749 34.4072C164.75 35.0072 164.558 35.4906 164.175 35.8572C163.792 36.2239 163.309 36.4072 162.726 36.4072Z" fill="white"/>
<path d="M172.45 50.6072C171.217 50.6072 170.108 50.3572 169.124 49.8572C168.141 49.3572 167.365 48.6322 166.798 47.6822C166.231 46.7322 165.947 45.5906 165.946 44.2572L165.946 43.8572C165.945 42.5239 166.228 41.3822 166.794 40.4322C167.36 39.4822 168.134 38.7572 169.117 38.2572C170.1 37.7572 171.209 37.5072 172.442 37.5072C173.675 37.5072 174.784 37.7572 175.767 38.2572C176.751 38.7572 177.526 39.4822 178.094 40.4322C178.661 41.3822 178.945 42.5239 178.946 43.8572L178.946 44.2572C178.947 45.5906 178.664 46.7322 178.098 47.6822C177.532 48.6322 176.757 49.3572 175.774 49.8572C174.791 50.3572 173.683 50.6072 172.45 50.6072ZM172.448 47.8072C173.415 47.8072 174.215 47.4989 174.848 46.8822C175.481 46.2489 175.797 45.3489 175.796 44.1822L175.796 43.9322C175.795 42.7656 175.478 41.8739 174.844 41.2572C174.227 40.6239 173.427 40.3072 172.444 40.3072C171.477 40.3072 170.677 40.6239 170.044 41.2572C169.411 41.8739 169.095 42.7656 169.096 43.9322L169.096 44.1822C169.097 45.3489 169.414 46.2489 170.048 46.8822C170.681 47.4989 171.481 47.8072 172.448 47.8072Z" fill="white"/>
<path d="M185.332 50.4572C184.366 50.4572 183.516 50.2406 182.782 49.8072C182.065 49.3572 181.506 48.7406 181.106 47.9572C180.705 47.1739 180.505 46.2739 180.504 45.2572L180.5 37.8572H183.65L183.654 45.0072C183.655 45.9406 183.88 46.6406 184.33 47.1072C184.797 47.5739 185.456 47.8072 186.306 47.8072C187.272 47.8072 188.022 47.4906 188.555 46.8572C189.088 46.2072 189.354 45.3072 189.354 44.1572L189.35 37.8572H192.5L192.507 50.2572H189.407L189.406 48.6322H188.956C188.757 49.0489 188.382 49.4572 187.832 49.8572C187.282 50.2572 186.449 50.4572 185.332 50.4572Z" fill="white"/>
<path d="M199.913 50.6072C198.296 50.6072 196.971 50.2572 195.937 49.5572C194.903 48.8572 194.278 47.8572 194.06 46.5572L196.96 45.8072C197.077 46.3906 197.269 46.8489 197.536 47.1822C197.819 47.5156 198.161 47.7572 198.561 47.9072C198.978 48.0406 199.428 48.1072 199.911 48.1072C200.645 48.1072 201.186 47.9822 201.536 47.7322C201.886 47.4656 202.061 47.1406 202.06 46.7572C202.06 46.3739 201.893 46.0822 201.56 45.8822C201.226 45.6656 200.693 45.4906 199.96 45.3572L199.259 45.2322C198.393 45.0656 197.601 44.8406 196.884 44.5572C196.167 44.2572 195.592 43.8489 195.158 43.3322C194.725 42.8156 194.508 42.1489 194.507 41.3322C194.506 40.0989 194.956 39.1572 195.855 38.5072C196.755 37.8406 197.938 37.5072 199.405 37.5072C200.788 37.5072 201.938 37.8156 202.855 38.4322C203.772 39.0489 204.373 39.8572 204.657 40.8572L201.732 41.7572C201.599 41.1239 201.323 40.6739 200.907 40.4072C200.506 40.1406 200.006 40.0072 199.406 40.0072C198.806 40.0072 198.348 40.1156 198.031 40.3322C197.715 40.5322 197.557 40.8156 197.557 41.1822C197.557 41.5822 197.724 41.8822 198.058 42.0822C198.391 42.2656 198.841 42.4072 199.408 42.5072L200.108 42.6322C201.041 42.7989 201.883 43.0239 202.633 43.3072C203.4 43.5739 204 43.9656 204.434 44.4822C204.884 44.9822 205.11 45.6656 205.11 46.5322C205.111 47.8322 204.637 48.8406 203.687 49.5572C202.754 50.2572 201.496 50.6072 199.913 50.6072Z" fill="white"/>
</svg>
