<svg width="245" height="84" viewBox="0 0 245 84" fill="none" xmlns="http://www.w3.org/2000/svg">
<rect width="244.358" height="84" rx="42" fill="black"/>
<path d="M64.6708 28.334C72.2185 28.3342 78.3405 34.4532 78.3452 42.001C78.3496 49.5486 72.2352 55.6668 64.6875 55.667C57.1397 55.667 51.017 49.5487 51.0122 42.001C51.0075 34.4531 57.1229 28.334 64.6708 28.334Z" stroke="white" stroke-width="6"/>
<path d="M103.164 39.0112C103.164 39.8823 102.955 40.699 102.535 41.4612C102.131 42.2234 101.486 42.8379 100.6 43.3045C99.7289 43.7712 98.6246 44.0045 97.2869 44.0045H94.5569L94.5607 50.2579H91.294L91.284 33.9712H97.2807C98.5407 33.9712 99.6142 34.189 100.501 34.6245C101.388 35.0601 102.05 35.659 102.486 36.4212C102.937 37.1834 103.163 38.0468 103.164 39.0112ZM97.1452 41.3679C98.0475 41.3679 98.7162 41.1657 99.1515 40.7612C99.5868 40.3412 99.8043 39.7579 99.8038 39.0112C99.8028 37.4245 98.9157 36.6312 97.1423 36.6312H94.5523L94.5552 41.3679H97.1452Z" fill="white"/>
<path d="M110.297 50.4679C109.052 50.4679 107.932 50.1957 106.936 49.6512C105.94 49.0912 105.154 48.3057 104.578 47.2945C104.018 46.2834 103.737 45.1168 103.736 43.7945C103.735 42.4723 104.022 41.3057 104.597 40.2945C105.188 39.2834 105.988 38.5057 106.999 37.9612C108.01 37.4012 109.137 37.1212 110.382 37.1212C111.626 37.1212 112.754 37.4012 113.766 37.9612C114.777 38.5057 115.571 39.2834 116.147 40.2945C116.739 41.3057 117.035 42.4723 117.036 43.7945C117.037 45.1168 116.734 46.2834 116.128 47.2945C115.538 48.3057 114.729 49.0912 113.703 49.6512C112.692 50.1957 111.557 50.4679 110.297 50.4679ZM110.295 47.6212C110.886 47.6212 111.438 47.4812 111.951 47.2012C112.48 46.9057 112.9 46.4701 113.211 45.8945C113.521 45.319 113.677 44.619 113.676 43.7945C113.675 42.5657 113.348 41.6245 112.694 40.9712C112.056 40.3023 111.27 39.9679 110.337 39.9679C109.404 39.9679 108.618 40.3023 107.981 40.9712C107.359 41.6245 107.049 42.5657 107.049 43.7945C107.05 45.0234 107.354 45.9723 107.961 46.6412C108.584 47.2945 109.362 47.6212 110.295 47.6212Z" fill="white"/>
<path d="M121.759 32.9912L121.77 50.2579H118.503L118.492 32.9912H121.759Z" fill="white"/>
<path d="M136.422 37.3312L128.431 56.3712H124.954L127.75 49.9312L122.562 37.3312H126.226L129.568 46.3612L132.946 37.3312H136.422Z" fill="white"/>
<path d="M153.303 37.1445C154.89 37.1445 156.166 37.6345 157.131 38.6145C158.111 39.579 158.602 40.9323 158.603 42.6745L158.608 50.2579H155.341L155.337 43.1179C155.336 42.1068 155.079 41.3368 154.566 40.8079C154.052 40.2634 153.352 39.9912 152.465 39.9912C151.578 39.9912 150.871 40.2634 150.342 40.8079C149.829 41.3368 149.573 42.1068 149.574 43.1179L149.578 50.2579H146.311L146.307 43.1179C146.306 42.1068 146.049 41.3368 145.535 40.8079C145.022 40.2634 144.322 39.9912 143.435 39.9912C142.533 39.9912 141.817 40.2634 141.289 40.8079C140.776 41.3368 140.52 42.1068 140.52 43.1179L140.525 50.2579H137.258L137.25 37.3312H140.517L140.518 38.8945C140.937 38.3501 141.474 37.9223 142.127 37.6112C142.796 37.3001 143.527 37.1445 144.32 37.1445C145.331 37.1445 146.233 37.3623 147.027 37.7979C147.821 38.2179 148.435 38.8245 148.871 39.6179C149.291 38.8712 149.897 38.2723 150.69 37.8212C151.499 37.3701 152.37 37.1445 153.303 37.1445Z" fill="white"/>
<path d="M159.931 43.7479C159.93 42.4412 160.186 41.2823 160.698 40.2712C161.227 39.2601 161.934 38.4823 162.82 37.9379C163.722 37.3934 164.725 37.1212 165.83 37.1212C166.794 37.1212 167.634 37.3157 168.35 37.7045C169.081 38.0934 169.665 38.5834 170.101 39.1745L170.1 37.3312H173.39L173.398 50.2579H170.108L170.107 48.3679C169.687 48.9745 169.104 49.4801 168.358 49.8845C167.627 50.2734 166.779 50.4679 165.815 50.4679C164.726 50.4679 163.73 50.1879 162.827 49.6279C161.94 49.0679 161.232 48.2823 160.703 47.2712C160.189 46.2445 159.931 45.0701 159.931 43.7479ZM170.104 43.7945C170.103 43.0012 169.947 42.3245 169.636 41.7645C169.324 41.189 168.904 40.7534 168.375 40.4579C167.846 40.1468 167.278 39.9912 166.672 39.9912C166.065 39.9912 165.505 40.139 164.992 40.4345C164.479 40.7301 164.059 41.1657 163.733 41.7412C163.422 42.3012 163.267 42.9701 163.267 43.7479C163.268 44.5257 163.424 45.2101 163.735 45.8012C164.062 46.3768 164.482 46.8201 164.996 47.1312C165.525 47.4423 166.085 47.5979 166.676 47.5979C167.283 47.5979 167.851 47.4501 168.379 47.1545C168.908 46.8434 169.328 46.4079 169.638 45.8479C169.949 45.2723 170.104 44.5879 170.104 43.7945Z" fill="white"/>
<path d="M179.452 40.0145L179.456 46.2679C179.456 46.7034 179.557 47.0223 179.76 47.2245C179.978 47.4112 180.335 47.5045 180.833 47.5045H182.35L182.352 50.2579H180.298C177.545 50.2579 176.167 48.9201 176.166 46.2445L176.162 40.0145H174.622L174.62 37.3312H176.16L176.158 34.1345H179.448L179.45 37.3312H182.344L182.345 40.0145H179.452Z" fill="white"/>
<path d="M191.04 37.1445C192.02 37.1445 192.891 37.3623 193.654 37.7979C194.416 38.2179 195.008 38.8479 195.428 39.6879C195.864 40.5123 196.082 41.5079 196.083 42.6745L196.088 50.2579H192.821L192.817 43.1179C192.816 42.0912 192.559 41.3057 192.045 40.7612C191.532 40.2012 190.832 39.9212 189.945 39.9212C189.043 39.9212 188.327 40.2012 187.799 40.7612C187.286 41.3057 187.03 42.0912 187.03 43.1179L187.035 50.2579H183.768L183.757 32.9912H187.024L187.028 38.9412C187.447 38.3812 188.007 37.9457 188.707 37.6345C189.407 37.3079 190.184 37.1445 191.04 37.1445Z" fill="white"/>
</svg>
