<svg width="132" height="132" viewBox="0 0 132 132" fill="none" xmlns="http://www.w3.org/2000/svg">
<path d="M83.0856 3.47766L70.0628 0L59.0882 40.8187L49.1802 3.9673L36.157 7.44497L46.8621 47.2602L20.1984 20.6872L10.6649 30.1883L39.9116 59.3359L3.4895 49.6097L0 62.5883L39.7957 73.2154C39.3401 71.2569 39.099 69.2162 39.099 67.1195C39.099 52.2777 51.1715 40.2462 66.0639 40.2462C80.9562 40.2462 93.0287 52.2777 93.0287 67.1195C93.0287 69.2027 92.7906 71.2308 92.3406 73.1778L128.508 82.8357L131.997 69.8571L92.043 59.1878L128.468 49.4609L124.978 36.4823L85.0256 47.1509L111.689 20.5781L102.156 11.077L73.3147 39.8201L83.0856 3.47766Z" fill="#080200"/>
<path d="M92.3026 73.3289C91.1861 78.0333 88.8288 82.2595 85.5945 85.6456L111.796 111.758L121.329 102.257L92.3026 73.3289Z" fill="#080200"/>
<path d="M85.33 85.9186C82.0565 89.2505 77.9199 91.737 73.2809 93.0184L82.8151 128.479L95.838 125.002L85.33 85.9186Z" fill="#080200"/>
<path d="M72.7945 93.1481C70.6423 93.6995 68.3864 93.9926 66.0616 93.9926C63.5709 93.9926 61.1591 93.656 58.8694 93.026L49.3266 128.519L62.3494 131.997L72.7945 93.1481Z" fill="#080200"/>
<path d="M58.4089 92.8952C53.8408 91.5501 49.7777 89.032 46.5712 85.6905L20.3054 111.867L29.8389 121.368L58.4089 92.8952Z" fill="#080200"/>
<path d="M46.3547 85.4591C43.2032 82.0964 40.9075 77.9266 39.8148 73.2949L3.52984 82.9844L7.01932 95.9631L46.3547 85.4591Z" fill="#080200"/>
</svg>
