<svg width="276" height="84" viewBox="0 0 276 84" fill="none" xmlns="http://www.w3.org/2000/svg">
<rect width="275.362" height="84" rx="42" fill="black"/>
<path d="M65.1111 48.1114C71.8613 48.1114 77.3333 42.6394 77.3333 35.8892C77.3333 29.1391 71.8613 23.667 65.1111 23.667H48V48.1114H65.1111Z" fill="white"/>
<path d="M48 23.667L77.3333 60.3337H57.7778L48 48.1114V23.667Z" fill="white"/>
<path d="M67.3864 47.9C66.6492 48.0388 65.8886 48.1114 65.1111 48.1114H48V23.667L67.3864 47.9Z" fill="white"/>
<path d="M97.4498 50.5671C95.7387 50.5671 94.2687 50.2248 93.0398 49.5404C91.8264 48.8404 90.8931 47.8604 90.2398 46.6004C89.5864 45.3248 89.2598 43.8237 89.2598 42.0971C89.2598 40.3704 89.5864 38.8771 90.2398 37.6171C90.8931 36.3571 91.8264 35.3848 93.0398 34.7004C94.2687 34.0004 95.7387 33.6504 97.4498 33.6504C98.5542 33.6504 99.5964 33.8215 100.576 34.1637C101.572 34.5059 102.389 34.9959 103.026 35.6337L102.046 38.0137C101.346 37.4226 100.631 36.9948 99.8998 36.7304C99.1687 36.4504 98.3831 36.3104 97.5431 36.3104C95.8787 36.3104 94.6109 36.8159 93.7398 37.8271C92.8687 38.8226 92.4331 40.2459 92.4331 42.0971C92.4331 43.9482 92.8687 45.3793 93.7398 46.3904C94.6109 47.4015 95.8787 47.9071 97.5431 47.9071C98.3831 47.9071 99.1687 47.7748 99.8998 47.5104C100.631 47.2304 101.346 46.7948 102.046 46.2037L103.026 48.5837C102.389 49.2059 101.572 49.6959 100.576 50.0537C99.5964 50.3959 98.5542 50.5671 97.4498 50.5671Z" fill="white"/>
<path d="M109.736 50.5671C108.554 50.5671 107.527 50.3259 106.656 49.8437C105.785 49.3615 105.108 48.6771 104.626 47.7904C104.144 46.8882 103.903 45.8304 103.903 44.6171C103.903 43.4037 104.144 42.3537 104.626 41.4671C105.108 40.5804 105.785 39.8959 106.656 39.4137C107.527 38.9315 108.554 38.6904 109.736 38.6904C110.918 38.6904 111.945 38.9315 112.816 39.4137C113.687 39.8959 114.364 40.5804 114.846 41.4671C115.328 42.3537 115.569 43.4037 115.569 44.6171C115.569 45.8304 115.328 46.8882 114.846 47.7904C114.364 48.6771 113.687 49.3615 112.816 49.8437C111.945 50.3259 110.918 50.5671 109.736 50.5671ZM109.736 48.3504C110.607 48.3504 111.307 48.0393 111.836 47.4171C112.365 46.7793 112.629 45.8459 112.629 44.6171C112.629 43.3726 112.365 42.4471 111.836 41.8404C111.307 41.2182 110.607 40.9071 109.736 40.9071C108.865 40.9071 108.165 41.2182 107.636 41.8404C107.107 42.4471 106.843 43.3726 106.843 44.6171C106.843 45.8459 107.107 46.7793 107.636 47.4171C108.165 48.0393 108.865 48.3504 109.736 48.3504Z" fill="white"/>
<path d="M118.023 50.3337V38.9237H120.87V40.6737C121.212 40.0515 121.687 39.5693 122.293 39.2271C122.9 38.8693 123.6 38.6904 124.393 38.6904C126.104 38.6904 127.224 39.4371 127.753 40.9304C128.111 40.2304 128.624 39.6859 129.293 39.2971C129.962 38.8926 130.724 38.6904 131.58 38.6904C134.147 38.6904 135.43 40.2537 135.43 43.3804V50.3337H132.513V43.4971C132.513 42.6259 132.366 41.9882 132.07 41.5837C131.79 41.1793 131.308 40.9771 130.623 40.9771C129.861 40.9771 129.262 41.2493 128.827 41.7937C128.391 42.3226 128.173 43.0615 128.173 44.0104V50.3337H125.257V43.4971C125.257 42.6259 125.109 41.9882 124.813 41.5837C124.533 41.1793 124.059 40.9771 123.39 40.9771C122.628 40.9771 122.029 41.2493 121.593 41.7937C121.158 42.3226 120.94 43.0615 120.94 44.0104V50.3337H118.023Z" fill="white"/>
<path d="M138.486 50.3337V38.9237H141.332V40.6737C141.675 40.0515 142.149 39.5693 142.756 39.2271C143.362 38.8693 144.062 38.6904 144.856 38.6904C146.567 38.6904 147.687 39.4371 148.216 40.9304C148.573 40.2304 149.087 39.6859 149.756 39.2971C150.425 38.8926 151.187 38.6904 152.042 38.6904C154.609 38.6904 155.892 40.2537 155.892 43.3804V50.3337H152.976V43.4971C152.976 42.6259 152.828 41.9882 152.532 41.5837C152.252 41.1793 151.77 40.9771 151.086 40.9771C150.323 40.9771 149.725 41.2493 149.289 41.7937C148.853 42.3226 148.636 43.0615 148.636 44.0104V50.3337H145.719V43.4971C145.719 42.6259 145.571 41.9882 145.276 41.5837C144.996 41.1793 144.521 40.9771 143.852 40.9771C143.09 40.9771 142.491 41.2493 142.056 41.7937C141.62 42.3226 141.402 43.0615 141.402 44.0104V50.3337H138.486Z" fill="white"/>
<path d="M162.658 50.5671C161.833 50.5671 161.095 50.4115 160.441 50.1004C159.803 49.7737 159.298 49.3382 158.925 48.7937C158.567 48.2493 158.388 47.6348 158.388 46.9504C158.388 46.1104 158.606 45.4493 159.041 44.9671C159.477 44.4693 160.185 44.1115 161.165 43.8937C162.145 43.6759 163.459 43.5671 165.108 43.5671H165.925V43.0771C165.925 42.2993 165.753 41.7393 165.411 41.3971C165.069 41.0548 164.493 40.8837 163.685 40.8837C163.047 40.8837 162.393 40.9848 161.725 41.1871C161.056 41.3737 160.379 41.6693 159.695 42.0737L158.855 40.0904C159.259 39.8104 159.733 39.5693 160.278 39.3671C160.838 39.1493 161.421 38.9859 162.028 38.8771C162.65 38.7526 163.233 38.6904 163.778 38.6904C165.442 38.6904 166.679 39.0793 167.488 39.8571C168.297 40.6193 168.701 41.8093 168.701 43.4271V50.3337H165.971V48.5137C165.707 49.1515 165.287 49.6571 164.711 50.0304C164.136 50.3882 163.451 50.5671 162.658 50.5671ZM163.265 48.5604C164.027 48.5604 164.657 48.2959 165.155 47.7671C165.668 47.2382 165.925 46.5693 165.925 45.7604V45.2471H165.131C163.669 45.2471 162.65 45.3637 162.075 45.5971C161.515 45.8148 161.235 46.2193 161.235 46.8104C161.235 47.3237 161.413 47.7437 161.771 48.0704C162.129 48.3971 162.627 48.5604 163.265 48.5604Z" fill="white"/>
<path d="M171.662 50.3337V38.9237H174.508V40.6971C174.897 40.0437 175.418 39.5459 176.072 39.2037C176.74 38.8615 177.487 38.6904 178.312 38.6904C181.003 38.6904 182.348 40.2537 182.348 43.3804V50.3337H179.432V43.5204C179.432 42.6337 179.26 41.9882 178.918 41.5837C178.592 41.1793 178.078 40.9771 177.378 40.9771C176.523 40.9771 175.838 41.2493 175.325 41.7937C174.827 42.3226 174.578 43.0304 174.578 43.9171V50.3337H171.662Z" fill="white"/>
<path d="M189.697 50.5671C188.702 50.5671 187.823 50.3259 187.061 49.8437C186.314 49.3615 185.731 48.6771 185.311 47.7904C184.891 46.8882 184.681 45.8304 184.681 44.6171C184.681 43.3882 184.891 42.3382 185.311 41.4671C185.731 40.5804 186.314 39.8959 187.061 39.4137C187.823 38.9315 188.702 38.6904 189.697 38.6904C190.506 38.6904 191.237 38.8693 191.891 39.2271C192.544 39.5848 193.034 40.0593 193.361 40.6504V33.8837H196.277V50.3337H193.431V48.4437C193.12 49.0971 192.63 49.6182 191.961 50.0071C191.292 50.3804 190.537 50.5671 189.697 50.5671ZM190.514 48.3504C191.385 48.3504 192.085 48.0393 192.614 47.4171C193.143 46.7793 193.407 45.8459 193.407 44.6171C193.407 43.3726 193.143 42.4471 192.614 41.8404C192.085 41.2182 191.385 40.9071 190.514 40.9071C189.643 40.9071 188.943 41.2182 188.414 41.8404C187.885 42.4471 187.621 43.3726 187.621 44.6171C187.621 45.8459 187.885 46.7793 188.414 47.4171C188.943 48.0393 189.643 48.3504 190.514 48.3504Z" fill="white"/>
<path d="M203.712 49.4004V44.6637H199.092V42.6104H203.712V38.0137H205.858V42.6104H210.478V44.6637H205.858V49.4004H203.712Z" fill="white"/>
<path d="M213.572 50.3337V33.8837H220.712C222.517 33.8837 223.909 34.3193 224.889 35.1904C225.869 36.0459 226.359 37.2515 226.359 38.8071C226.359 40.0359 226.04 41.0548 225.402 41.8637C224.765 42.6571 223.847 43.1937 222.649 43.4737C223.442 43.7226 224.096 44.3215 224.609 45.2704L227.362 50.3337H224.072L221.226 45.0837C220.946 44.5704 220.611 44.2204 220.222 44.0337C219.849 43.8471 219.367 43.7537 218.776 43.7537H216.559V50.3337H213.572ZM216.559 41.5371H220.199C222.377 41.5371 223.466 40.6504 223.466 38.8771C223.466 37.1193 222.377 36.2404 220.199 36.2404H216.559V41.5371Z" fill="white"/>
</svg>
