<svg width="245" height="84" viewBox="0 0 245 84" fill="none" xmlns="http://www.w3.org/2000/svg">
<rect width="244.639" height="84" rx="42" fill="black"/>
<path d="M69.4994 51.792C66.5827 50.7086 63.5827 50.542 60.8327 51.292C58.916 51.792 57.0827 52.792 55.416 54.042L54.2493 55.042L53.916 55.3753L54.666 56.042C54.7493 56.042 54.7494 56.1253 54.8327 56.2087C54.9994 56.3753 55.166 56.4587 55.416 56.6253L55.916 56.9587L56.416 56.542C56.4993 56.4587 56.666 56.292 56.8327 56.2087C58.3327 54.9587 59.9993 54.1253 61.7493 53.7087C63.9993 53.1253 66.416 53.2087 68.8327 54.1253C70.8327 54.8753 74.916 55.792 79.8327 53.7087L79.9994 53.6253L80.2494 53.3753C80.2494 53.292 80.3327 53.292 80.416 53.2087C80.8327 52.7087 81.2494 52.2087 81.5827 51.6253L83.2494 49.042L80.5827 50.542C76.666 52.7086 73.0827 53.1253 69.4994 51.792Z" fill="white"/>
<path d="M58.0827 42.792C60.3327 42.2087 62.7494 42.292 65.166 43.2087C67.8327 44.2087 74.666 45.6253 82.3327 38.7087L83.9994 37.042L83.8327 36.6253C83.7493 36.292 83.5827 35.8753 83.416 35.4587L82.9993 34.292L82.166 35.1253C82.0827 35.292 81.916 35.3753 81.7493 35.542C78.0827 39.292 72.416 43.1253 65.916 40.792C62.9993 39.7087 59.9994 39.542 57.2494 40.292C54.5827 41.042 52.2493 42.4587 50.0827 44.4587V44.3753L48.8327 45.7087C48.8327 45.792 48.7494 45.792 48.666 45.8753L48.416 46.1253L48.4994 46.4587C48.5827 46.8753 48.7493 47.292 48.8327 47.7087L49.3327 49.042L50.166 47.9587C50.2494 47.792 50.416 47.7087 50.4993 47.542C52.2493 45.9587 54.666 43.7087 58.0827 42.792Z" fill="white"/>
<path d="M50 41.2917C51.9167 39.2917 54.0833 38.0417 56.4167 37.375C58.6667 36.7917 61.0833 36.875 63.5 37.7917C71 40.5417 77.5 36.0417 80.3334 33.625L81.4167 32.5417L81.8333 32.2083L81.5 31.7084C81.25 31.4584 81.0834 31.125 80.8334 30.7917L80.3334 30.125L79.75 30.7083C79.6667 30.7917 79.5 30.9583 79.4167 31.0417C75.9167 34.375 70.5 37.7917 64.3333 35.4584C61.4167 34.375 58.4167 34.2083 55.6667 34.9583C53.9167 35.4583 52.25 36.2917 50.5833 37.375L48.8333 38.7917C48.6667 38.9584 48.5833 39.0417 48.4167 39.2084L48.25 39.375V39.625C48.1667 40.2084 48.1667 40.7917 48.0833 41.2917L48 43.375L49.4167 41.875C49.5833 41.7083 49.75 41.4584 50 41.2917Z" fill="white"/>
<path d="M71.9173 57.4583C71.6673 57.3749 71.5007 57.2916 71.2507 57.2083C68.334 56.1249 65.334 55.9583 62.584 56.7083C62.0006 56.875 61.4173 57.0416 60.834 57.2916L58.834 58.2083L58.334 58.4583L60.0007 59.0416C60.5007 59.2083 61.0006 59.3749 61.5006 59.5416L61.7506 59.625L62.0006 59.5416C62.2506 59.4583 62.5006 59.2916 62.7506 59.2916C62.9173 59.2916 63.084 59.2083 63.2506 59.1249C65.2506 58.6249 67.4173 58.6249 69.7506 59.3749C70.0006 59.4583 70.1673 59.5416 70.4173 59.625L70.834 59.7916L71.084 59.7083C71.6673 59.5416 72.334 59.3749 72.834 59.1249L75.1673 58.2916L72.7506 57.7083C72.5006 57.6249 72.1673 57.5416 71.9173 57.4583Z" fill="white"/>
<path d="M84.6666 40.209L83.4166 41.459C83.25 41.6257 83.0833 41.7923 82.9167 41.959C79.5 45.209 74 48.709 67.8333 46.3756C64.9167 45.2923 61.9167 45.1257 59.1667 45.8757C56.5833 46.6257 54.25 47.959 52.1667 49.959L51.0833 51.1257L50.75 51.5423L51.0833 52.0423C51.3333 52.3757 51.5 52.6257 51.6667 52.959L52.1667 53.709L52.75 52.959C52.8333 52.8757 53 52.709 53.0833 52.6256C55.0833 50.459 57.25 49.1256 59.75 48.459C62 47.8756 64.4167 47.959 66.8333 48.8756C68.9167 49.6256 71.0833 49.8757 73.25 49.6257C77.0833 49.209 80.9167 47.0423 83.75 44.6257C83.9167 44.459 84.0833 44.3757 84.25 44.209L84.5 43.959V43.709C84.5 43.209 84.5833 42.6257 84.5833 42.1257L84.6666 40.209Z" fill="white"/>
<path d="M52.9993 32.5417C53.4993 32.2917 54.0827 32.125 54.5827 31.9583C56.8327 31.375 59.2494 31.4583 61.666 32.375C63.2494 32.9583 64.8327 33.2083 66.5827 33.2083C70.0827 33.2083 73.5827 31.9583 76.8327 29.5417L78.4993 28.2083L77.7493 27.625C77.4993 27.375 77.166 27.125 76.8327 26.9583L76.3327 26.625L75.916 26.9583C75.7493 27.0417 75.666 27.2083 75.4993 27.2917C71.0827 30.625 66.666 31.5417 62.4994 29.9583C59.4994 28.875 56.4993 28.625 53.4993 29.5417C53.2493 29.625 52.9993 29.7083 52.666 29.7917L52.4994 29.875L52.2493 30.125C52.2493 30.2083 52.166 30.2083 52.0827 30.2917C51.7494 30.7917 51.3327 31.2083 50.9993 31.7083L49.416 34.125L51.9994 32.7917C52.416 32.7917 52.7493 32.625 52.9993 32.5417Z" fill="white"/>
<path d="M59.8327 26.8756L60.0827 26.959C61.166 27.3756 62.8327 27.7923 64.916 27.7923C67.0827 27.7923 69.166 27.2923 71.2494 26.459L73.8327 25.209L72.0827 24.6257C71.5827 24.459 71.0827 24.2923 70.4993 24.209H70.2494L69.9994 24.2923C69.7494 24.3756 69.4993 24.5423 69.2493 24.6257C66.7493 25.5423 64.2494 25.709 61.8327 25.0423C61.5827 24.959 61.3327 24.8756 61.0827 24.7923L60.8327 24.709L60.5827 24.7923C60.0827 24.959 59.5827 25.1256 59.0827 25.3756L57.166 26.209L59.166 26.7923C59.3327 26.709 59.5827 26.7923 59.8327 26.8756Z" fill="white"/>
<path d="M99.0674 50.2263H95.2227L101.081 33.2566H105.704L111.554 50.2263H107.71L103.459 37.1344H103.326L99.0674 50.2263ZM98.8271 43.5561H107.909V46.3567H98.8271V43.5561Z" fill="white"/>
<path d="M117.06 33.2566V50.2263H113.531V33.2566H117.06Z" fill="white"/>
<path d="M126.658 37.499V40.1505H118.993V37.499H126.658ZM120.733 34.4498H124.263V46.3153C124.263 46.6412 124.313 46.8953 124.412 47.0776C124.512 47.2544 124.65 47.3787 124.826 47.4505C125.009 47.5223 125.219 47.5582 125.456 47.5582C125.622 47.5582 125.788 47.5444 125.953 47.5168C126.119 47.4836 126.246 47.4587 126.334 47.4422L126.89 50.0688C126.713 50.1241 126.464 50.1876 126.144 50.2594C125.823 50.3367 125.434 50.3837 124.976 50.4003C124.125 50.4334 123.379 50.3202 122.738 50.0605C122.103 49.8009 121.609 49.3977 121.255 48.8508C120.902 48.3039 120.728 47.6134 120.733 46.7793V34.4498Z" fill="white"/>
<path d="M133.607 49.3065V37.5736H136.574V49.3065H133.607ZM129.224 44.9232V41.9569H140.957V44.9232H129.224Z" fill="white"/>
<path d="M153.701 38.137C153.635 37.4686 153.35 36.9494 152.848 36.5793C152.345 36.2091 151.663 36.0241 150.801 36.0241C150.215 36.0241 149.721 36.1069 149.318 36.2727C148.914 36.4329 148.605 36.6566 148.39 36.9438C148.18 37.2311 148.075 37.557 148.075 37.9216C148.064 38.2254 148.127 38.4906 148.265 38.717C148.409 38.9435 148.605 39.1396 148.854 39.3053C149.102 39.4655 149.39 39.6064 149.715 39.7279C150.041 39.8439 150.389 39.9434 150.759 40.0262L152.284 40.3908C153.024 40.5565 153.704 40.7775 154.322 41.0537C154.941 41.3299 155.477 41.6696 155.93 42.0729C156.383 42.4761 156.734 42.9512 156.982 43.498C157.236 44.0449 157.366 44.6719 157.372 45.379C157.366 46.4175 157.101 47.3179 156.576 48.0802C156.057 48.837 155.306 49.4253 154.322 49.8451C153.345 50.2594 152.165 50.4666 150.784 50.4666C149.414 50.4666 148.221 50.2567 147.205 49.8368C146.194 49.417 145.404 48.7956 144.835 47.9725C144.272 47.1439 143.976 46.1192 143.948 44.8984H147.42C147.459 45.4674 147.622 45.9424 147.909 46.3236C148.202 46.6992 148.591 46.9837 149.077 47.177C149.569 47.3648 150.124 47.4587 150.743 47.4587C151.351 47.4587 151.878 47.3704 152.326 47.1936C152.778 47.0168 153.129 46.771 153.378 46.4561C153.626 46.1413 153.751 45.7795 153.751 45.3707C153.751 44.9895 153.637 44.6691 153.411 44.4095C153.19 44.1499 152.864 43.9289 152.433 43.7466C152.008 43.5643 151.486 43.3986 150.867 43.2495L149.019 42.7855C147.589 42.4374 146.459 41.8933 145.63 41.1531C144.802 40.4129 144.39 39.4158 144.396 38.1619C144.39 37.1344 144.664 36.2368 145.216 35.4689C145.774 34.7011 146.539 34.1017 147.511 33.6709C148.484 33.24 149.588 33.0246 150.826 33.0246C152.085 33.0246 153.184 33.24 154.124 33.6709C155.068 34.1017 155.803 34.7011 156.328 35.4689C156.852 36.2368 157.123 37.1261 157.14 38.137H153.701Z" fill="white"/>
<path d="M163.249 42.8683V50.2263H159.719V33.2566H163.149V39.7445H163.298C163.585 38.9932 164.049 38.4049 164.69 37.9796C165.331 37.5487 166.135 37.3333 167.102 37.3333C167.985 37.3333 168.756 37.5266 169.413 37.9133C170.076 38.2944 170.59 38.8441 170.954 39.5622C171.325 40.2748 171.507 41.1283 171.501 42.1226V50.2263H167.972V42.7523C167.977 41.9679 167.778 41.3575 167.375 40.9211C166.977 40.4847 166.419 40.2665 165.701 40.2665C165.221 40.2665 164.795 40.3687 164.425 40.5731C164.061 40.7775 163.773 41.0758 163.563 41.468C163.359 41.8547 163.254 42.3214 163.249 42.8683Z" fill="white"/>
<path d="M174.279 50.2263V37.499H177.809V50.2263H174.279ZM176.052 35.8584C175.528 35.8584 175.077 35.6844 174.702 35.3364C174.332 34.9828 174.147 34.5602 174.147 34.0686C174.147 33.5825 174.332 33.1654 174.702 32.8174C175.077 32.4639 175.528 32.2871 176.052 32.2871C176.577 32.2871 177.025 32.4639 177.395 32.8174C177.77 33.1654 177.958 33.5825 177.958 34.0686C177.958 34.5602 177.77 34.9828 177.395 35.3364C177.025 35.6844 176.577 35.8584 176.052 35.8584Z" fill="white"/>
<path d="M188.742 37.499V40.1505H179.626V37.499H188.742ZM181.424 50.2263V36.5793C181.424 35.6567 181.603 34.8917 181.962 34.284C182.327 33.6764 182.824 33.2207 183.454 32.9168C184.084 32.613 184.799 32.4611 185.6 32.4611C186.141 32.4611 186.636 32.5025 187.083 32.5854C187.536 32.6683 187.873 32.7428 188.094 32.8091L187.464 35.4606C187.326 35.4165 187.155 35.375 186.951 35.3364C186.752 35.2977 186.547 35.2784 186.337 35.2784C185.818 35.2784 185.456 35.3999 185.252 35.6429C185.048 35.8805 184.945 36.2147 184.945 36.6455V50.2263H181.424Z" fill="white"/>
<path d="M196.407 37.499V40.1505H188.742V37.499H196.407ZM190.482 34.4498H194.012V46.3153C194.012 46.6412 194.062 46.8953 194.161 47.0776C194.261 47.2544 194.399 47.3787 194.576 47.4505C194.758 47.5223 194.968 47.5582 195.205 47.5582C195.371 47.5582 195.537 47.5444 195.703 47.5168C195.868 47.4836 195.995 47.4587 196.084 47.4422L196.639 50.0688C196.462 50.1241 196.214 50.1876 195.893 50.2594C195.573 50.3367 195.183 50.3837 194.725 50.4003C193.874 50.4334 193.128 50.3202 192.488 50.0605C191.852 49.8009 191.358 49.3977 191.005 48.8508C190.651 48.3039 190.477 47.6134 190.482 46.7793V34.4498Z" fill="white"/>
</svg>
