<svg width="262" height="84" viewBox="0 0 262 84" fill="none" xmlns="http://www.w3.org/2000/svg">
<rect width="261.556" height="84" rx="42" fill="black"/>
<path d="M57.8603 25.6999L62.1507 41.7119V24.108C62.4909 24.0286 62.8348 23.9587 63.182 23.8985V41.7135L68.0076 23.7041C68.3553 23.7356 68.7003 23.7768 69.0422 23.8274L64.1777 41.9819L73.847 25.2341C74.162 25.3758 74.4723 25.5262 74.7775 25.6849L65.0721 42.4951L78.9278 28.6394C79.1776 28.8757 79.4208 29.1188 79.657 29.3687L65.7993 43.2264L82.6115 33.5198C82.7702 33.8251 82.9205 34.1354 83.0622 34.4505L66.3185 44.1174L84.4681 39.2542C84.5187 39.5961 84.5599 39.9411 84.5913 40.2888L66.5821 45.1144L84.3967 45.1144C84.3365 45.4616 84.2666 45.8054 84.1872 46.1456L66.5794 46.1456L82.5945 50.4369C82.43 50.7518 82.2567 51.0614 82.0748 51.3652L66.317 47.143L79.4784 54.7417C79.2292 54.9979 78.9726 55.2469 78.709 55.4882L65.8025 48.0367L75.5686 57.8028C75.2597 57.9833 74.945 58.155 74.625 58.3176L65.0723 48.7649L71.3313 59.6058C70.9886 59.7027 70.6418 59.7899 70.2913 59.867L64.1783 49.2789L67.1256 60.2785C66.8629 60.2897 66.5988 60.2953 66.3333 60.2953C66.2427 60.2953 66.1523 60.2947 66.062 60.2934L63.1819 49.545V60.0255C62.8347 59.9654 62.4909 59.8955 62.1507 59.8161V49.5467L59.6113 59.0238C59.2874 58.8961 58.968 58.7594 58.6535 58.6141L61.1542 49.2812L56.4598 57.4122C56.1692 57.2261 55.8841 57.032 55.605 56.8302L60.2625 48.7632L53.74 55.2857C53.4902 55.0495 53.247 54.8063 53.0108 54.5565L59.5312 48.036L51.4665 52.6922C51.2647 52.4131 51.0706 52.1281 50.8844 51.8375L59.0192 47.1409L49.6817 49.6429C49.5363 49.3283 49.3996 49.0089 49.2719 48.685L58.749 46.1456L48.4795 46.1456C48.4001 45.8054 48.3302 45.4616 48.27 45.1144H58.7462L48.002 42.2355C48.0007 42.1445 48 42.0533 48 41.962C48 41.6973 48.0056 41.4338 48.0167 41.1718L59.0177 44.1195L48.428 38.0055C48.5051 37.655 48.5923 37.3082 48.6891 36.9655L59.5345 43.2271L49.9778 33.6704C50.1404 33.3503 50.3121 33.0356 50.4926 32.7267L60.2626 42.4968L52.8081 29.5852C53.0495 29.3216 53.2985 29.0651 53.5548 28.8159L61.1548 41.9796L56.9319 26.2195C57.2358 26.0376 57.5454 25.8643 57.8603 25.6999Z" fill="white"/>
<path d="M96.2071 50.2192H100.197V43.2892H108.154V39.7658H100.197V36.8025H108.667V33.3025H96.2071V50.2192Z" fill="white"/>
<path d="M115.449 40.2792C116.965 40.2792 118.179 41.2125 118.179 43.8958C118.179 46.5325 117.012 47.5358 115.449 47.5358C113.885 47.5358 112.719 46.5325 112.719 43.8958C112.719 41.2125 113.932 40.2792 115.449 40.2792ZM115.449 37.2925C111.972 37.2925 108.799 39.3458 108.799 43.8958C108.799 48.4458 111.972 50.5225 115.449 50.5225C118.925 50.5225 122.099 48.4458 122.099 43.8958C122.099 39.3458 118.925 37.2925 115.449 37.2925Z" fill="white"/>
<path d="M129.491 37.2925C125.688 37.2925 123.075 39.8825 123.075 43.8725C123.075 47.8625 125.361 50.5225 129.491 50.5225C132.011 50.5225 135.021 49.3325 135.885 45.5992H132.291C132.011 46.7892 131.148 47.5358 129.725 47.5358C128.348 47.5358 126.995 46.6258 126.995 43.8958C126.995 41.2125 128.348 40.2792 129.725 40.2792C130.868 40.2792 131.778 40.7925 132.128 42.2625H135.721C134.975 38.4825 132.105 37.2925 129.491 37.2925Z" fill="white"/>
<path d="M144.931 42.3792C140.054 42.7525 136.578 43.7558 136.578 46.8358C136.578 49.1225 138.538 50.5225 140.918 50.5225C142.714 50.5225 144.208 50.0325 145.141 48.7025L145.188 50.2192H148.968C148.781 49.4258 148.688 47.9558 148.688 46.5792V45.2725L148.734 42.5425C148.804 38.7392 146.751 37.2692 143.134 37.2692C139.401 37.2692 137.161 39.3692 136.974 41.7258H140.568C140.731 40.5125 141.571 39.8825 142.808 39.8825C144.208 39.8825 144.931 40.3958 144.931 41.8892V42.3792ZM145.024 44.9458C145.024 47.2558 143.858 47.9092 142.318 47.9092C141.314 47.9092 140.544 47.3725 140.544 46.5558C140.544 45.2025 142.341 44.8992 145.024 44.6425V44.9458Z" fill="white"/>
<path d="M154.56 33.3025H150.71V50.2192H154.56V33.3025Z" fill="white"/>
<path d="M157.015 33.3025V50.2192H161.005V44.3625H163.525C167.912 44.3625 171.202 43.2658 171.202 38.8092C171.202 34.3758 167.912 33.3025 163.525 33.3025H157.015ZM163.642 36.6625C165.508 36.6625 166.978 37.0358 166.978 38.8092C166.978 40.5825 165.508 41.0025 163.642 41.0025H161.005V36.6625H163.642Z" fill="white"/>
<path d="M177.965 40.2792C179.482 40.2792 180.695 41.2125 180.695 43.8958C180.695 46.5325 179.529 47.5358 177.965 47.5358C176.402 47.5358 175.235 46.5325 175.235 43.8958C175.235 41.2125 176.449 40.2792 177.965 40.2792ZM177.965 37.2925C174.489 37.2925 171.315 39.3458 171.315 43.8958C171.315 48.4458 174.489 50.5225 177.965 50.5225C181.442 50.5225 184.615 48.4458 184.615 43.8958C184.615 39.3458 181.442 37.2925 177.965 37.2925Z" fill="white"/>
<path d="M186.156 37.6658V50.2192H190.029V37.6658H186.156ZM186.156 33.3025V36.3825H190.006V33.3025H186.156Z" fill="white"/>
<path d="M196.17 37.6658H192.32V50.2192H196.17V43.7792C196.17 41.4458 196.847 40.3725 198.504 40.3725C200.37 40.3725 200.44 41.8425 200.44 43.6392V50.2192H204.29V42.6825C204.29 39.2758 203.287 37.3858 200.067 37.3858C198.084 37.3858 196.73 38.3892 196.17 39.3225V37.6658Z" fill="white"/>
<path d="M206.952 37.6658H204.969V40.3958H206.952V46.6958C206.952 49.6125 208.002 50.2192 211.106 50.2192H213.556V47.4425H212.459C211.176 47.4425 210.802 47.2092 210.802 46.0192V40.3958H213.556V37.6658H210.802V34.2358H206.952V37.6658Z" fill="white"/>
</svg>
