<svg width="242" height="84" viewBox="0 0 242 84" fill="none" xmlns="http://www.w3.org/2000/svg">
<rect width="241.432" height="84" rx="42" fill="black"/>
<path d="M60.315 38.2084C65.1157 35.9124 68.8729 32.0161 71.0297 27.1458C69.6382 25.6847 67.8292 24.6411 65.8811 24.0149L64.8374 23.667C64.7679 23.8061 64.6983 24.0149 64.6983 24.154C63.0285 28.8852 59.6192 32.7119 55.0272 34.8688C51.8267 36.3994 49.4611 39.1825 48.3479 42.5221L48 43.5658C48.1392 43.6354 48.3479 43.7049 48.487 43.7049C49.809 44.192 51.1309 44.8182 52.3833 45.5835C54.1227 42.4526 56.9058 39.8087 60.315 38.2084Z" fill="white"/>
<path d="M80.4921 38.4867C77.9178 42.383 74.3694 45.5139 69.9861 47.6012C66.4377 49.271 63.7243 52.402 62.4719 56.1591L62.124 57.3419C63.446 58.5247 65.0462 59.4292 66.7856 59.9858L67.8293 60.3337C67.8988 60.1945 67.9684 59.9858 67.9684 59.8466C69.6382 55.1155 73.0475 51.2888 77.6395 49.1319C80.84 47.6012 83.2752 44.8182 84.3188 41.4785L84.6667 40.4349C83.2056 40.0174 81.8141 39.3216 80.4921 38.4867Z" fill="white"/>
<path d="M59.341 53.7238C61.0804 49.5492 64.2809 46.14 68.3859 44.1918C72.143 42.3829 75.2739 39.5998 77.4308 36.1906C75.8305 34.6599 74.5086 32.9205 73.5345 30.8332C70.9602 35.5644 66.9248 39.3911 61.9849 41.7567C59.1322 43.0786 56.8362 45.3746 55.4447 48.1577C56.9754 49.6188 58.2277 51.4278 59.2018 53.4455C59.2018 53.4455 59.2714 53.5846 59.341 53.7238Z" fill="white"/>
<path d="M92.9583 50.3337H104.683V47.0837H96.7333V32.8337H92.9583V50.3337Z" fill="white"/>
<path d="M116.933 37.7337H113.433V44.6337C113.433 46.2337 112.358 47.4337 110.833 47.4337C109.408 47.4337 108.408 46.3337 108.408 44.8087V37.7337H104.933V45.5837C104.933 48.4587 106.783 50.5337 109.608 50.5337C111.333 50.5337 112.733 49.7837 113.433 48.5837V50.3337H116.933V37.7337Z" fill="white"/>
<path d="M118.233 50.3337H121.733V43.1837C121.733 41.5587 122.658 40.4837 124.108 40.4837C125.458 40.4837 126.308 41.5587 126.308 43.1837V50.3337H129.808V43.1837C129.808 41.5587 130.733 40.4837 132.183 40.4837C133.533 40.4837 134.408 41.5587 134.408 43.1837V50.3337H137.883V42.0837C137.883 39.5587 136.108 37.5337 133.358 37.5337C131.333 37.5337 129.758 38.6087 129.158 39.8337C128.558 38.3337 127.283 37.5337 125.308 37.5337C123.608 37.5337 122.408 38.3587 121.733 39.5087V37.7337H118.233V50.3337Z" fill="white"/>
<path d="M139.076 32.2587V35.9337H142.776V32.2587H139.076ZM139.176 50.3337H142.676V37.7337H139.176V50.3337Z" fill="white"/>
<path d="M143.98 50.3337H147.48V43.4337C147.48 41.8087 148.555 40.6337 150.08 40.6337C151.53 40.6337 152.505 41.7337 152.505 43.2587V50.3337H156.005V42.4837C156.005 39.5837 154.155 37.5337 151.305 37.5337C149.58 37.5337 148.18 38.2587 147.48 39.4837V37.7337H143.98V50.3337Z" fill="white"/>
<path d="M163.306 50.5337C167.181 50.5337 169.956 47.7837 169.956 44.0337C169.956 40.2837 167.181 37.5337 163.306 37.5337C159.431 37.5337 156.656 40.2837 156.656 44.0337C156.656 47.7837 159.431 50.5337 163.306 50.5337ZM163.306 47.5337C161.431 47.5337 160.156 46.1087 160.156 44.0337C160.156 41.9337 161.431 40.5087 163.306 40.5087C165.181 40.5087 166.456 41.9337 166.456 44.0337C166.456 46.1087 165.181 47.5337 163.306 47.5337Z" fill="white"/>
<path d="M182.631 37.7337H179.131V44.6337C179.131 46.2337 178.056 47.4337 176.531 47.4337C175.106 47.4337 174.106 46.3337 174.106 44.8087V37.7337H170.631V45.5837C170.631 48.4587 172.481 50.5337 175.306 50.5337C177.031 50.5337 178.431 49.7837 179.131 48.5837V50.3337H182.631V37.7337Z" fill="white"/>
<path d="M188.532 50.5337C191.482 50.5337 193.432 48.9587 193.432 46.5587C193.432 40.8587 186.532 43.7837 186.532 41.2087C186.532 40.4087 187.207 39.9837 188.182 39.9837C189.132 39.9837 190.107 40.5587 190.257 41.6337H193.282C193.157 39.1587 191.107 37.5337 188.082 37.5337C185.507 37.5337 183.582 39.1087 183.582 41.3337C183.582 46.6337 190.357 44.1087 190.357 46.6837C190.357 47.3837 189.607 47.9087 188.532 47.9087C187.232 47.9087 186.357 47.2087 186.232 46.0837H183.232C183.357 48.8087 185.457 50.5337 188.532 50.5337Z" fill="white"/>
</svg>
