<svg width="264" height="84" viewBox="0 0 264 84" fill="none" xmlns="http://www.w3.org/2000/svg">
<rect width="263.721" height="84" rx="42" fill="black"/>
<path d="M101.775 47.0324C99.3419 47.0324 97.9157 45.131 97.9157 42.9779C97.9157 40.4893 99.5376 38.8395 101.775 38.8395C102.949 38.8395 103.732 39.3148 104.459 39.7622L105.633 37.6651C104.795 37.1338 103.396 36.4907 101.914 36.4907C98.0556 36.4907 95.2873 39.2309 95.2873 42.9779C95.2873 46.6969 98.1115 49.4652 101.914 49.4652C103.536 49.4652 104.711 48.7941 105.633 48.2348L104.459 46.1377C103.732 46.6409 102.641 47.0324 101.775 47.0324ZM110.023 30.7584H112.512V49.1297H110.023V30.7584ZM126.857 36.8822L126.577 37.9447C125.906 37.2177 124.48 36.4907 122.97 36.4907C119.894 36.4907 117.07 38.9234 117.07 42.894C117.07 47.0045 119.894 49.4932 122.97 49.4932C124.48 49.4932 125.85 48.7661 126.577 48.0391L126.857 49.1576H128.954V36.966H126.857V36.8822ZM126.633 43.0618C126.633 45.8581 124.927 47.1163 123.306 47.1163C121.656 47.1163 119.754 45.9979 119.754 42.922C119.754 40.9647 120.789 38.8674 123.11 38.8674C124.871 38.8674 126.633 40.2935 126.633 42.922V43.0618ZM137.846 44.0405C139.552 44.4879 140.279 44.8234 140.279 45.6903C140.279 46.3614 139.691 47.0604 138.321 47.0604C137.063 47.0604 136.028 46.6131 135.05 46.0818L133.931 48.1789C134.798 48.7102 136.728 49.4372 138.321 49.4372C141.062 49.4372 142.655 47.5917 142.655 45.7183C142.655 42.5025 139.496 41.9993 138.657 41.7197C136.895 41.2443 136.448 40.8808 136.448 40.1537C136.448 39.3708 137.119 38.8395 138.405 38.8395C139.524 38.8395 140.363 39.175 141.146 39.5665L142.32 37.4694C141.202 36.994 139.887 36.4907 138.405 36.4907C135.721 36.4907 134.099 38.3921 134.099 40.1537C134.099 42.9779 136.476 43.7049 137.846 44.0405ZM151.184 44.0405C152.89 44.4879 153.616 44.8234 153.616 45.6903C153.616 46.3614 153.029 47.0604 151.659 47.0604C150.401 47.0604 149.366 46.6131 148.388 46.0818L147.269 48.1789C148.136 48.7102 150.065 49.4372 151.659 49.4372C154.4 49.4372 155.993 47.5917 155.993 45.7183C155.993 42.5025 152.834 41.9993 151.995 41.7197C150.233 41.2443 149.786 40.8808 149.786 40.1537C149.786 39.3708 150.457 38.8395 151.743 38.8395C152.862 38.8395 153.701 39.175 154.484 39.5665L155.658 37.4694C154.54 36.994 153.226 36.4907 151.743 36.4907C149.059 36.4907 147.437 38.3921 147.437 40.1537C147.409 42.9779 149.814 43.7049 151.184 44.0405ZM166.787 36.4907C165.278 36.4907 163.907 37.2177 163.18 37.9447L162.901 36.8262H160.803V54.1909H163.152V48.1509L163.236 48.095C163.907 48.8221 165.278 49.4093 166.591 49.4093C169.751 49.4093 172.687 47.368 172.687 42.8101C172.743 38.7276 169.919 36.4907 166.787 36.4907ZM166.507 47.1163C164.886 47.1163 163.18 45.8581 163.18 43.0618V42.922C163.18 40.2376 164.941 38.8674 166.703 38.8674C169.052 38.8674 170.059 40.9647 170.059 42.922C170.059 45.9979 168.157 47.1163 166.507 47.1163ZM186.613 36.8822L186.333 38.0007C185.662 37.2736 184.236 36.5466 182.726 36.5466C179.65 36.5466 176.826 38.9793 176.826 42.9499C176.826 47.0604 179.65 49.5491 182.726 49.5491C184.236 49.5491 185.605 48.8221 186.333 48.095L186.613 49.2135H188.71V37.022H186.613V36.8822ZM186.361 43.0618C186.361 45.8581 184.655 47.1163 183.033 47.1163C181.383 47.1163 179.482 45.9979 179.482 42.922C179.482 40.9647 180.516 38.8674 182.838 38.8674C184.599 38.8674 186.361 40.2935 186.361 42.922V43.0618ZM197.602 44.0405C199.307 44.4879 200.034 44.8234 200.034 45.6903C200.034 46.3614 199.447 47.0604 198.077 47.0604C196.818 47.0604 195.784 46.6131 194.805 46.0818L193.687 48.1789C194.553 48.7102 196.483 49.4372 198.077 49.4372C200.817 49.4372 202.411 47.5917 202.411 45.7183C202.411 42.5025 199.252 41.9993 198.413 41.7197C196.651 41.2443 196.203 40.8808 196.203 40.1537C196.203 39.3708 196.875 38.8395 198.161 38.8395C199.279 38.8395 200.118 39.175 200.902 39.5665L202.076 37.4694C200.957 36.994 199.643 36.4907 198.161 36.4907C195.477 36.4907 193.854 38.3921 193.854 40.1537C193.827 42.9779 196.231 43.7049 197.602 44.0405ZM210.912 44.0405C212.617 44.4879 213.344 44.8234 213.344 45.6903C213.344 46.3614 212.757 47.0604 211.387 47.0604C210.128 47.0604 209.094 46.6131 208.115 46.0818L206.997 48.1789C207.864 48.7102 209.793 49.4372 211.387 49.4372C214.128 49.4372 215.721 47.5917 215.721 45.7183C215.721 42.5025 212.562 41.9993 211.723 41.7197C209.961 41.2443 209.514 40.8808 209.514 40.1537C209.514 39.3708 210.185 38.8395 211.471 38.8395C212.59 38.8395 213.428 39.175 214.211 39.5665L215.386 37.4694C214.267 36.994 212.953 36.4907 211.471 36.4907C208.787 36.4907 207.165 38.3921 207.165 40.1537C207.165 42.9779 209.569 43.7049 210.912 44.0405Z" fill="white"/>
<path d="M73.949 26.8721H69.4471C68.6642 26.8721 67.8812 27.4592 67.7973 28.2422L67.1262 31.4579C67.0423 32.045 66.539 32.4365 65.9518 32.4365H60.9746C54.2356 32.5204 48 37.6096 48 44.8238C48 51.2552 53.3688 57.1273 61.0864 57.1273H66.1755C66.9585 57.1273 67.7414 56.5401 67.8253 55.7572L68.4964 52.5415C68.5803 51.9543 69.0836 51.5628 69.6708 51.5628H74.0609C81.5828 51.5628 87.1473 45.8025 87.1473 39.2594C87.0354 32.045 80.8837 26.8721 73.949 26.8721ZM73.8372 46.7812H68.5523C67.7694 46.7812 67.0983 47.3685 66.9025 48.1514L66.2314 51.2832C66.1475 51.8704 65.6442 52.2619 65.0571 52.2619H61.1423C57.1437 52.2619 52.8375 49.4376 52.8375 44.7399C52.8375 40.4337 56.6404 37.2181 61.1423 37.2181H67.1822C67.9651 37.2181 68.6362 36.6309 68.832 35.848L69.503 32.7161C69.5869 32.1289 70.0902 31.7374 70.6774 31.7374H73.8092C78.0036 31.7374 82.114 34.6736 82.114 39.2594C82.0581 43.4537 78.451 46.7812 73.8372 46.7812Z" fill="white"/>
</svg>
